<?xml version="1.0" encoding="UTF-8"?>
<svg xmlns="http://www.w3.org/2000/svg" xmlns:xlink="http://www.w3.org/1999/xlink" width="1024pt" height="768pt" viewBox="0 0 1024 768">
<defs>
<g>
</g>
<clipPath id="clip-0">
<path clip-rule="nonzero" d="M 112.261719 75.722656 L 986.371094 75.722656 L 986.371094 731.300781 L 112.261719 731.300781 Z M 112.261719 75.722656 "/>
</clipPath>
<clipPath id="clip-1">
<path clip-rule="nonzero" d="M 190.796875 146.570312 L 866.011719 146.570312 L 866.011719 652.769531 L 190.796875 652.769531 Z M 190.796875 146.570312 "/>
</clipPath>
<clipPath id="clip-2">
<path clip-rule="nonzero" d="M 190.796875 398 L 866.011719 398 L 866.011719 401 L 190.796875 401 Z M 190.796875 398 "/>
</clipPath>
<clipPath id="clip-3">
<path clip-rule="nonzero" d="M 190.796875 169 L 866.011719 169 L 866.011719 631 L 190.796875 631 Z M 190.796875 169 "/>
</clipPath>
<clipPath id="clip-4">
<path clip-rule="nonzero" d="M 190.796875 146.570312 L 866.011719 146.570312 L 866.011719 652.769531 L 190.796875 652.769531 Z M 190.796875 146.570312 "/>
</clipPath>
<clipPath id="clip-5">
<path clip-rule="nonzero" d="M 190.796875 169 L 866.011719 169 L 866.011719 631 L 190.796875 631 Z M 190.796875 169 "/>
</clipPath>
<clipPath id="clip-6">
<path clip-rule="nonzero" d="M 865 383 L 866.011719 383 L 866.011719 419 L 865 419 Z M 865 383 "/>
</clipPath>
<clipPath id="clip-7">
<path clip-rule="nonzero" d="M 809 146.570312 L 812 146.570312 L 812 652.769531 L 809 652.769531 Z M 809 146.570312 "/>
</clipPath>
<clipPath id="clip-8">
<path clip-rule="nonzero" d="M 697 146.570312 L 700 146.570312 L 700 652.769531 L 697 652.769531 Z M 697 146.570312 "/>
</clipPath>
<clipPath id="clip-9">
<path clip-rule="nonzero" d="M 585 146.570312 L 588 146.570312 L 588 652.769531 L 585 652.769531 Z M 585 146.570312 "/>
</clipPath>
<clipPath id="clip-10">
<path clip-rule="nonzero" d="M 472 146.570312 L 475 146.570312 L 475 652.769531 L 472 652.769531 Z M 472 146.570312 "/>
</clipPath>
<clipPath id="clip-11">
<path clip-rule="nonzero" d="M 360 146.570312 L 363 146.570312 L 363 652.769531 L 360 652.769531 Z M 360 146.570312 "/>
</clipPath>
<clipPath id="clip-12">
<path clip-rule="nonzero" d="M 96.191406 399 L 994 399 L 994 402 L 96.191406 402 Z M 96.191406 399 "/>
</clipPath>
<clipPath id="clip-13">
<path clip-rule="nonzero" d="M 256.472656 65.617188 L 350.390625 65.617188 L 350.390625 182.75 L 256.472656 182.75 Z M 256.472656 65.617188 "/>
</clipPath>
<clipPath id="clip-14">
<path clip-rule="nonzero" d="M 210.929688 129.402344 L 275.988281 129.402344 L 275.988281 201.898438 L 210.929688 201.898438 Z M 210.929688 129.402344 "/>
</clipPath>
<clipPath id="clip-15">
<path clip-rule="nonzero" d="M 93.414062 519.03125 L 220.324219 519.03125 L 220.324219 611.1875 L 93.414062 611.1875 Z M 93.414062 519.03125 "/>
</clipPath>
</defs>
<rect x="-102.4" y="-76.8" width="1228.8" height="921.6" fill="rgb(100%, 100%, 100%)" fill-opacity="1"/>
<g clip-path="url(#clip-0)">
<path fill-rule="nonzero" fill="rgb(100%, 100%, 100%)" fill-opacity="1" d="M 112.261719 731.300781 L 986.371094 731.300781 L 986.371094 75.722656 L 112.261719 75.722656 Z M 112.261719 731.300781 "/>
<path fill-rule="nonzero" fill="rgb(100%, 100%, 100%)" fill-opacity="1" d="M 112.261719 75.722656 L 986.371094 75.722656 L 986.371094 731.300781 L 112.261719 731.300781 Z M 112.261719 75.722656 "/>
</g>
<g clip-path="url(#clip-1)">
<path fill-rule="nonzero" fill="rgb(100%, 100%, 100%)" fill-opacity="1" d="M 190.796875 652.769531 L 866.011719 652.769531 L 866.011719 146.570312 L 190.796875 146.570312 Z M 190.796875 652.769531 "/>
<path fill-rule="nonzero" fill="rgb(100%, 100%, 100%)" fill-opacity="1" d="M 190.796875 146.570312 L 866.011719 146.570312 L 866.011719 652.769531 L 190.796875 652.769531 Z M 190.796875 146.570312 "/>
</g>
<g clip-path="url(#clip-2)">
<path fill="none" stroke-width="1" stroke-linecap="butt" stroke-linejoin="miter" stroke="rgb(0%, 0%, 0%)" stroke-opacity="1" stroke-miterlimit="10" d="M 109.999061 198.500168 L 682.999791 198.500168 " transform="matrix(1.767627, 0, 0, 1.767473, -7.679497, 49.0235)"/>
</g>
<g clip-path="url(#clip-3)">
<path fill="none" stroke-width="4" stroke-linecap="butt" stroke-linejoin="bevel" stroke="rgb(0%, 0%, 99.607849%)" stroke-opacity="1" stroke-miterlimit="10" d="M 113.000083 198.500168 L 113.749233 196.25031 L 114.37905 194.000453 L 115.119361 191.750595 L 115.879561 189.500738 L 116.500538 187.25088 L 117.249689 185.001023 L 118.001049 182.87935 L 118.619817 180.620652 L 119.380017 178.379634 L 120.120328 176.120937 L 120.750145 173.999263 L 121.499295 171.749406 L 122.250656 169.621102 L 122.880472 167.380085 L 123.620783 165.249572 L 124.2506 162.999714 L 124.999751 160.880251 L 125.748901 158.749738 L 126.380928 156.619224 L 127.119029 154.499761 L 127.879229 152.380298 L 128.500206 150.249785 L 129.249357 148.249666 L 130.000717 146.119152 L 130.619485 144.119033 L 131.379685 142.118914 L 132.119996 140.121005 L 132.749813 138.120886 L 133.498963 136.120767 L 134.250324 134.120649 L 134.880141 132.250924 L 135.620452 130.37899 L 136.380652 128.500425 L 136.999419 126.61965 L 137.750779 124.749925 L 138.49993 122.880201 L 139.120907 121.12098 L 139.878897 119.249046 L 140.619208 117.500876 L 141.249025 115.88089 L 142.000386 114.119459 L 142.749536 112.380129 L 143.379353 110.749093 L 144.119664 109.120267 L 144.879864 107.500281 L 145.500841 105.999639 L 146.249992 104.379653 L 146.879809 102.879011 L 147.62012 101.38058 L 148.38032 99.999282 L 148.999087 98.500851 L 149.750448 97.119553 L 150.499598 95.749306 L 151.120575 94.379058 L 151.880775 93.119315 L 152.621086 91.879462 L 153.250903 90.619719 L 154.000054 89.379866 L 154.749204 88.250517 L 155.379021 87.118958 L 156.119332 86.00066 L 156.879532 84.880151 L 157.50051 83.878986 L 158.24966 82.880032 L 159.001021 81.881078 L 159.619788 80.999257 L 160.379988 80.119647 L 161.120299 79.251087 L 161.750116 78.380317 L 162.499266 77.620051 L 163.250627 76.879675 L 163.880444 76.119409 L 164.620755 75.500588 L 165.380955 74.879556 L 165.999722 74.249684 L 166.751083 73.619813 L 167.500233 73.120336 L 168.119001 72.620858 L 168.8792 72.249565 L 169.500178 71.880483 L 170.249328 71.50035 L 171.000689 71.120217 L 171.619456 70.879318 L 172.379656 70.620739 L 173.119967 70.379841 L 173.749784 70.119052 L 174.498935 69.999708 L 175.250295 69.999708 L 175.880112 69.880364 L 177.380623 69.880364 L 177.99939 69.999708 L 178.750751 69.999708 L 179.499901 70.119052 L 180.120879 70.379841 L 180.881079 70.620739 L 181.61918 70.879318 L 182.248997 71.120217 L 183.000357 71.50035 L 183.749508 71.880483 L 184.379324 72.249565 L 185.119635 72.620858 L 185.879835 73.120336 L 186.500813 73.619813 L 187.999114 74.879556 L 188.620091 75.500588 L 189.380291 76.119409 L 189.999058 76.879675 L 190.750419 77.620051 L 191.499569 78.380317 L 192.120547 79.251087 L 192.880747 80.119647 L 193.621058 80.999257 L 194.250875 81.881078 L 195.749176 83.878986 L 196.378993 84.880151 L 197.119304 86.00066 L 197.879504 87.118958 L 198.500481 88.250517 L 199.249631 89.379866 L 200.000992 90.619719 L 200.619759 91.879462 L 201.379959 93.119315 L 202.12027 94.379058 L 202.750087 95.749306 L 203.499238 97.119553 L 204.250598 98.500851 L 204.880415 99.999282 L 205.620726 101.38058 L 206.380926 102.879011 L 206.999693 104.379653 L 207.751054 105.999639 L 208.500204 107.500281 L 209.118972 109.120267 L 209.879172 110.749093 L 210.619483 112.380129 L 211.2493 114.119459 L 212.00066 115.88089 L 212.619427 117.500876 L 213.379627 119.249046 L 214.119938 121.12098 L 214.749755 122.880201 L 215.498906 124.749925 L 216.250266 126.61965 L 216.880083 128.500425 L 217.620394 130.37899 L 218.380594 132.250924 L 218.999362 134.120649 L 219.750722 136.120767 L 220.499873 138.120886 L 221.12085 140.121005 L 221.88105 142.118914 L 222.619151 144.119033 L 223.248968 146.119152 L 224.000328 148.249666 L 224.749479 150.249785 L 225.379296 152.380298 L 226.119607 154.499761 L 226.879807 156.619224 L 227.500784 158.749738 L 228.249935 160.880251 L 228.999085 162.999714 L 229.620062 165.249572 L 230.380262 167.380085 L 231.120573 169.621102 L 231.75039 171.749406 L 232.499541 173.999263 L 233.120518 176.120937 L 233.880718 178.379634 L 234.621029 180.620652 L 235.250846 182.87935 L 235.999996 185.001023 L 236.749147 187.25088 L 237.378964 189.500738 L 238.119275 191.750595 L 238.879475 194.000453 L 239.500452 196.25031 L 240.249603 198.500168 L 241.000963 200.750026 L 241.619731 202.999883 L 242.379931 205.249741 L 243.120242 207.499598 L 243.750058 209.749456 L 244.499209 211.999313 L 245.250569 214.120987 L 245.880386 216.379684 L 246.620697 218.620702 L 247.380897 220.8794 L 247.999665 223.001073 L 248.751025 225.25093 L 249.500176 227.379234 L 250.118943 229.620251 L 250.879143 231.750764 L 251.619454 234.000622 L 252.249271 236.120085 L 253.000631 238.250598 L 253.749782 240.378902 L 254.379599 242.500575 L 255.11991 244.620038 L 255.749727 246.750551 L 256.501087 248.75067 L 257.250238 250.878974 L 257.880054 252.879093 L 258.620365 254.879212 L 259.380565 256.879331 L 259.999333 258.87945 L 260.750693 260.879569 L 261.499844 262.879688 L 262.120821 264.749412 L 262.881021 266.619136 L 263.619122 268.499911 L 264.248939 270.380686 L 265.0003 272.250411 L 265.74945 274.120135 L 266.379267 275.879356 L 267.119578 277.74908 L 267.879778 279.499461 L 268.500755 281.119446 L 269.249906 282.880877 L 269.999056 284.620207 L 270.620034 286.249033 L 271.380234 287.880069 L 272.120545 289.500055 L 272.750362 291.000697 L 273.499512 292.620683 L 274.250872 294.119115 L 274.880689 295.619756 L 275.621 297.001054 L 276.37899 298.499486 L 276.999968 299.880783 L 277.749118 301.25103 L 278.378935 302.619068 L 279.119246 303.881021 L 279.879446 305.120874 L 280.500423 306.380617 L 281.249574 307.62047 L 282.000934 308.749819 L 282.619702 309.879168 L 283.379902 310.999677 L 284.120213 312.120185 L 284.75003 313.11914 L 285.49918 314.120304 L 286.250541 315.119259 L 286.880358 316.001079 L 287.620669 316.880689 L 288.380869 317.749249 L 288.999636 318.620019 L 289.750996 319.380285 L 290.500147 320.120661 L 291.118914 320.880927 L 291.879114 321.499749 L 292.619425 322.12078 L 293.249242 322.750652 L 294.000603 323.380523 L 294.749753 323.880001 L 295.37957 324.379478 L 296.119881 324.750771 L 296.880081 325.119853 L 297.501058 325.499986 L 298.250209 325.88012 L 298.880026 326.121018 L 299.620337 326.379597 L 300.380537 326.620495 L 300.999304 326.879074 L 301.750665 327.000628 L 302.499815 327.000628 L 303.120792 327.119972 L 304.619094 327.119972 L 305.24891 327.000628 L 306.000271 327.000628 L 306.749421 326.879074 L 307.379238 326.620495 L 308.119549 326.379597 L 308.879749 326.121018 L 309.500727 325.88012 L 310.999028 325.119853 L 311.620005 324.750771 L 312.380205 324.379478 L 313.120516 323.880001 L 313.750333 323.380523 L 314.499483 322.750652 L 315.250844 322.12078 L 315.880661 321.499749 L 316.620972 320.880927 L 317.378962 320.120661 L 317.999939 319.380285 L 318.74909 318.620019 L 319.50045 317.749249 L 320.119217 316.880689 L 320.879417 316.001079 L 321.500395 315.119259 L 322.249545 314.120304 L 323.000906 313.11914 L 323.619673 312.120185 L 324.379873 310.999677 L 325.120184 309.879168 L 325.750001 308.749819 L 326.499152 307.62047 L 327.250512 306.380617 L 327.880329 305.120874 L 328.62064 303.881021 L 329.38084 302.619068 L 329.999607 301.25103 L 330.750968 299.880783 L 331.500118 298.499486 L 332.121096 297.001054 L 332.879086 295.619756 L 333.619397 294.119115 L 334.249213 292.620683 L 335.000574 291.000697 L 335.749724 289.500055 L 336.379541 287.880069 L 337.119852 286.249033 L 337.880052 284.620207 L 338.50103 282.880877 L 339.25018 281.119446 L 339.999331 279.499461 L 340.620308 277.74908 L 341.380508 275.879356 L 341.999275 274.120135 L 342.750636 272.250411 L 343.499786 270.380686 L 344.120764 268.499911 L 344.880964 266.619136 L 345.619065 264.749412 L 346.251092 262.879688 L 347.749393 258.87945 L 348.37921 256.879331 L 349.119521 254.879212 L 349.879721 252.879093 L 350.500698 250.878974 L 351.249848 248.75067 L 351.998999 246.750551 L 352.619976 244.620038 L 353.380176 242.500575 L 354.120487 240.378902 L 354.750304 238.250598 L 355.499455 236.120085 L 356.250815 234.000622 L 356.880632 231.750764 L 357.620943 229.620251 L 358.378933 227.379234 L 358.99991 225.25093 L 359.749061 223.001073 L 360.500421 220.8794 L 361.119189 218.620702 L 361.879389 216.379684 L 362.6197 214.120987 L 363.249517 211.999313 L 364.000877 209.749456 L 364.619644 207.499598 L 365.379844 205.249741 L 366.120155 202.999883 L 366.749972 200.750026 L 367.499123 198.500168 L 368.250483 196.25031 L 368.8803 194.000453 L 369.620611 191.750595 L 370.380811 189.500738 L 370.999579 187.25088 L 371.750939 185.001023 L 372.50009 182.87935 L 373.121067 180.620652 L 373.879057 178.379634 L 374.619368 176.120937 L 375.249185 173.999263 L 376.000545 171.749406 L 376.749696 169.621102 L 377.379513 167.380085 L 378.119824 165.249572 L 378.880024 162.999714 L 379.501001 160.880251 L 380.999302 156.619224 L 381.620279 154.499761 L 382.380479 152.380298 L 383.12079 150.249785 L 383.750607 148.249666 L 384.499758 146.119152 L 385.248908 144.119033 L 385.880935 142.118914 L 386.619036 140.121005 L 387.251063 138.120886 L 388.749364 134.120649 L 389.379181 132.250924 L 390.119492 130.37899 L 390.879692 128.500425 L 391.500669 126.61965 L 392.99897 122.880201 L 393.619948 121.12098 L 394.380148 119.249046 L 395.120459 117.500876 L 395.750275 115.88089 L 396.499426 114.119459 L 397.250786 112.380129 L 397.880603 110.749093 L 398.620914 109.120267 L 399.378904 107.500281 L 399.999882 105.999639 L 400.749032 104.379653 L 401.500393 102.879011 L 402.11916 101.38058 L 402.87936 99.999282 L 403.619671 98.500851 L 404.249488 97.119553 L 405.000848 95.749306 L 405.749999 94.379058 L 406.379816 93.119315 L 407.120127 91.879462 L 407.749944 90.619719 L 408.499094 89.379866 L 409.250455 88.250517 L 409.880271 87.118958 L 410.620582 86.00066 L 411.380782 84.880151 L 411.99955 83.878986 L 412.75091 82.880032 L 413.500061 81.881078 L 414.121038 80.999257 L 414.879028 80.119647 L 415.619339 79.251087 L 416.249156 78.380317 L 417.000517 77.620051 L 417.749667 76.879675 L 418.379484 76.119409 L 419.119795 75.500588 L 419.879995 74.879556 L 420.500972 74.249684 L 421.250123 73.619813 L 421.999273 73.120336 L 422.620251 72.620858 L 423.380451 72.249565 L 424.120762 71.880483 L 424.750578 71.50035 L 425.499729 71.120217 L 426.251089 70.879318 L 426.880906 70.620739 L 427.619007 70.379841 L 428.379207 70.119052 L 429.000185 69.999708 L 429.749335 69.999708 L 430.379152 69.880364 L 431.879663 69.880364 L 432.50064 69.999708 L 433.249791 69.999708 L 433.998942 70.119052 L 434.619919 70.379841 L 435.380119 70.620739 L 436.12043 70.879318 L 436.750247 71.120217 L 437.499397 71.50035 L 438.250758 71.880483 L 438.880574 72.249565 L 439.620886 72.620858 L 440.381085 73.120336 L 440.999853 73.619813 L 441.749003 74.249684 L 442.500364 74.879556 L 443.119131 75.500588 L 443.879331 76.119409 L 444.619642 76.879675 L 445.249459 77.620051 L 446.00082 78.380317 L 446.74997 79.251087 L 447.379787 80.119647 L 448.120098 80.999257 L 448.880298 81.881078 L 449.499065 82.880032 L 450.250426 83.878986 L 450.999576 84.880151 L 451.620554 86.00066 L 452.380754 87.118958 L 452.999521 88.250517 L 453.750882 89.379866 L 454.500032 90.619719 L 455.121009 91.879462 L 455.879 93.119315 L 456.619311 94.379058 L 457.249127 95.749306 L 458.000488 97.119553 L 458.749638 98.500851 L 459.379455 99.999282 L 460.119766 101.38058 L 460.879966 102.879011 L 461.500943 104.379653 L 462.250094 105.999639 L 462.999245 107.500281 L 463.620222 109.120267 L 464.380422 110.749093 L 465.120733 112.380129 L 465.75055 114.119459 L 466.4997 115.88089 L 467.251061 117.500876 L 467.880878 119.249046 L 468.618979 121.12098 L 469.379179 122.880201 L 470.000156 124.749925 L 470.749307 126.61965 L 471.500667 128.500425 L 472.119434 130.37899 L 472.879634 132.250924 L 473.500612 134.120649 L 474.998913 138.120886 L 475.61989 140.121005 L 476.38009 142.118914 L 477.120401 144.119033 L 477.750218 146.119152 L 478.499369 148.249666 L 479.250729 150.249785 L 479.880546 152.380298 L 480.620857 154.499761 L 481.381057 156.619224 L 481.999824 158.749738 L 482.748975 160.880251 L 483.500335 162.999714 L 484.119103 165.249572 L 484.879303 167.380085 L 485.619614 169.621102 L 486.24943 171.749406 L 487.000791 173.999263 L 487.749941 176.120937 L 488.379758 178.379634 L 489.120069 180.620652 L 489.880269 182.87935 L 490.499037 185.001023 L 491.250397 187.25088 L 491.999548 189.500738 L 492.620525 191.750595 L 493.380725 194.000453 L 494.121036 196.25031 L 494.750853 198.500168 L 495.500003 200.750026 L 496.120981 202.999883 L 496.878971 205.249741 L 497.619282 207.499598 L 498.249099 209.749456 L 499.000459 211.999313 L 499.74961 214.120987 L 500.379426 216.379684 L 501.119738 218.620702 L 501.879937 220.8794 L 502.500915 223.001073 L 503.250065 225.25093 L 503.999216 227.379234 L 504.620193 229.620251 L 505.380393 231.750764 L 506.120704 234.000622 L 506.750521 236.120085 L 507.499672 238.250598 L 508.251032 240.378902 L 508.880849 242.500575 L 509.61895 244.620038 L 510.37915 246.750551 L 511.000127 248.75067 L 511.749278 250.878974 L 512.500638 252.879093 L 513.119406 254.879212 L 513.879606 256.879331 L 514.619917 258.87945 L 515.249734 260.879569 L 516.001094 262.879688 L 516.619861 264.749412 L 517.380061 266.619136 L 518.120372 268.499911 L 518.750189 270.380686 L 519.49934 272.250411 L 520.2507 274.120135 L 520.880517 275.879356 L 521.620828 277.74908 L 522.381028 279.499461 L 522.999795 281.119446 L 523.748946 282.880877 L 524.500306 284.620207 L 525.119074 286.249033 L 525.879274 287.880069 L 526.619585 289.500055 L 527.249402 291.000697 L 528.000762 292.620683 L 528.749913 294.119115 L 529.37973 295.619756 L 530.120041 297.001054 L 530.880241 298.499486 L 531.499008 299.880783 L 532.250368 301.25103 L 532.999519 302.619068 L 533.620496 303.881021 L 534.380696 305.120874 L 535.121007 306.380617 L 535.750824 307.62047 L 537.249125 309.879168 L 537.878942 310.999677 L 538.619253 312.120185 L 539.24907 313.11914 L 540.00043 314.120304 L 540.749581 315.119259 L 541.379398 316.001079 L 542.119709 316.880689 L 542.879909 317.749249 L 543.500886 318.620019 L 544.250037 319.380285 L 544.999187 320.120661 L 545.620164 320.880927 L 546.380364 321.499749 L 547.120675 322.12078 L 547.750492 322.750652 L 548.499643 323.380523 L 549.251003 323.880001 L 549.88082 324.379478 L 550.618921 324.750771 L 551.379121 325.119853 L 552.000099 325.499986 L 552.749249 325.88012 L 553.50061 326.121018 L 554.119377 326.379597 L 554.879577 326.620495 L 555.619888 326.879074 L 556.249705 327.000628 L 557.001065 327.000628 L 557.750216 327.119972 L 559.120344 327.119972 L 559.880544 327.000628 L 560.499311 327.000628 L 561.250672 326.879074 L 561.880488 326.620495 L 562.620799 326.379597 L 563.380999 326.121018 L 563.999767 325.88012 L 564.748917 325.499986 L 565.500278 325.119853 L 566.119045 324.750771 L 566.879245 324.379478 L 567.619556 323.880001 L 568.249373 323.380523 L 569.000733 322.750652 L 569.749884 322.12078 L 570.379701 321.499749 L 571.120012 320.880927 L 571.880212 320.120661 L 572.498979 319.380285 L 573.25034 318.620019 L 573.99949 317.749249 L 574.620468 316.880689 L 575.380668 316.001079 L 576.120979 315.119259 L 576.750795 314.120304 L 577.499946 313.11914 L 578.249097 312.120185 L 578.878913 310.999677 L 579.619224 309.879168 L 580.379424 308.749819 L 581.000402 307.62047 L 581.749552 306.380617 L 582.379369 305.120874 L 583.11968 303.881021 L 583.87988 302.619068 L 584.500857 301.25103 L 585.250008 299.880783 L 585.999158 298.499486 L 586.620136 297.001054 L 587.380336 295.619756 L 588.120647 294.119115 L 588.750464 292.620683 L 589.499614 291.000697 L 590.250975 289.500055 L 590.880791 287.880069 L 591.621102 286.249033 L 592.379093 284.620207 L 593.00007 282.880877 L 593.74922 281.119446 L 594.500581 279.499461 L 595.119348 277.74908 L 595.879548 275.879356 L 596.619859 274.120135 L 597.249676 272.250411 L 598.001037 270.380686 L 598.750187 268.499911 L 599.380004 266.619136 L 600.120315 264.749412 L 600.880515 262.879688 L 601.499282 260.879569 L 602.250643 258.87945 L 602.999793 256.879331 L 603.620771 254.879212 L 604.380971 252.879093 L 604.999738 250.878974 L 605.751099 248.75067 L 606.500249 246.750551 L 607.119016 244.620038 L 607.879216 242.500575 L 608.619527 240.378902 L 609.249344 238.250598 L 610.000705 236.120085 L 610.749855 234.000622 L 611.379672 231.750764 L 612.119983 229.620251 L 612.880183 227.379234 L 613.498951 225.25093 L 614.250311 223.001073 L 614.999462 220.8794 L 615.620439 218.620702 L 616.380639 216.379684 L 617.12095 214.120987 L 617.750767 211.999313 L 619.249068 207.499598 L 619.881095 205.249741 L 620.619196 202.999883 L 621.379396 200.750026 L 622.000373 198.500168 L 622.749524 196.25031 L 623.500884 194.000453 L 624.119651 191.750595 L 624.879851 189.500738 L 625.500829 187.25088 L 626.249979 185.001023 L 626.99913 182.87935 L 627.620107 180.620652 L 628.380307 178.379634 L 629.120618 176.120937 L 629.750435 173.999263 L 630.499585 171.749406 L 631.250946 169.621102 L 631.880763 167.380085 L 632.621074 165.249572 L 633.379064 162.999714 L 634.000041 160.880251 L 634.749192 158.749738 L 635.500552 156.619224 L 636.11932 154.499761 L 636.87952 152.380298 L 637.619831 150.249785 L 638.249647 148.249666 L 639.001008 146.119152 L 639.750158 144.119033 L 640.379975 142.118914 L 641.120286 140.121005 L 641.880486 138.120886 L 642.499254 136.120767 L 643.250614 134.120649 L 643.999765 132.250924 L 644.620742 130.37899 L 645.380942 128.500425 L 646.119043 126.61965 L 646.75107 124.749925 L 647.50022 122.880201 L 648.118988 121.12098 L 648.879188 119.249046 L 649.619499 117.500876 L 650.249316 115.88089 L 651.000676 114.119459 L 651.749827 112.380129 L 652.379643 110.749093 L 653.119954 109.120267 L 653.880154 107.500281 L 654.498922 105.999639 L 655.250282 104.379653 L 655.999433 102.879011 L 656.62041 101.38058 L 657.38061 99.999282 L 658.120921 98.500851 L 658.750738 97.119553 L 660.249039 94.379058 L 660.881066 93.119315 L 661.619167 91.879462 L 662.379367 90.619719 L 663.000344 89.379866 L 663.749495 88.250517 L 664.500855 87.118958 L 665.119623 86.00066 L 665.879823 84.880151 L 666.620134 83.878986 L 667.24995 82.880032 L 667.999101 81.881078 L 668.750461 80.999257 L 669.380278 80.119647 L 670.120589 79.251087 L 670.750406 78.380317 L 671.499557 77.620051 L 672.250917 76.879675 L 672.880734 76.119409 L 673.621045 75.500588 L 674.379035 74.879556 L 675.000012 74.249684 L 675.749163 73.619813 L 676.500523 73.120336 L 677.119291 72.620858 L 677.879491 72.249565 L 678.619802 71.880483 L 679.249619 71.50035 L 680.000979 71.120217 " transform="matrix(1.767627, 0, 0, 1.767473, -7.679497, 49.0235)"/>
</g>
<g clip-path="url(#clip-4)">
<path fill="none" stroke-width="4" stroke-linecap="butt" stroke-linejoin="bevel" stroke="rgb(0%, 79.608154%, 0%)" stroke-opacity="1" stroke-miterlimit="10" d="M 113.000083 198.500168 L 113.749233 196.000572 L 114.37905 193.500976 L 115.119361 191.120724 L 115.879561 188.618917 L 116.500538 186.119321 L 117.249689 183.75012 L 118.001049 181.250523 L 118.619817 178.750927 L 119.380017 176.379515 L 120.120328 173.879919 L 120.750145 171.499667 L 121.499295 169.119415 L 122.250656 166.619819 L 122.880472 164.250617 L 123.620783 161.879206 L 124.2506 159.498953 L 124.999751 157.120911 L 125.748901 154.7495 L 126.380928 152.380298 L 127.119029 150.11939 L 127.879229 147.750188 L 128.500206 145.500331 L 129.249357 143.250473 L 130.000717 141.000616 L 130.619485 138.750758 L 131.379685 136.500901 L 132.119996 134.251043 L 132.749813 132.12053 L 133.498963 129.879512 L 134.250324 127.748999 L 134.880141 125.620695 L 135.620452 123.499022 L 136.380652 121.379559 L 136.999419 119.37944 L 137.750779 117.379321 L 138.49993 115.379202 L 139.120907 113.379083 L 139.878897 111.378964 L 140.619208 109.5004 L 141.249025 107.500281 L 142.000386 105.619506 L 142.749536 103.880176 L 143.379353 101.999401 L 144.119664 100.249021 L 144.879864 98.500851 L 145.500841 96.75047 L 146.249992 95.00009 L 146.879809 93.380104 L 147.62012 91.749068 L 148.38032 90.120242 L 148.999087 88.500256 L 149.750448 86.999614 L 150.499598 85.498972 L 151.120575 84.000541 L 151.880775 82.619243 L 152.621086 81.248996 L 153.250903 79.880959 L 154.000054 78.499661 L 154.749204 77.250968 L 155.379021 76.000065 L 156.119332 74.749162 L 156.879532 73.619813 L 157.50051 72.37996 L 158.24966 71.381006 L 159.001021 70.249447 L 159.619788 69.250492 L 160.379988 68.249328 L 161.120299 67.250373 L 161.750116 66.379603 L 162.499266 65.499993 L 163.250627 64.750777 L 163.880444 63.880007 L 164.620755 63.119741 L 165.380955 62.500919 L 165.999722 61.879888 L 166.751083 61.250016 L 167.500233 60.620145 L 168.119001 60.120667 L 168.8792 59.61898 L 169.500178 59.119503 L 170.249328 58.75042 L 171.000689 58.379127 L 171.619456 57.998994 L 172.379656 57.749256 L 173.119967 57.499517 L 173.749784 57.380173 L 174.498935 57.249778 L 175.250295 57.119384 L 175.880112 57.00004 L 177.380623 57.00004 L 177.99939 57.119384 L 178.750751 57.249778 L 179.499901 57.380173 L 180.120879 57.499517 L 180.881079 57.749256 L 181.61918 57.998994 L 182.248997 58.379127 L 183.000357 58.75042 L 183.749508 59.119503 L 184.379324 59.61898 L 185.119635 60.120667 L 185.879835 60.620145 L 186.500813 61.250016 L 187.249963 61.879888 L 187.999114 62.500919 L 188.620091 63.119741 L 189.380291 63.880007 L 189.999058 64.750777 L 190.750419 65.499993 L 191.499569 66.379603 L 192.120547 67.250373 L 192.880747 68.249328 L 193.621058 69.250492 L 194.250875 70.249447 L 195.000025 71.381006 L 195.749176 72.37996 L 196.378993 73.619813 L 197.119304 74.749162 L 197.879504 76.000065 L 198.500481 77.250968 L 199.249631 78.499661 L 200.000992 79.880959 L 200.619759 81.248996 L 201.379959 82.619243 L 202.12027 84.000541 L 202.750087 85.498972 L 203.499238 86.999614 L 204.250598 88.500256 L 204.880415 90.120242 L 205.620726 91.749068 L 206.380926 93.380104 L 206.999693 95.00009 L 207.751054 96.75047 L 208.500204 98.500851 L 209.118972 100.249021 L 209.879172 101.999401 L 210.619483 103.880176 L 211.2493 105.619506 L 212.00066 107.500281 L 212.619427 109.5004 L 213.379627 111.378964 L 214.119938 113.379083 L 214.749755 115.379202 L 215.498906 117.379321 L 216.250266 119.37944 L 216.880083 121.379559 L 217.620394 123.499022 L 218.380594 125.620695 L 218.999362 127.748999 L 219.750722 129.879512 L 220.499873 132.12053 L 221.12085 134.251043 L 221.88105 136.500901 L 222.619151 138.750758 L 223.248968 141.000616 L 224.000328 143.250473 L 224.749479 145.500331 L 225.379296 147.750188 L 226.119607 150.11939 L 226.879807 152.380298 L 227.500784 154.7495 L 228.249935 157.120911 L 228.999085 159.498953 L 229.620062 161.879206 L 230.380262 164.250617 L 231.120573 166.619819 L 231.75039 169.119415 L 232.499541 171.499667 L 233.120518 173.879919 L 233.880718 176.379515 L 234.621029 178.750927 L 235.250846 181.250523 L 235.999996 183.75012 L 236.749147 186.119321 L 237.378964 188.618917 L 238.119275 191.120724 L 238.879475 193.500976 L 239.500452 196.000572 L 240.249603 198.500168 L 241.000963 200.999764 L 241.619731 203.49936 L 242.379931 205.879612 L 243.120242 208.379209 L 243.750058 210.881015 L 244.499209 213.250217 L 245.250569 215.749813 L 245.880386 218.249409 L 246.620697 220.620821 L 247.380897 223.120417 L 247.999665 225.500669 L 248.751025 227.880921 L 249.500176 230.380517 L 250.118943 232.749719 L 250.879143 235.11892 L 251.619454 237.499173 L 252.249271 239.879425 L 253.000631 242.250836 L 253.749782 244.620038 L 254.379599 246.880946 L 255.11991 249.250148 L 255.749727 251.500005 L 256.501087 253.749863 L 257.250238 255.99972 L 257.880054 258.249578 L 258.620365 260.499435 L 259.380565 262.749293 L 259.999333 264.879807 L 260.750693 267.120824 L 261.499844 269.249127 L 262.120821 271.379641 L 262.881021 273.499104 L 263.619122 275.620777 L 264.248939 277.620896 L 265.0003 279.621015 L 265.74945 281.618924 L 266.379267 283.619043 L 267.119578 285.619162 L 267.879778 287.499936 L 268.500755 289.500055 L 269.249906 291.38083 L 269.999056 293.12016 L 270.620034 295.000935 L 271.380234 296.749105 L 272.120545 298.499486 L 272.750362 300.249866 L 273.499512 302.000246 L 274.250872 303.620232 L 274.880689 305.249058 L 275.621 306.880094 L 276.37899 308.50008 L 276.999968 310.000722 L 277.749118 311.499154 L 278.378935 312.999795 L 279.119246 314.381093 L 279.879446 315.74913 L 280.500423 317.119377 L 281.249574 318.500675 L 282.000934 319.749368 L 282.619702 321.000271 L 283.379902 322.248964 L 284.120213 323.380523 L 284.75003 324.620376 L 285.49918 325.619331 L 286.250541 326.75089 L 286.880358 327.749844 L 287.620669 328.751009 L 288.380869 329.749963 L 288.999636 330.620733 L 289.750996 331.500343 L 290.500147 332.249559 L 291.118914 333.120329 L 291.879114 333.880595 L 292.619425 334.499417 L 293.249242 335.120448 L 294.000603 335.75032 L 294.749753 336.380192 L 295.37957 336.879669 L 296.119881 337.379146 L 296.880081 337.880833 L 297.501058 338.249916 L 298.250209 338.618999 L 298.880026 338.999132 L 299.620337 339.25108 L 300.380537 339.500819 L 300.999304 339.620163 L 301.750665 339.750558 L 302.499815 339.880952 L 303.120792 340.000296 L 304.619094 340.000296 L 305.24891 339.880952 L 306.000271 339.750558 L 306.749421 339.620163 L 307.379238 339.500819 L 308.119549 339.25108 L 308.879749 338.999132 L 309.500727 338.618999 L 310.999028 337.880833 L 311.620005 337.379146 L 312.380205 336.879669 L 313.120516 336.380192 L 313.750333 335.75032 L 314.499483 335.120448 L 315.250844 334.499417 L 315.880661 333.880595 L 316.620972 333.120329 L 317.378962 332.249559 L 317.999939 331.500343 L 318.74909 330.620733 L 319.50045 329.749963 L 320.119217 328.751009 L 320.879417 327.749844 L 321.500395 326.75089 L 322.249545 325.619331 L 323.000906 324.620376 L 323.619673 323.380523 L 324.379873 322.248964 L 325.120184 321.000271 L 325.750001 319.749368 L 326.499152 318.500675 L 327.250512 317.119377 L 327.880329 315.74913 L 328.62064 314.381093 L 329.38084 312.999795 L 329.999607 311.499154 L 330.750968 310.000722 L 331.500118 308.50008 L 332.121096 306.880094 L 332.879086 305.249058 L 333.619397 303.620232 L 334.249213 302.000246 L 335.000574 300.249866 L 335.749724 298.499486 L 336.379541 296.749105 L 337.119852 295.000935 L 337.880052 293.12016 L 338.50103 291.38083 L 339.25018 289.500055 L 339.999331 287.499936 L 340.620308 285.619162 L 341.380508 283.619043 L 341.999275 281.618924 L 342.750636 279.621015 L 343.499786 277.620896 L 344.120764 275.620777 L 344.880964 273.499104 L 345.619065 271.379641 L 346.251092 269.249127 L 347.000242 267.120824 L 347.749393 264.879807 L 348.37921 262.749293 L 349.119521 260.499435 L 349.879721 258.249578 L 350.500698 255.99972 L 351.998999 251.500005 L 352.619976 249.250148 L 353.380176 246.880946 L 354.120487 244.620038 L 354.750304 242.250836 L 355.499455 239.879425 L 356.250815 237.499173 L 356.880632 235.11892 L 357.620943 232.749719 L 358.378933 230.380517 L 358.99991 227.880921 L 359.749061 225.500669 L 360.500421 223.120417 L 361.119189 220.620821 L 361.879389 218.249409 L 362.6197 215.749813 L 363.249517 213.250217 L 364.000877 210.881015 L 364.619644 208.379209 L 365.379844 205.879612 L 366.120155 203.49936 L 366.749972 200.999764 L 367.499123 198.500168 L 368.250483 196.000572 L 368.8803 193.500976 L 369.620611 191.120724 L 370.380811 188.618917 L 370.999579 186.119321 L 371.750939 183.75012 L 372.50009 181.250523 L 373.121067 178.750927 L 373.879057 176.379515 L 374.619368 173.879919 L 375.249185 171.499667 L 376.000545 169.119415 L 376.749696 166.619819 L 377.379513 164.250617 L 378.119824 161.879206 L 378.880024 159.498953 L 379.501001 157.120911 L 380.250151 154.7495 L 380.999302 152.380298 L 381.620279 150.11939 L 382.380479 147.750188 L 383.12079 145.500331 L 383.750607 143.250473 L 385.248908 138.750758 L 385.880935 136.500901 L 386.619036 134.251043 L 387.251063 132.12053 L 388.000213 129.879512 L 388.749364 127.748999 L 389.379181 125.620695 L 390.119492 123.499022 L 390.879692 121.379559 L 391.500669 119.37944 L 392.99897 115.379202 L 393.619948 113.379083 L 394.380148 111.378964 L 395.120459 109.5004 L 395.750275 107.500281 L 396.499426 105.619506 L 397.250786 103.880176 L 397.880603 101.999401 L 398.620914 100.249021 L 399.378904 98.500851 L 399.999882 96.75047 L 400.749032 95.00009 L 401.500393 93.380104 L 402.11916 91.749068 L 402.87936 90.120242 L 403.619671 88.500256 L 404.249488 86.999614 L 405.000848 85.498972 L 405.749999 84.000541 L 406.379816 82.619243 L 407.120127 81.248996 L 407.749944 79.880959 L 408.499094 78.499661 L 409.250455 77.250968 L 409.880271 76.000065 L 410.620582 74.749162 L 411.380782 73.619813 L 411.99955 72.37996 L 412.75091 71.381006 L 413.500061 70.249447 L 414.121038 69.250492 L 414.879028 68.249328 L 415.619339 67.250373 L 416.249156 66.379603 L 417.000517 65.499993 L 417.749667 64.750777 L 418.379484 63.880007 L 419.119795 63.119741 L 419.879995 62.500919 L 420.500972 61.879888 L 421.999273 60.620145 L 422.620251 60.120667 L 423.380451 59.61898 L 424.120762 59.119503 L 424.750578 58.75042 L 425.499729 58.379127 L 426.251089 57.998994 L 426.880906 57.749256 L 427.619007 57.499517 L 428.379207 57.380173 L 429.000185 57.249778 L 429.749335 57.119384 L 430.379152 57.00004 L 431.879663 57.00004 L 432.50064 57.119384 L 433.998942 57.380173 L 434.619919 57.499517 L 435.380119 57.749256 L 436.12043 57.998994 L 436.750247 58.379127 L 437.499397 58.75042 L 438.250758 59.119503 L 438.880574 59.61898 L 439.620886 60.120667 L 440.381085 60.620145 L 440.999853 61.250016 L 441.749003 61.879888 L 442.500364 62.500919 L 443.879331 63.880007 L 444.619642 64.750777 L 445.249459 65.499993 L 446.00082 66.379603 L 446.74997 67.250373 L 447.379787 68.249328 L 448.120098 69.250492 L 448.880298 70.249447 L 449.499065 71.381006 L 450.250426 72.37996 L 450.999576 73.619813 L 451.620554 74.749162 L 452.380754 76.000065 L 452.999521 77.250968 L 453.750882 78.499661 L 454.500032 79.880959 L 455.121009 81.248996 L 455.879 82.619243 L 456.619311 84.000541 L 457.249127 85.498972 L 458.000488 86.999614 L 458.749638 88.500256 L 459.379455 90.120242 L 460.119766 91.749068 L 460.879966 93.380104 L 461.500943 95.00009 L 462.999245 98.500851 L 463.620222 100.249021 L 464.380422 101.999401 L 465.120733 103.880176 L 465.75055 105.619506 L 466.4997 107.500281 L 467.251061 109.5004 L 467.880878 111.378964 L 468.618979 113.379083 L 469.379179 115.379202 L 470.000156 117.379321 L 470.749307 119.37944 L 471.500667 121.379559 L 472.119434 123.499022 L 472.879634 125.620695 L 473.500612 127.748999 L 474.249762 129.879512 L 474.998913 132.12053 L 475.61989 134.251043 L 476.38009 136.500901 L 477.120401 138.750758 L 477.750218 141.000616 L 478.499369 143.250473 L 479.250729 145.500331 L 479.880546 147.750188 L 480.620857 150.11939 L 481.381057 152.380298 L 481.999824 154.7495 L 482.748975 157.120911 L 483.500335 159.498953 L 484.119103 161.879206 L 484.879303 164.250617 L 485.619614 166.619819 L 486.24943 169.119415 L 487.000791 171.499667 L 487.749941 173.879919 L 488.379758 176.379515 L 489.120069 178.750927 L 489.880269 181.250523 L 490.499037 183.75012 L 491.250397 186.119321 L 491.999548 188.618917 L 492.620525 191.120724 L 493.380725 193.500976 L 494.121036 196.000572 L 494.750853 198.500168 L 495.500003 200.999764 L 496.120981 203.49936 L 496.878971 205.879612 L 497.619282 208.379209 L 498.249099 210.881015 L 499.000459 213.250217 L 499.74961 215.749813 L 500.379426 218.249409 L 501.119738 220.620821 L 501.879937 223.120417 L 502.500915 225.500669 L 503.250065 227.880921 L 503.999216 230.380517 L 504.620193 232.749719 L 505.380393 235.11892 L 506.120704 237.499173 L 506.750521 239.879425 L 507.499672 242.250836 L 508.251032 244.620038 L 508.880849 246.880946 L 509.61895 249.250148 L 510.37915 251.500005 L 511.000127 253.749863 L 511.749278 255.99972 L 512.500638 258.249578 L 513.119406 260.499435 L 513.879606 262.749293 L 514.619917 264.879807 L 515.249734 267.120824 L 516.001094 269.249127 L 516.619861 271.379641 L 517.380061 273.499104 L 518.120372 275.620777 L 518.750189 277.620896 L 519.49934 279.621015 L 520.2507 281.618924 L 520.880517 283.619043 L 521.620828 285.619162 L 522.381028 287.499936 L 522.999795 289.500055 L 523.748946 291.38083 L 524.500306 293.12016 L 525.119074 295.000935 L 525.879274 296.749105 L 526.619585 298.499486 L 527.249402 300.249866 L 528.000762 302.000246 L 528.749913 303.620232 L 529.37973 305.249058 L 530.120041 306.880094 L 530.880241 308.50008 L 531.499008 310.000722 L 532.250368 311.499154 L 532.999519 312.999795 L 533.620496 314.381093 L 534.380696 315.74913 L 535.121007 317.119377 L 535.750824 318.500675 L 536.499975 319.749368 L 537.249125 321.000271 L 537.878942 322.248964 L 538.619253 323.380523 L 539.24907 324.620376 L 540.00043 325.619331 L 540.749581 326.75089 L 541.379398 327.749844 L 542.119709 328.751009 L 542.879909 329.749963 L 543.500886 330.620733 L 544.250037 331.500343 L 544.999187 332.249559 L 545.620164 333.120329 L 546.380364 333.880595 L 547.120675 334.499417 L 547.750492 335.120448 L 548.499643 335.75032 L 549.251003 336.380192 L 549.88082 336.879669 L 550.618921 337.379146 L 551.379121 337.880833 L 552.000099 338.249916 L 552.749249 338.618999 L 553.50061 338.999132 L 554.119377 339.25108 L 554.879577 339.500819 L 555.619888 339.620163 L 556.249705 339.750558 L 557.001065 339.880952 L 557.750216 340.000296 L 559.120344 340.000296 L 559.880544 339.880952 L 560.499311 339.750558 L 561.250672 339.620163 L 561.880488 339.500819 L 562.620799 339.25108 L 563.380999 338.999132 L 563.999767 338.618999 L 564.748917 338.249916 L 565.500278 337.880833 L 566.119045 337.379146 L 566.879245 336.879669 L 567.619556 336.380192 L 568.249373 335.75032 L 569.000733 335.120448 L 569.749884 334.499417 L 570.379701 333.880595 L 571.120012 333.120329 L 571.880212 332.249559 L 572.498979 331.500343 L 573.25034 330.620733 L 573.99949 329.749963 L 574.620468 328.751009 L 575.380668 327.749844 L 576.120979 326.75089 L 576.750795 325.619331 L 577.499946 324.620376 L 578.249097 323.380523 L 578.878913 322.248964 L 579.619224 321.000271 L 580.379424 319.749368 L 581.000402 318.500675 L 581.749552 317.119377 L 582.379369 315.74913 L 583.11968 314.381093 L 583.87988 312.999795 L 584.500857 311.499154 L 585.250008 310.000722 L 585.999158 308.50008 L 586.620136 306.880094 L 587.380336 305.249058 L 588.120647 303.620232 L 588.750464 302.000246 L 589.499614 300.249866 L 590.250975 298.499486 L 590.880791 296.749105 L 591.621102 295.000935 L 592.379093 293.12016 L 593.00007 291.38083 L 593.74922 289.500055 L 594.500581 287.499936 L 595.119348 285.619162 L 595.879548 283.619043 L 596.619859 281.618924 L 597.249676 279.621015 L 598.001037 277.620896 L 598.750187 275.620777 L 599.380004 273.499104 L 600.120315 271.379641 L 600.880515 269.249127 L 601.499282 267.120824 L 602.250643 264.879807 L 602.999793 262.749293 L 603.620771 260.499435 L 604.380971 258.249578 L 604.999738 255.99972 L 605.751099 253.749863 L 606.500249 251.500005 L 607.119016 249.250148 L 607.879216 246.880946 L 608.619527 244.620038 L 609.249344 242.250836 L 610.000705 239.879425 L 610.749855 237.499173 L 611.379672 235.11892 L 612.119983 232.749719 L 612.880183 230.380517 L 613.498951 227.880921 L 614.250311 225.500669 L 614.999462 223.120417 L 615.620439 220.620821 L 616.380639 218.249409 L 617.12095 215.749813 L 617.750767 213.250217 L 618.499917 210.881015 L 619.249068 208.379209 L 619.881095 205.879612 L 620.619196 203.49936 L 621.379396 200.999764 L 622.000373 198.500168 L 622.749524 196.000572 L 623.500884 193.500976 L 624.119651 191.120724 L 624.879851 188.618917 L 625.500829 186.119321 L 626.249979 183.75012 L 626.99913 181.250523 L 627.620107 178.750927 L 628.380307 176.379515 L 629.120618 173.879919 L 629.750435 171.499667 L 630.499585 169.119415 L 631.250946 166.619819 L 631.880763 164.250617 L 632.621074 161.879206 L 633.379064 159.498953 L 634.000041 157.120911 L 634.749192 154.7495 L 635.500552 152.380298 L 636.11932 150.11939 L 636.87952 147.750188 L 637.619831 145.500331 L 638.249647 143.250473 L 639.001008 141.000616 L 639.750158 138.750758 L 640.379975 136.500901 L 641.120286 134.251043 L 641.880486 132.12053 L 642.499254 129.879512 L 643.250614 127.748999 L 643.999765 125.620695 L 644.620742 123.499022 L 645.380942 121.379559 L 646.119043 119.37944 L 646.75107 117.379321 L 647.50022 115.379202 L 648.118988 113.379083 L 648.879188 111.378964 L 649.619499 109.5004 L 650.249316 107.500281 L 651.000676 105.619506 L 651.749827 103.880176 L 652.379643 101.999401 L 653.119954 100.249021 L 653.880154 98.500851 L 654.498922 96.75047 L 655.250282 95.00009 L 655.999433 93.380104 L 656.62041 91.749068 L 657.38061 90.120242 L 658.120921 88.500256 L 658.750738 86.999614 L 659.499889 85.498972 L 660.249039 84.000541 L 660.881066 82.619243 L 661.619167 81.248996 L 662.379367 79.880959 L 663.000344 78.499661 L 663.749495 77.250968 L 664.500855 76.000065 L 665.119623 74.749162 L 665.879823 73.619813 L 666.620134 72.37996 L 667.24995 71.381006 L 667.999101 70.249447 L 668.750461 69.250492 L 669.380278 68.249328 L 670.120589 67.250373 L 670.750406 66.379603 L 671.499557 65.499993 L 672.250917 64.750777 L 672.880734 63.880007 L 673.621045 63.119741 L 674.379035 62.500919 L 675.000012 61.879888 L 675.749163 61.250016 L 676.500523 60.620145 L 677.119291 60.120667 L 677.879491 59.61898 L 678.619802 59.119503 L 679.249619 58.75042 L 680.000979 58.379127 " transform="matrix(1.767627, 0, 0, 1.767473, -7.679497, 49.0235)"/>
</g>
<g clip-path="url(#clip-5)">
<path fill="none" stroke-width="4" stroke-linecap="butt" stroke-linejoin="bevel" stroke="rgb(79.608154%, 26.66626%, 0%)" stroke-opacity="1" stroke-dasharray="4 4" stroke-miterlimit="10" d="M 113.000083 327.119972 L 113.749233 327.119972 L 114.37905 327.000628 L 115.119361 327.000628 L 115.879561 326.879074 L 116.500538 326.620495 L 117.249689 326.379597 L 118.001049 326.121018 L 118.619817 325.88012 L 119.380017 325.499986 L 120.120328 325.119853 L 120.750145 324.750771 L 121.499295 324.379478 L 122.250656 323.880001 L 122.880472 323.380523 L 123.620783 322.750652 L 124.2506 322.12078 L 124.999751 321.499749 L 125.748901 320.880927 L 126.380928 320.120661 L 127.119029 319.380285 L 127.879229 318.620019 L 128.500206 317.749249 L 129.249357 316.880689 L 130.000717 316.001079 L 130.619485 315.119259 L 131.379685 314.120304 L 132.119996 313.11914 L 132.749813 312.120185 L 133.498963 310.999677 L 134.250324 309.879168 L 134.880141 308.749819 L 135.620452 307.62047 L 136.380652 306.380617 L 136.999419 305.120874 L 137.750779 303.881021 L 138.49993 302.619068 L 139.120907 301.25103 L 139.878897 299.880783 L 140.619208 298.499486 L 141.249025 297.001054 L 142.000386 295.619756 L 142.749536 294.119115 L 143.379353 292.620683 L 144.119664 291.000697 L 144.879864 289.500055 L 145.500841 287.880069 L 146.249992 286.249033 L 146.879809 284.620207 L 147.62012 282.880877 L 148.38032 281.119446 L 148.999087 279.499461 L 149.750448 277.74908 L 150.499598 275.879356 L 151.120575 274.120135 L 151.880775 272.250411 L 152.621086 270.380686 L 153.250903 268.499911 L 154.000054 266.619136 L 154.749204 264.749412 L 155.379021 262.879688 L 156.119332 260.879569 L 156.879532 258.87945 L 157.50051 256.879331 L 158.24966 254.879212 L 159.001021 252.879093 L 159.619788 250.878974 L 160.379988 248.75067 L 161.120299 246.750551 L 161.750116 244.620038 L 162.499266 242.500575 L 163.250627 240.378902 L 163.880444 238.250598 L 164.620755 236.120085 L 165.380955 234.000622 L 165.999722 231.750764 L 166.751083 229.620251 L 167.500233 227.379234 L 168.119001 225.25093 L 168.8792 223.001073 L 169.500178 220.8794 L 170.249328 218.620702 L 171.000689 216.379684 L 171.619456 214.120987 L 172.379656 211.999313 L 173.119967 209.749456 L 173.749784 207.499598 L 174.498935 205.249741 L 175.250295 202.999883 L 175.880112 200.750026 L 176.620423 198.500168 L 177.380623 196.25031 L 177.99939 194.000453 L 178.750751 191.750595 L 179.499901 189.500738 L 180.120879 187.25088 L 180.881079 185.001023 L 181.61918 182.87935 L 182.248997 180.620652 L 183.000357 178.379634 L 183.749508 176.120937 L 184.379324 173.999263 L 185.119635 171.749406 L 185.879835 169.621102 L 186.500813 167.380085 L 187.249963 165.249572 L 187.999114 162.999714 L 188.620091 160.880251 L 189.380291 158.749738 L 189.999058 156.619224 L 190.750419 154.499761 L 191.499569 152.380298 L 192.120547 150.249785 L 192.880747 148.249666 L 193.621058 146.119152 L 194.250875 144.119033 L 195.000025 142.118914 L 195.749176 140.121005 L 196.378993 138.120886 L 197.119304 136.120767 L 197.879504 134.120649 L 198.500481 132.250924 L 199.249631 130.37899 L 200.000992 128.500425 L 200.619759 126.61965 L 201.379959 124.749925 L 202.12027 122.880201 L 202.750087 121.12098 L 203.499238 119.249046 L 204.250598 117.500876 L 204.880415 115.88089 L 205.620726 114.119459 L 206.380926 112.380129 L 206.999693 110.749093 L 207.751054 109.120267 L 208.500204 107.500281 L 209.118972 105.999639 L 209.879172 104.379653 L 210.619483 102.879011 L 211.2493 101.38058 L 212.00066 99.999282 L 212.619427 98.500851 L 213.379627 97.119553 L 214.119938 95.749306 L 214.749755 94.379058 L 215.498906 93.119315 L 216.250266 91.879462 L 216.880083 90.619719 L 217.620394 89.379866 L 218.380594 88.250517 L 218.999362 87.118958 L 219.750722 86.00066 L 220.499873 84.880151 L 221.12085 83.878986 L 221.88105 82.880032 L 222.619151 81.881078 L 223.248968 80.999257 L 224.000328 80.119647 L 224.749479 79.251087 L 225.379296 78.380317 L 226.119607 77.620051 L 226.879807 76.879675 L 227.500784 76.119409 L 228.249935 75.500588 L 228.999085 74.879556 L 229.620062 74.249684 L 230.380262 73.619813 L 231.120573 73.120336 L 231.75039 72.620858 L 232.499541 72.249565 L 233.120518 71.880483 L 233.880718 71.50035 L 234.621029 71.120217 L 235.250846 70.879318 L 235.999996 70.620739 L 236.749147 70.379841 L 237.378964 70.119052 L 238.119275 69.999708 L 238.879475 69.999708 L 239.500452 69.880364 L 241.000963 69.880364 L 241.619731 69.999708 L 242.379931 69.999708 L 243.120242 70.119052 L 243.750058 70.379841 L 244.499209 70.620739 L 245.250569 70.879318 L 245.880386 71.120217 L 246.620697 71.50035 L 247.380897 71.880483 L 247.999665 72.249565 L 248.751025 72.620858 L 249.500176 73.120336 L 250.118943 73.619813 L 250.879143 74.249684 L 251.619454 74.879556 L 252.249271 75.500588 L 253.000631 76.119409 L 253.749782 76.879675 L 254.379599 77.620051 L 255.11991 78.380317 L 255.749727 79.251087 L 256.501087 80.119647 L 257.250238 80.999257 L 257.880054 81.881078 L 258.620365 82.880032 L 259.380565 83.878986 L 259.999333 84.880151 L 260.750693 86.00066 L 261.499844 87.118958 L 262.120821 88.250517 L 262.881021 89.379866 L 263.619122 90.619719 L 264.248939 91.879462 L 265.0003 93.119315 L 265.74945 94.379058 L 266.379267 95.749306 L 267.119578 97.119553 L 267.879778 98.500851 L 268.500755 99.999282 L 269.249906 101.38058 L 269.999056 102.879011 L 270.620034 104.379653 L 271.380234 105.999639 L 272.120545 107.500281 L 272.750362 109.120267 L 273.499512 110.749093 L 274.250872 112.380129 L 274.880689 114.119459 L 275.621 115.88089 L 276.37899 117.500876 L 276.999968 119.249046 L 277.749118 121.12098 L 278.378935 122.880201 L 279.119246 124.749925 L 279.879446 126.61965 L 280.500423 128.500425 L 281.249574 130.37899 L 282.000934 132.250924 L 282.619702 134.120649 L 283.379902 136.120767 L 284.120213 138.120886 L 284.75003 140.121005 L 285.49918 142.118914 L 286.250541 144.119033 L 286.880358 146.119152 L 287.620669 148.249666 L 288.380869 150.249785 L 288.999636 152.380298 L 289.750996 154.499761 L 290.500147 156.619224 L 291.118914 158.749738 L 291.879114 160.880251 L 292.619425 162.999714 L 293.249242 165.249572 L 294.000603 167.380085 L 294.749753 169.621102 L 295.37957 171.749406 L 296.119881 173.999263 L 296.880081 176.120937 L 297.501058 178.379634 L 298.250209 180.620652 L 298.880026 182.87935 L 299.620337 185.001023 L 300.380537 187.25088 L 300.999304 189.500738 L 301.750665 191.750595 L 302.499815 194.000453 L 303.120792 196.25031 L 303.880992 198.500168 L 304.619094 200.750026 L 305.24891 202.999883 L 306.000271 205.249741 L 306.749421 207.499598 L 307.379238 209.749456 L 308.119549 211.999313 L 308.879749 214.120987 L 309.500727 216.379684 L 310.249877 218.620702 L 310.999028 220.8794 L 311.620005 223.001073 L 312.380205 225.25093 L 313.120516 227.379234 L 313.750333 229.620251 L 314.499483 231.750764 L 315.250844 234.000622 L 315.880661 236.120085 L 316.620972 238.250598 L 317.378962 240.378902 L 317.999939 242.500575 L 318.74909 244.620038 L 319.50045 246.750551 L 320.119217 248.75067 L 320.879417 250.878974 L 321.500395 252.879093 L 322.249545 254.879212 L 323.000906 256.879331 L 323.619673 258.87945 L 324.379873 260.879569 L 325.120184 262.879688 L 325.750001 264.749412 L 326.499152 266.619136 L 327.250512 268.499911 L 327.880329 270.380686 L 328.62064 272.250411 L 329.38084 274.120135 L 329.999607 275.879356 L 330.750968 277.74908 L 331.500118 279.499461 L 332.121096 281.119446 L 332.879086 282.880877 L 333.619397 284.620207 L 334.249213 286.249033 L 335.000574 287.880069 L 335.749724 289.500055 L 336.379541 291.000697 L 337.119852 292.620683 L 337.880052 294.119115 L 338.50103 295.619756 L 339.25018 297.001054 L 339.999331 298.499486 L 340.620308 299.880783 L 341.380508 301.25103 L 341.999275 302.619068 L 342.750636 303.881021 L 343.499786 305.120874 L 344.120764 306.380617 L 344.880964 307.62047 L 345.619065 308.749819 L 346.251092 309.879168 L 347.749393 312.120185 L 348.37921 313.11914 L 349.119521 314.120304 L 349.879721 315.119259 L 350.500698 316.001079 L 351.249848 316.880689 L 351.998999 317.749249 L 352.619976 318.620019 L 354.120487 320.120661 L 354.750304 320.880927 L 355.499455 321.499749 L 356.250815 322.12078 L 356.880632 322.750652 L 357.620943 323.380523 L 358.378933 323.880001 L 358.99991 324.379478 L 359.749061 324.750771 L 360.500421 325.119853 L 361.119189 325.499986 L 361.879389 325.88012 L 362.6197 326.121018 L 363.249517 326.379597 L 364.000877 326.620495 L 364.619644 326.879074 L 365.379844 327.000628 L 366.120155 327.000628 L 366.749972 327.119972 L 368.250483 327.119972 L 368.8803 327.000628 L 369.620611 327.000628 L 370.380811 326.879074 L 370.999579 326.620495 L 371.750939 326.379597 L 372.50009 326.121018 L 373.121067 325.88012 L 373.879057 325.499986 L 374.619368 325.119853 L 375.249185 324.750771 L 376.000545 324.379478 L 376.749696 323.880001 L 377.379513 323.380523 L 378.119824 322.750652 L 378.880024 322.12078 L 379.501001 321.499749 L 380.250151 320.880927 L 380.999302 320.120661 L 381.620279 319.380285 L 382.380479 318.620019 L 383.12079 317.749249 L 383.750607 316.880689 L 384.499758 316.001079 L 385.248908 315.119259 L 385.880935 314.120304 L 386.619036 313.11914 L 387.251063 312.120185 L 388.749364 309.879168 L 389.379181 308.749819 L 390.119492 307.62047 L 390.879692 306.380617 L 391.500669 305.120874 L 392.24982 303.881021 L 392.99897 302.619068 L 393.619948 301.25103 L 394.380148 299.880783 L 395.120459 298.499486 L 395.750275 297.001054 L 396.499426 295.619756 L 397.250786 294.119115 L 397.880603 292.620683 L 398.620914 291.000697 L 399.378904 289.500055 L 399.999882 287.880069 L 400.749032 286.249033 L 401.500393 284.620207 L 402.11916 282.880877 L 402.87936 281.119446 L 403.619671 279.499461 L 404.249488 277.74908 L 405.000848 275.879356 L 405.749999 274.120135 L 406.379816 272.250411 L 407.120127 270.380686 L 407.749944 268.499911 L 408.499094 266.619136 L 409.250455 264.749412 L 409.880271 262.879688 L 410.620582 260.879569 L 411.380782 258.87945 L 411.99955 256.879331 L 412.75091 254.879212 L 413.500061 252.879093 L 414.121038 250.878974 L 414.879028 248.75067 L 415.619339 246.750551 L 416.249156 244.620038 L 417.000517 242.500575 L 417.749667 240.378902 L 418.379484 238.250598 L 419.119795 236.120085 L 419.879995 234.000622 L 420.500972 231.750764 L 421.250123 229.620251 L 421.999273 227.379234 L 422.620251 225.25093 L 423.380451 223.001073 L 424.120762 220.8794 L 424.750578 218.620702 L 425.499729 216.379684 L 426.251089 214.120987 L 426.880906 211.999313 L 427.619007 209.749456 L 428.379207 207.499598 L 429.000185 205.249741 L 429.749335 202.999883 L 430.379152 200.750026 L 431.119463 198.500168 L 431.879663 196.25031 L 432.50064 194.000453 L 433.998942 189.500738 L 434.619919 187.25088 L 435.380119 185.001023 L 436.12043 182.87935 L 436.750247 180.620652 L 437.499397 178.379634 L 438.250758 176.120937 L 438.880574 173.999263 L 439.620886 171.749406 L 440.381085 169.621102 L 440.999853 167.380085 L 441.749003 165.249572 L 442.500364 162.999714 L 443.119131 160.880251 L 443.879331 158.749738 L 444.619642 156.619224 L 445.249459 154.499761 L 446.00082 152.380298 L 446.74997 150.249785 L 447.379787 148.249666 L 448.120098 146.119152 L 448.880298 144.119033 L 449.499065 142.118914 L 450.250426 140.121005 L 450.999576 138.120886 L 451.620554 136.120767 L 452.380754 134.120649 L 452.999521 132.250924 L 453.750882 130.37899 L 454.500032 128.500425 L 455.121009 126.61965 L 455.879 124.749925 L 456.619311 122.880201 L 457.249127 121.12098 L 458.000488 119.249046 L 458.749638 117.500876 L 459.379455 115.88089 L 460.119766 114.119459 L 460.879966 112.380129 L 461.500943 110.749093 L 462.250094 109.120267 L 462.999245 107.500281 L 463.620222 105.999639 L 464.380422 104.379653 L 465.120733 102.879011 L 465.75055 101.38058 L 466.4997 99.999282 L 467.251061 98.500851 L 467.880878 97.119553 L 468.618979 95.749306 L 469.379179 94.379058 L 470.000156 93.119315 L 470.749307 91.879462 L 471.500667 90.619719 L 472.119434 89.379866 L 472.879634 88.250517 L 473.500612 87.118958 L 474.249762 86.00066 L 474.998913 84.880151 L 475.61989 83.878986 L 476.38009 82.880032 L 477.120401 81.881078 L 477.750218 80.999257 L 478.499369 80.119647 L 479.250729 79.251087 L 479.880546 78.380317 L 480.620857 77.620051 L 481.381057 76.879675 L 481.999824 76.119409 L 482.748975 75.500588 L 483.500335 74.879556 L 484.119103 74.249684 L 484.879303 73.619813 L 485.619614 73.120336 L 486.24943 72.620858 L 487.000791 72.249565 L 487.749941 71.880483 L 488.379758 71.50035 L 489.120069 71.120217 L 489.880269 70.879318 L 490.499037 70.620739 L 491.250397 70.379841 L 491.999548 70.119052 L 492.620525 69.999708 L 493.380725 69.999708 L 494.121036 69.880364 L 495.500003 69.880364 L 496.120981 69.999708 L 496.878971 69.999708 L 497.619282 70.119052 L 498.249099 70.379841 L 499.000459 70.620739 L 499.74961 70.879318 L 500.379426 71.120217 L 501.119738 71.50035 L 501.879937 71.880483 L 502.500915 72.249565 L 503.250065 72.620858 L 503.999216 73.120336 L 504.620193 73.619813 L 505.380393 74.249684 L 506.120704 74.879556 L 506.750521 75.500588 L 507.499672 76.119409 L 508.251032 76.879675 L 508.880849 77.620051 L 509.61895 78.380317 L 510.37915 79.251087 L 511.000127 80.119647 L 511.749278 80.999257 L 512.500638 81.881078 L 513.119406 82.880032 L 513.879606 83.878986 L 514.619917 84.880151 L 515.249734 86.00066 L 516.001094 87.118958 L 516.619861 88.250517 L 517.380061 89.379866 L 518.120372 90.619719 L 518.750189 91.879462 L 519.49934 93.119315 L 520.2507 94.379058 L 520.880517 95.749306 L 521.620828 97.119553 L 522.381028 98.500851 L 522.999795 99.999282 L 523.748946 101.38058 L 524.500306 102.879011 L 525.119074 104.379653 L 525.879274 105.999639 L 526.619585 107.500281 L 527.249402 109.120267 L 528.000762 110.749093 L 528.749913 112.380129 L 529.37973 114.119459 L 530.120041 115.88089 L 530.880241 117.500876 L 531.499008 119.249046 L 532.250368 121.12098 L 532.999519 122.880201 L 533.620496 124.749925 L 534.380696 126.61965 L 535.121007 128.500425 L 535.750824 130.37899 L 536.499975 132.250924 L 537.249125 134.120649 L 537.878942 136.120767 L 538.619253 138.120886 L 539.24907 140.121005 L 540.00043 142.118914 L 540.749581 144.119033 L 541.379398 146.119152 L 542.119709 148.249666 L 542.879909 150.249785 L 543.500886 152.380298 L 544.999187 156.619224 L 545.620164 158.749738 L 546.380364 160.880251 L 547.120675 162.999714 L 547.750492 165.249572 L 548.499643 167.380085 L 549.251003 169.621102 L 549.88082 171.749406 L 550.618921 173.999263 L 551.379121 176.120937 L 552.000099 178.379634 L 552.749249 180.620652 L 553.50061 182.87935 L 554.119377 185.001023 L 554.879577 187.25088 L 555.619888 189.500738 L 556.249705 191.750595 L 557.001065 194.000453 L 557.750216 196.25031 L 558.380033 198.500168 L 559.120344 200.750026 L 559.880544 202.999883 L 560.499311 205.249741 L 561.250672 207.499598 L 561.880488 209.749456 L 562.620799 211.999313 L 563.380999 214.120987 L 563.999767 216.379684 L 564.748917 218.620702 L 565.500278 220.8794 L 566.119045 223.001073 L 566.879245 225.25093 L 567.619556 227.379234 L 568.249373 229.620251 L 569.000733 231.750764 L 569.749884 234.000622 L 570.379701 236.120085 L 571.120012 238.250598 L 571.880212 240.378902 L 572.498979 242.500575 L 573.25034 244.620038 L 573.99949 246.750551 L 574.620468 248.75067 L 575.380668 250.878974 L 576.120979 252.879093 L 576.750795 254.879212 L 578.249097 258.87945 L 578.878913 260.879569 L 579.619224 262.879688 L 580.379424 264.749412 L 581.000402 266.619136 L 581.749552 268.499911 L 582.379369 270.380686 L 583.11968 272.250411 L 583.87988 274.120135 L 584.500857 275.879356 L 585.250008 277.74908 L 585.999158 279.499461 L 586.620136 281.119446 L 587.380336 282.880877 L 588.120647 284.620207 L 588.750464 286.249033 L 589.499614 287.880069 L 590.250975 289.500055 L 590.880791 291.000697 L 591.621102 292.620683 L 592.379093 294.119115 L 593.00007 295.619756 L 593.74922 297.001054 L 594.500581 298.499486 L 595.119348 299.880783 L 595.879548 301.25103 L 596.619859 302.619068 L 597.249676 303.881021 L 598.001037 305.120874 L 598.750187 306.380617 L 599.380004 307.62047 L 600.120315 308.749819 L 600.880515 309.879168 L 601.499282 310.999677 L 602.250643 312.120185 L 602.999793 313.11914 L 603.620771 314.120304 L 604.380971 315.119259 L 604.999738 316.001079 L 605.751099 316.880689 L 606.500249 317.749249 L 607.119016 318.620019 L 608.619527 320.120661 L 609.249344 320.880927 L 610.000705 321.499749 L 610.749855 322.12078 L 611.379672 322.750652 L 612.119983 323.380523 L 612.880183 323.880001 L 613.498951 324.379478 L 614.250311 324.750771 L 614.999462 325.119853 L 615.620439 325.499986 L 616.380639 325.88012 L 617.12095 326.121018 L 617.750767 326.379597 L 618.499917 326.620495 L 619.249068 326.879074 L 619.881095 327.000628 L 620.619196 327.000628 L 621.379396 327.119972 L 622.749524 327.119972 L 623.500884 327.000628 L 624.119651 327.000628 L 624.879851 326.879074 L 625.500829 326.620495 L 626.249979 326.379597 L 626.99913 326.121018 L 627.620107 325.88012 L 628.380307 325.499986 L 629.120618 325.119853 L 629.750435 324.750771 L 630.499585 324.379478 L 631.250946 323.880001 L 631.880763 323.380523 L 632.621074 322.750652 L 633.379064 322.12078 L 634.000041 321.499749 L 634.749192 320.880927 L 635.500552 320.120661 L 636.11932 319.380285 L 636.87952 318.620019 L 637.619831 317.749249 L 638.249647 316.880689 L 639.001008 316.001079 L 639.750158 315.119259 L 640.379975 314.120304 L 641.120286 313.11914 L 641.880486 312.120185 L 642.499254 310.999677 L 643.250614 309.879168 L 643.999765 308.749819 L 644.620742 307.62047 L 645.380942 306.380617 L 646.119043 305.120874 L 646.75107 303.881021 L 647.50022 302.619068 L 648.118988 301.25103 L 648.879188 299.880783 L 649.619499 298.499486 L 650.249316 297.001054 L 651.000676 295.619756 L 651.749827 294.119115 L 652.379643 292.620683 L 653.119954 291.000697 L 653.880154 289.500055 L 654.498922 287.880069 L 655.250282 286.249033 L 655.999433 284.620207 L 656.62041 282.880877 L 657.38061 281.119446 L 658.120921 279.499461 L 658.750738 277.74908 L 659.499889 275.879356 L 660.249039 274.120135 L 660.881066 272.250411 L 661.619167 270.380686 L 662.379367 268.499911 L 663.000344 266.619136 L 663.749495 264.749412 L 664.500855 262.879688 L 665.119623 260.879569 L 665.879823 258.87945 L 666.620134 256.879331 L 667.24995 254.879212 L 667.999101 252.879093 L 668.750461 250.878974 L 669.380278 248.75067 L 670.120589 246.750551 L 670.750406 244.620038 L 671.499557 242.500575 L 672.250917 240.378902 L 672.880734 238.250598 L 673.621045 236.120085 L 674.379035 234.000622 L 675.000012 231.750764 L 675.749163 229.620251 L 676.500523 227.379234 L 677.119291 225.25093 L 677.879491 223.001073 L 678.619802 220.8794 L 679.249619 218.620702 L 680.000979 216.379684 " transform="matrix(1.767627, 0, 0, 1.767473, -7.679497, 49.0235)"/>
</g>
<g clip-path="url(#clip-6)">
<path fill="none" stroke-width="1" stroke-linecap="butt" stroke-linejoin="miter" stroke="rgb(0%, 0%, 0%)" stroke-opacity="1" stroke-miterlimit="10" d="M 494.750853 189.880871 L 494.750853 208.620107 " transform="matrix(1.767627, 0, 0, 1.767473, -7.679497, 49.0235)"/>
</g>
<path fill="none" stroke-width="1" stroke-linecap="butt" stroke-linejoin="miter" stroke="rgb(0%, 0%, 0%)" stroke-opacity="1" stroke-miterlimit="10" d="M 431.000129 190.619036 L 431.000129 209.380373 " transform="matrix(1.767627, 0, 0, 1.767473, -7.679497, 49.0235)"/>
<path fill="none" stroke-width="1" stroke-linecap="butt" stroke-linejoin="miter" stroke="rgb(0%, 0%, 0%)" stroke-opacity="1" stroke-miterlimit="10" d="M 367.249406 189.880871 L 367.249406 208.620107 " transform="matrix(1.767627, 0, 0, 1.767473, -7.679497, 49.0235)"/>
<path fill="none" stroke-width="1" stroke-linecap="butt" stroke-linejoin="miter" stroke="rgb(0%, 0%, 0%)" stroke-opacity="1" stroke-miterlimit="10" d="M 303.500892 189.880871 L 303.500892 208.620107 " transform="matrix(1.767627, 0, 0, 1.767473, -7.679497, 49.0235)"/>
<path fill="none" stroke-width="1" stroke-linecap="butt" stroke-linejoin="miter" stroke="rgb(0%, 0%, 0%)" stroke-opacity="1" stroke-miterlimit="10" d="M 240.49932 189.120605 L 240.49932 207.879731 " transform="matrix(1.767627, 0, 0, 1.767473, -7.679497, 49.0235)"/>
<path fill="none" stroke-width="1" stroke-linecap="butt" stroke-linejoin="miter" stroke="rgb(0%, 0%, 0%)" stroke-opacity="1" stroke-miterlimit="10" d="M 176.750806 189.120605 L 176.750806 207.879731 " transform="matrix(1.767627, 0, 0, 1.767473, -7.679497, 49.0235)"/>
<g clip-path="url(#clip-7)">
<path fill="none" stroke-width="3" stroke-linecap="butt" stroke-linejoin="miter" stroke="rgb(0%, 0%, 0%)" stroke-opacity="1" stroke-dasharray="6 6" stroke-miterlimit="4" d="M 0.309789 0.279236 L 959.308223 0.279236 " transform="matrix(0, -0.659111, 0.659389, 0, 810.769, 716.90731)"/>
</g>
<g clip-path="url(#clip-8)">
<path fill="none" stroke-width="3" stroke-linecap="butt" stroke-linejoin="miter" stroke="rgb(0%, 0%, 0%)" stroke-opacity="1" stroke-dasharray="6 6" stroke-miterlimit="4" d="M 0.309804 -0.168167 L 959.308238 -0.168167 " transform="matrix(0, -0.659111, 0.659389, 0, 698.3062, 716.90732)"/>
</g>
<g clip-path="url(#clip-9)">
<path fill="none" stroke-width="3" stroke-linecap="butt" stroke-linejoin="miter" stroke="rgb(0%, 0%, 0%)" stroke-opacity="1" stroke-dasharray="6 6" stroke-miterlimit="4" d="M 0.309804 0.391518 L 959.308238 0.391518 " transform="matrix(0, -0.659111, 0.659389, 0, 585.8434, 716.90732)"/>
</g>
<g clip-path="url(#clip-10)">
<path fill="none" stroke-width="3" stroke-linecap="butt" stroke-linejoin="miter" stroke="rgb(0%, 0%, 0%)" stroke-opacity="1" stroke-dasharray="6 6" stroke-miterlimit="4" d="M 0.309804 -0.0560368 L 959.308238 -0.0560368 " transform="matrix(0, -0.659111, 0.659389, 0, 473.3807, 716.90732)"/>
</g>
<g clip-path="url(#clip-11)">
<path fill="none" stroke-width="3" stroke-linecap="butt" stroke-linejoin="miter" stroke="rgb(0%, 0%, 0%)" stroke-opacity="1" stroke-dasharray="6 6" stroke-miterlimit="4" d="M 0.309804 0.503648 L 959.308238 0.503648 " transform="matrix(0, -0.659111, 0.659389, 0, 360.9179, 716.90732)"/>
</g>
<g fill="rgb(0%, 0%, 0%)" fill-opacity="1">
</g>
<g fill="rgb(0%, 0%, 0%)" fill-opacity="1">
</g>
<g fill="rgb(0%, 0%, 0%)" fill-opacity="1">
</g>
<g fill="rgb(0%, 0%, 0%)" fill-opacity="1">
</g>
<g fill="rgb(0%, 0%, 0%)" fill-opacity="1">
</g>
<g fill="rgb(0%, 0%, 0%)" fill-opacity="1">
</g>
<g fill="rgb(0%, 0%, 0%)" fill-opacity="1">
</g>
<g fill="rgb(0%, 0%, 0%)" fill-opacity="1">
</g>
<g fill="rgb(0%, 0%, 0%)" fill-opacity="1">
</g>
<g clip-path="url(#clip-12)">
<path fill="none" stroke-width="2" stroke-linecap="butt" stroke-linejoin="miter" stroke="rgb(0%, 0%, 0%)" stroke-opacity="1" stroke-miterlimit="4" d="M 0.00074625 0.0015625 L 895.65309 0.0015625 " transform="matrix(1, 0, 0, 1, 97.19066, 400.85)"/>
</g>
<path fill-rule="nonzero" fill="rgb(0%, 0%, 0%)" fill-opacity="1" d="M 991.84375 405.648438 L 1001.441406 400.851562 L 991.84375 396.050781 Z M 991.84375 405.648438 "/>
<g fill="rgb(0%, 0%, 0%)" fill-opacity="1">
</g>
<g fill="rgb(0%, 0%, 0%)" fill-opacity="1">
</g>
<g fill="rgb(0%, 0%, 0%)" fill-opacity="1">
</g>
<g fill="rgb(0%, 0%, 0%)" fill-opacity="1">
</g>
<g fill="rgb(0%, 0%, 0%)" fill-opacity="1">
</g>
<g fill="rgb(0%, 0%, 0%)" fill-opacity="1">
</g>
<g fill="rgb(0%, 0%, 0%)" fill-opacity="1">
</g>
<g clip-path="url(#clip-13)">
<path fill="none" stroke-width="1" stroke-linecap="butt" stroke-linejoin="miter" stroke="rgb(0%, 0%, 0%)" stroke-opacity="1" stroke-miterlimit="4" d="M 0.00014375 0.00008125 C 70.015769 7.535237 99.789206 45.722737 89.320456 114.562581 " transform="matrix(1, 0, 0, 1, 257.5272, 67.1132)"/>
</g>
<g clip-path="url(#clip-14)">
<path fill="none" stroke-width="1" stroke-linecap="butt" stroke-linejoin="miter" stroke="rgb(0%, 0%, 0%)" stroke-opacity="1" stroke-miterlimit="4" d="M 0.00091875 0.001475 C 32.500919 14.54835 53.293888 37.849131 62.372013 69.903819 " transform="matrix(1, 0, 0, 1, 212.1358, 130.8579)"/>
</g>
<g clip-path="url(#clip-15)">
<path fill="none" stroke-width="1" stroke-linecap="butt" stroke-linejoin="miter" stroke="rgb(0%, 0%, 0%)" stroke-opacity="1" stroke-miterlimit="4" d="M 0.0002825 0.00123125 C 19.269814 51.778575 60.730751 81.610606 124.379189 89.485606 " transform="matrix(1, 0, 0, 1, 94.88253, 520.2058)"/>
</g>
<path fill-rule="nonzero" fill="rgb(100%, 100%, 100%)" fill-opacity="1" d="M 309.558594 598.734375 L 355.902344 598.734375 L 355.902344 669.238281 L 309.558594 669.238281 Z M 309.558594 598.734375 "/>
<g fill="rgb(0%, 0%, 0%)" fill-opacity="1">
</g>
<path fill-rule="nonzero" fill="rgb(100%, 100%, 100%)" fill-opacity="1" d="M 425.78125 598.140625 L 472.125 598.140625 L 472.125 668.644531 L 425.78125 668.644531 Z M 425.78125 598.140625 "/>
<g fill="rgb(0%, 0%, 0%)" fill-opacity="1">
</g>
<path fill-rule="nonzero" fill="rgb(100%, 100%, 100%)" fill-opacity="1" d="M 588.335938 144.777344 L 634.679688 144.777344 L 634.679688 215.28125 L 588.335938 215.28125 Z M 588.335938 144.777344 "/>
<g fill="rgb(0%, 0%, 0%)" fill-opacity="1">
</g>
<path fill-rule="nonzero" fill="rgb(100%, 100%, 100%)" fill-opacity="1" d="M 704.449219 599.902344 L 750.792969 599.902344 L 750.792969 670.40625 L 704.449219 670.40625 Z M 704.449219 599.902344 "/>
<g fill="rgb(0%, 0%, 0%)" fill-opacity="1">
</g>
<path fill-rule="nonzero" fill="rgb(100%, 100%, 100%)" fill-opacity="1" d="M 815.121094 600.804688 L 861.464844 600.804688 L 861.464844 671.308594 L 815.121094 671.308594 Z M 815.121094 600.804688 "/>
<g fill="rgb(0%, 0%, 0%)" fill-opacity="1">
</g>

<!-- ── Bilingual text labels ─────────────────────────────────────── -->
<g font-family="'PingFang TC', 'Noto Sans TC', 'Hiragino Sans', sans-serif"
   fill="#1e293b">
  <text x="125" y="72" font-size="22" font-weight="500">Velocity<tspan
    x="125" dy="22" font-size="16" fill="#475569">速度</tspan></text>
  <text x="68" y="138" font-size="22" font-weight="500">Pressure<tspan
    x="68" dy="22" font-size="16" fill="#475569">壓力</tspan></text>
  <text x="12" y="513" font-size="22" font-weight="500">Displacement<tspan
    x="12" dy="22" font-size="16" fill="#475569">位移</tspan></text>

  <text x="510" y="85" font-size="22" font-weight="500" text-anchor="middle">Cooling<tspan
    x="510" dy="22" font-size="16" fill="#475569">冷卻</tspan></text>
  <text x="765" y="85" font-size="22" font-weight="500" text-anchor="middle">Heating<tspan
    x="765" dy="22" font-size="16" fill="#475569">加熱</tspan></text>

  <text x="938" y="452" font-size="22" font-weight="500" font-style="italic">Time<tspan
    x="938" dy="22" font-size="16" font-style="normal" fill="#475569">時間</tspan></text>

  <text x="350" y="731" font-size="22" font-weight="500" text-anchor="middle">Expansion<tspan
    x="350" dy="22" font-size="16" fill="#475569">膨脹</tspan></text>
  <text x="700" y="731" font-size="22" font-weight="500" text-anchor="middle">Compression<tspan
    x="700" dy="22" font-size="16" fill="#475569">壓縮</tspan></text>

  <g font-size="22" font-weight="600" text-anchor="middle">
    <text x="333" y="650">2</text>
    <text x="450" y="650">3</text>
    <text x="600" y="650">4</text>
    <text x="725" y="650">1</text>
    <text x="838" y="650">2</text>
  </g>
</g>

</svg>
