<svg height="115.512pt" viewBox="0 0 566.93 115.512" width="566.93pt" xmlns="http://www.w3.org/2000/svg"><g fill="#2d3979"><path d="m535.336 64.348c0 10.762 4.379 15.766 11.137 15.766s11.133-5.004 11.133-15.766-4.375-15.766-11.133-15.766-11.137 5.004-11.137 15.766m31.594 0c0 14.391-7.945 22.586-20.457 22.586-12.578 0-20.523-8.195-20.523-22.586 0-14.391 7.945-22.586 20.523-22.586 12.512 0 20.457 8.195 20.457 22.586m-80.582-21.836h9.762l9.008 18.52h.125l9.262-18.52h9.445l-14.449 26.34v17.332h-8.762v-17.207zm-25.336 22.461v21.211h-8.758v-43.672h8.758v19.148h.125l12.887-19.148h10.199l-14.891 20.398 18.332 23.273h-11.012l-15.516-21.211zm-48.609-.625c0 10.762 4.379 15.766 11.137 15.766 6.758 0 11.137-5.004 11.137-15.766s-4.379-15.766-11.137-15.766c-6.758 0-11.137 5.004-11.137 15.766m31.594 0c0 14.391-7.945 22.586-20.457 22.586-12.574 0-20.52-8.195-20.52-22.586 0-14.391 7.945-22.586 20.52-22.586 12.512 0 20.457 8.195 20.457 22.586m-44.355-21.836v7.445l-11.949-.0625v36.289h-8.883v-36.289l-11.953.0625v-7.445zm-75.137 43.672v-43.672h24.84v7.258h-16.207v10.449h15.391v7.195h-15.391v11.449h16.582v7.32zm-8.633-8.574.25 7.57c-2.437.94141-5.691 1.441-9.258 1.441-13.074 0-21.211-8.133-21.211-22.273 0-14.141 8.137-22.273 20.711-22.273 3.566 0 6.32.25391 9.508 1.504l-.5 7.57c-2.754-1.441-5.129-1.941-8.383-1.941-7.258 0-12.012 4.629-12.012 14.891 0 10.324 5.004 15.203 12.074 15.203 3.129 0 5.758-.375 8.82-1.691m-45.918-.75-.375-34.348h7.945v43.672h-11.074l-14.203-34.535h-.125l.3789 34.535h-7.887v-43.672h11.199l14.078 34.348zm-59.184 9.324v-43.672h24.836v7.258h-16.203v10.449h15.391v7.195h-15.391v11.449h16.578v7.32zm-10.508 0h-8.762v-43.672h8.762zm-17.395-8.574.25 7.57c-2.437.94141-5.691 1.441-9.258 1.441-13.074 0-21.211-8.133-21.211-22.273 0-14.141 8.137-22.273 20.711-22.273 3.566 0 6.32.25391 9.508 1.504l-.5 7.57c-2.754-1.441-5.129-1.941-8.383-1.941-7.258 0-12.012 4.629-12.012 14.891 0 10.324 5.004 15.203 12.074 15.203 3.129 0 5.754-.375 8.82-1.691m-38.848-34.281-.69142 7.133c-3.379-1.379-6.066-1.879-8.695-1.879-4.566 0-7.445 1.938-7.445 4.941 0 2.691 1.441 4.379 7.758 6.695 7.945 2.879 11.324 6.633 11.324 13.074 0 8.512-6.004 13.641-16.141 13.641-4.066 0-7.883-.625-11.449-1.879l.8125-7.695c3.629 1.816 7.133 2.504 10.137 2.504 4.816 0 7.82-1.937 7.82-5.441 0-3.316-1.816-5.07-8.258-7.508-7.633-2.816-10.887-6.32-10.887-12.516 0-7.754 6.195-12.637 15.328-12.637 3.816 0 7.008.4375 10.387 1.566m124.777-32.504v-2.805h3.48v-1.352c0-4.254 1.516-6.668 5.441-6.668.8711 0 1.645.0977 2.352.28907l-.28907 2.934c-.51562-.19531-1.031-.29297-1.609-.29297-1.773 0-2.383 1.063-2.383 3.672v1.418h4.059v2.805h-4.059v13.656h-3.512v-13.656zm-5.762 5.41c0-3.512-1.738-5.734-4.477-5.734s-4.477 2.223-4.477 5.734 1.738 5.734 4.477 5.734c2.738 0 4.477-2.223 4.477-5.734m-12.691 0c0-5.152 3.383-8.633 8.215-8.633 4.832 0 8.211 3.48 8.211 8.633 0 5.152-3.379 8.633-8.211 8.633-4.832 0-8.215-3.48-8.215-8.633m-17.391-5.961c-2.094 0-3.738 1.418-3.961 4.383h7.406c0-2.996-1.383-4.383-3.445-4.383m-7.57 5.863c0-5.09 3.094-8.535 7.668-8.535 4.348 0 6.859 2.738 6.859 8.602 0 .44922-.312.773-.0625 1.094h-10.855c.0937 2.867 2.094 4.641 5.09 4.641 1.77 0 3.219-.42187 4.605-1.258l.12891 3.188c-1.387.67969-3.156 1-5.059 1-5.219 0-8.375-3.254-8.375-8.73m-9.949 2.867v-8.18h-2.934v-2.805h2.965v-3.672l3.383-1.16v4.832h4.027v2.805h-4.027v7.184c0 2.641.41797 3.863 2.48 3.863.60937 0 1.16-.12891 1.641-.32032l.0977 2.867c-.74219.254-1.645.41797-2.609.41797-3.832 0-5.023-2.129-5.023-5.832m-20.293-.64453v-10.371h3.512v8.344c0 3.414.45312 5.508 3.191 5.508 2.414 0 3.992-2.512 3.992-5.477v-8.375h3.543v11.242c0 2.063.0664 3.863.19531 5.25h-3.352c-.0937-.67578-.16016-1.547-.16016-2.609h-.0625c-.80859 1.707-2.547 2.996-5.316 2.996-3.383 0-5.543-2.449-5.543-6.508m-10.883.64453v-8.18h-2.934v-2.805h2.965v-3.672l3.383-1.16v4.832h4.027v2.805h-4.027v7.184c0 2.641.41797 3.863 2.48 3.863.61328 0 1.16-.12891 1.641-.32032l.0977 2.867c-.74219.254-1.641.41797-2.609.41797-3.832 0-5.023-2.129-5.023-5.832m-6.152 5.477h-3.574v-16.492h3.574zm.0977-19.555h-3.77v-3.766h3.77zm-14.816 14.078v-8.18h-2.93v-2.805h2.961v-3.672l3.383-1.16v4.832h4.027v2.805h-4.027v7.184c0 2.641.41796 3.863 2.48 3.863.61329 0 1.16-.12891 1.645-.32032l.0937 2.867c-.73829.254-1.641.41797-2.605.41797-3.836 0-5.027-2.129-5.027-5.832m-15.266 5.023.22656-3.059c1.352.74219 2.738 1.094 3.992 1.094 1.547 0 2.805-.70703 2.805-2.027 0-1.223-.70704-1.773-3.187-2.832-2.867-1.227-3.934-2.418-3.934-4.672 0-3.062 2.387-4.93 5.895-4.93 1.449 0 2.836.22656 3.934.67578l-.32422 2.898c-1.223-.61328-2.352-.83593-3.512-.83593-1.414 0-2.512.67578-2.512 1.898 0 1.227.77344 1.707 2.934 2.547 2.863 1.16 4.25 2.445 4.25 4.961 0 3.348-2.547 5.121-6.121 5.121-1.609 0-2.996-.25781-4.445-.83984m-18.164-16.039h3.414c.664.707.0976 1.805.0976 2.672h.0625c1.031-1.934 2.867-3.059 5.09-3.059 4.254 0 5.734 2.898 5.734 7.344v9.535h-3.543v-8.055c0-3.348-.22656-5.828-3.156-5.828-1.387 0-2.609.90234-3.352 2.254-.48437.902-.70703 2.16-.70703 3.961v7.668h-3.512v-11.5c0-1.676 0-3.414-.1289-4.992m-5.121 16.492h-3.77v-22.484h3.77zm0 0"/><path d="m82.012 1.996c-34.957 0-64.066 10.102-80.414 23.793-.93359.797-1.598 1.859-1.598 3.324v25.254c0-.53125.398-.92969 1.199-1.594 22.461-18.078 51.703-23.527 80.813-23.527zm0 0"/><path d="m82.016 84.621v-25.336c0 .66406-1.199.92969-3.059 1.063-30.176 1.863-59.02 11.168-78.957 25.391v29.773c18.543-12.801 45.48-23.766 71.031-27.383.3125-.043 6.555-.95313 7.336-1.07.94922-.14453 2.918-.35547 3.488-1.602.1211-.25781.16-.60156.16-.83593"/></g><path d="m82.012 59.285c0-.66406-.66406-1.328-1.727-2.125-13.891-9.687-31.301-16.547-51.367-19.758-9.949 3.602-19.309 8.602-27.719 15.371-.80078.664-1.199 1.063-1.199 1.594s.26563.664 1.328.79688c13.098 1.395 28.313 4.871 42.309 10.895 11.23-3 23.164-4.961 35.32-5.711 1.859-.13281 3.055-.39844 3.055-1.062" fill="#758bbc"/></svg>