<svg xmlns="http://www.w3.org/2000/svg" width="426.982" height="251.226" xmlns:v="https://vecta.io/nano"><style><![CDATA[.B{fill-rule:evenodd}.C{fill:#1c1c21}.D{fill:#656263}.E{stroke-width:.567}.F{stroke-miterlimit:22.926}]]></style><defs><clipPath id="A"><path d="M0 847.559h600.946V0H0z" transform="translate(-155.423 -233.281)"/></clipPath><clipPath id="B"><path d="M0 847.559h600.946V0H0z" transform="translate(-314.59 -246.236)"/></clipPath><clipPath id="C"><path d="M0 847.559h600.946V0H0z" transform="translate(-432.064 -322.852)"/></clipPath><clipPath id="D"><path d="M0 847.559h600.946V0H0z" transform="translate(-361.651 -322.852)"/></clipPath><clipPath id="E"><path d="M0 847.559h600.946V0H0z"/></clipPath><clipPath id="F"><path d="M0 847.559h600.946V0H0z"/></clipPath><clipPath id="G"><path d="M0 847.559h600.946V0H0z" transform="translate(-181.01 -322.852)"/></clipPath><clipPath id="H"><path d="M0 847.559h600.946V0H0z" transform="translate(-181.01 -322.852)"/></clipPath><clipPath id="I"><path d="M0 847.559h600.946V0H0z" transform="translate(-240.298 -328.541)"/></clipPath><clipPath id="J"><path d="M0 847.559h600.946V0H0z" transform="translate(-429.443 -167.971)"/></clipPath><clipPath id="K"><path d="M0 847.559h600.946V0H0z" transform="translate(-456.09 -219.865)"/></clipPath><clipPath id="L"><path d="M0 847.559h600.946V0H0z" transform="translate(-351.25 -219.865)"/></clipPath><clipPath id="M"><path d="M0 847.559h600.946V0H0z" transform="translate(-301.031 -219.798)"/></clipPath></defs><g transform="matrix(1.003666 0 0 -1.003666 707.724751 489.327167)"><g transform="translate(-491.982 304.764)" clip-path="url(#M)" class="B D"><path d="M0 0h40.577v-16.57H29.133v-50.673H12.164l.067 50.673H0z"/></g><g transform="translate(-441.763 304.831)" clip-path="url(#L)" class="B D"><path d="M0 0h34.327v-14.269H12.91v-10.648h19.835v-13.698H12.91v-13.3h22.099v-15.222H0z"/></g><g transform="translate(-336.923 304.831)" clip-path="url(#K)" class="B D"><path d="M0 0v-67.137h16.294v28.522h25.474v-28.522H56.98V0H41.768v-25.316H16.289L16.294 0z"/></g><g transform="translate(-363.57 252.936)" clip-path="url(#J)" class="B D"><path d="M0 0c-23.189.901-21.791 36.898 1.396 35.999 7.5-.292 12.514-4.266 14.907-9.436l.02 20.185c-4.841 3.006-10.526 4.807-16.666 5.045-18.636.725-34.446-13.769-35.171-32.414C-36.235.794-21.601-14.955-2.963-15.679c6.986-.271 13.593 1.575 19.254 4.896l-.005 20.307C13.641 3.828 8.125-.315 0 0"/></g><g transform="translate(-552.715 413.507)" clip-path="url(#I)" class="B"><path d="M0 0s48.755 34.716 108.113 60.578l7.164 3.063c9.026 3.19 18.125 6.836 26.945 8.238 1.762.314 3.638.601 5.554.877 9.013 1.264 19.22 2.019 25.023.166.721-.227 1.374-.5 1.955-.82 3.213-1.625 3.213-4.368 2.891-7.016-.133-.684-.374-1.514-.774-2.488-2.417-5.846-10.682-17.207-36.852-37.483l-22.492-.373s32.973 25.57 19.84 29.683c0 0-14.773 5.864-70.053-20.271z" fill="#2c3792"/></g><g transform="translate(-612.003 407.818)"><g clip-path="url(#H)" class="B C"><path d="M0 0h55.63v-18.963H36.859v-57.653H18.594v57.653H0z"/></g><g clip-path="url(#G)" class="E F"><path d="M0 0h55.63v-18.963H36.859v-57.653H18.594v57.653H0z" fill="none" stroke="#231f20"/></g></g><g transform="translate(-793.013 84.966)" class="B C"><path d="M325.955 322.853h21.637v-76.615h-21.637z" clip-path="url(#F)"/><path d="M491.369 322.853h21.644v-76.615h-21.644z" clip-path="url(#E)" stroke="#231f20" class="E F"/></g><g transform="translate(-431.362 407.818)" clip-path="url(#D)" class="B C"><path d="M0 0h35.851c7.837 0 13.764-2.056 17.531-6.142 4.057-4.112 5.914-9.921 5.914-17.407 0-7.696-2.083-13.78-6.316-18.152-4.217-4.34-10.76-6.483-19.44-6.483H21.649v-28.432H0zm21.649-32.681h5.354c4 0 6.991.794 8.795 2.329 1.582 1.643 2.416 3.646 2.416 6.129 0 2.416-.668 4.42-2.129 6.115-1.47 1.677-4.228 2.464-8.232 2.464h-6.204z"/></g><g transform="translate(-360.949 407.818)" clip-path="url(#C)" class="B C"><path d="M0 0h44.401v-16.377H16.563v-12.186h25.762v-15.624H16.563V-59.34h28.68v-17.276H0z"/></g><g transform="translate(-478.423 331.202)" clip-path="url(#B)" class="B C"><path d="M0 0l-8.513 24.62-17.464-12.67L-22.652 0zm-26.431 76.616h-23.445L-76.261 0h22.151l3.444 12.604h21.691C-18.592 18.54-11.837 23.06-8.679 25.107zm-19.621-47.455l7.617 27.558 7.779-27.558h-15.396"/></g><g transform="translate(-637.59 318.247)" clip-path="url(#A)" class="B"><path d="M0 0c2.263 2.416 4.737 4.96 7.053 7.222h-23.169c-.224 0-.337 0-.447.049C-19.328 4.96-22.205 2.646-25.136 0zm-8.959-10.146l4.847 5.584h-25.079c-.341 0-.678.168-.958.276l-6.292-5.86zm-9.474-12.006c.174.334.227.506.401.735a224.87 224.87 0 0 0 5.354 6.756h-28.41c-2.534-2.417-5.007-4.953-7.384-7.491zm-3.098-10.488c-.27 1.53-.113 3.494.908 5.922h-31.881c-1.767-1.911-3.439-3.892-4.954-5.922zm-46.018-23.28c.163-.949.397-1.796.764-2.649 0 0 5.218-11.611 70.226 1.861 0 0 .795.229 2.421.788zm1.602 9.361c-.761-1.69-1.205-3.327-1.492-4.847h86.163c3.431 1.242 7.604 2.936 12.049 4.847zm76.098 10.147s-.173 0-.173.114c-2.477-.575-4.901-.962-7.384-1.182 0 0-13.977-3.325-20.74.326h-42.583c-1.102-1.568-2.174-3.264-3.072-4.959H40.861l11.674 5.701zm35.276 10.141c-.216 0-.507 0-.72.227h-2.43c-5.24-2.258-10.479-4.278-15.496-5.802h34.32c3.157 1.682 6.435 3.544 9.7 5.575zm22.109 11.61c-.174 0-.464.06-.62.226-4.965-2.643-9.874-5.073-14.769-7.383h26.038c3.714 2.204 7.383 4.627 11.215 7.157zM88.331-2.599c-4.289-2.589-8.794-5.065-13.3-7.547h20.685c3.378 2.482 6.649 4.958 9.913 7.547zm19.388 11.271c-.28 0-.507.06-.854.06l-10.929-6.93h15.228c1.629 1.469 3.258 2.751 4.847 4.22l2.926 2.65zm5.916 4.573h9.42l27.565 24.288s-12.471-8.825-36.985-24.288M12.064 11.723c4.346 3.551 8.349 5.916 11.219 5.916l-21.36 4.232s-5.411-4.013-13.133-10.148z" fill="#00a650"/></g></g></svg>