<svg width="100pt" height="78.737pt" version="1.1" viewBox="0 0 100 78.737" xmlns="http://www.w3.org/2000/svg" xmlns:xlink="http://www.w3.org/1999/xlink"><defs></defs><g transform="scale(1.382)"><path d="m48.641 51.676h-11.273l-10.973-0.098c-9.586-4.379-15.773-14.02-15.773-24.559 0-14.898 12.121-27.016 27.023-27.016 14.875 0 26.98 12.117 26.98 27.016 0 10.598-6.262 20.27-15.945 24.641zm-22.133-0.437 10.859 0.082h11.199c9.539-4.324 15.699-13.855 15.699-24.301 0-14.699-11.941-26.656-26.621-26.656-14.703 0-26.668 11.957-26.668 26.656 0 10.387 6.098 19.891 15.531 24.219"/><path d="m16.254 14.516v-3.676c-0.871 1.16-1.652 2.387-2.344 3.676z" fill="#fff"/><path d="m16.437 14.699h-2.828l0.141-0.266c0.695-1.301 1.488-2.547 2.359-3.703l0.328-0.43zm-2.223-0.363h1.859v-2.941c-0.676 0.93-1.297 1.918-1.859 2.941"/><path d="m56.281 7.789v2.637h2.387c-0.738-0.93-1.531-1.809-2.387-2.637" fill="#fff"/><path d="m59.043 10.609h-2.945v-3.25l0.309 0.301c0.859 0.832 1.668 1.723 2.402 2.652zm-2.578-0.363h1.824c-0.57-0.703-1.184-1.379-1.824-2.023z"/><path d="m42.949 0.719v1.504h2.609v-0.836c-0.855-0.27-1.727-0.496-2.609-0.668" fill="#fff"/><path d="m45.738 2.402h-2.969v-1.906l0.215 0.043c0.859 0.168 1.742 0.395 2.629 0.676l0.125 0.039zm-2.605-0.359h2.246v-0.523c-0.758-0.234-1.512-0.43-2.246-0.582z"/><path d="m21.566 14.52h-2.598v-4.125h2.598z" fill="#fff"/><path d="m21.746 14.699h-2.961v-4.488h2.961zm-2.598-0.363h2.234v-3.762h-2.234z"/><path d="m21.566 18.633h-2.598v-4.117h2.598z" fill="#fff"/><path d="m21.746 18.816h-2.961v-4.48h2.961zm-2.598-0.363h2.234v-3.754h-2.234z"/><path d="m21.566 22.727h-2.598v-4.125h2.598z" fill="#fff"/><path d="m21.746 22.906h-2.961v-4.488h2.961zm-2.598-0.363h2.234v-3.762h-2.234z"/><path d="m21.566 26.84h-2.598v-4.113h2.598z" fill="#fff"/><path d="m21.746 27.023h-2.961v-4.48h2.961zm-2.598-0.363h2.234v-3.754h-2.234z"/><path d="m21.566 30.922h-2.598v-4.113h2.598z" fill="#fff"/><path d="m21.746 31.105h-2.961v-4.477h2.961zm-2.598-0.363h2.234v-3.754h-2.234z"/><path d="m21.566 35.047h-2.598v-4.125h2.598z" fill="#fff"/><path d="m21.746 35.23h-2.961v-4.488h2.961zm-2.598-0.363h2.234v-3.762h-2.234z"/><path d="m21.566 39.129h-2.598v-4.117h2.598z" fill="#fff"/><path d="m21.746 39.312h-2.961v-4.484h2.961zm-2.598-0.363h2.234v-3.758h-2.234z"/><path d="m21.566 43.223h-2.598v-4.133h2.598z" fill="#fff"/><path d="m21.746 43.406h-2.961v-4.496h2.961zm-2.598-0.363h2.234v-3.769h-2.234z"/><path d="m18.894 18.633h-2.594v-4.117h2.594z" fill="#fff"/><path d="m19.074 18.816h-2.957v-4.48h2.957zm-2.594-0.363h2.231v-3.754h-2.23z"/><path d="m18.894 22.727h-2.594v-4.125h2.594z" fill="#fff"/><path d="m19.074 22.906h-2.957v-4.488h2.957zm-2.594-0.363h2.231v-3.762h-2.23z"/><path d="m18.894 26.84h-2.594v-4.113h2.594z" fill="#fff"/><path d="m19.074 27.023h-2.957v-4.48h2.957zm-2.594-0.363h2.231v-3.754h-2.23z"/><path d="m18.894 30.922h-2.594v-4.113h2.594z" fill="#fff"/><path d="m19.074 31.105h-2.957v-4.477h2.957zm-2.594-0.363h2.231v-3.754h-2.23z"/><path d="m18.894 35.047h-2.594v-4.125h2.594z" fill="#fff"/><path d="m19.074 35.23h-2.957v-4.488h2.957zm-2.594-0.363h2.231v-3.762h-2.23z"/><path d="m18.894 39.129h-2.594v-4.117h2.594z" fill="#fff"/><path d="m19.074 39.312h-2.957v-4.484h2.957zm-2.594-0.363h2.231v-3.758h-2.23z"/><path d="m18.894 43.223h-2.594v-4.133h2.594z" fill="#fff"/><path d="m19.074 43.406h-2.957v-4.496h2.957zm-2.594-0.363h2.231v-3.769h-2.23z"/><path d="m16.254 22.727h-2.605v-4.125h2.606z" fill="#fff"/><path d="m16.434 22.906h-2.965v-4.488h2.965zm-2.605-0.363h2.242v-3.762h-2.242z"/><path d="m16.254 26.84h-2.605v-4.113h2.606z" fill="#fff"/><path d="m16.434 27.023h-2.965v-4.48h2.965zm-2.605-0.363h2.242v-3.754h-2.242z"/><path d="m16.254 30.922h-2.605v-4.113h2.606z" fill="#fff"/><path d="m16.434 31.105h-2.965v-4.477h2.965zm-2.605-0.363h2.242v-3.754h-2.242z"/><path d="m16.254 35.047h-2.605v-4.125h2.606z" fill="#fff"/><path d="m16.434 35.23h-2.965v-4.488h2.965zm-2.605-0.363h2.242v-3.762h-2.242z"/><path d="m24.242 10.426h-2.598v-4.117h2.598z" fill="#fff"/><path d="m24.422 10.609h-2.957v-4.48h2.957zm-2.598-0.363h2.234v-3.754h-2.234z"/><path d="m24.242 14.52h-2.598v-4.125h2.598z" fill="#fff"/><path d="m24.422 14.699h-2.957v-4.488h2.957zm-2.598-0.363h2.234v-3.762h-2.234z"/><path d="m24.242 18.633h-2.598v-4.117h2.598z" fill="#fff"/><path d="m24.422 18.816h-2.957v-4.48h2.957zm-2.598-0.363h2.234v-3.754h-2.234z"/><path d="m24.242 22.727h-2.598v-4.125h2.598z" fill="#fff"/><path d="m24.422 22.906h-2.957v-4.488h2.957zm-2.598-0.363h2.234v-3.762h-2.234z"/><path d="m24.242 26.84h-2.598v-4.113h2.598z" fill="#fff"/><path d="m24.422 27.023h-2.957v-4.48h2.957zm-2.598-0.363h2.234v-3.754h-2.234z"/><path d="m24.242 30.922h-2.598v-4.113h2.598z" fill="#fff"/><path d="m24.422 31.105h-2.957v-4.477h2.957zm-2.598-0.363h2.234v-3.754h-2.234z"/><path d="m24.242 35.047h-2.598v-4.125h2.598z" fill="#fff"/><path d="m24.422 35.23h-2.957v-4.488h2.957zm-2.598-0.363h2.234v-3.762h-2.234z"/><path d="m24.242 39.129h-2.598v-4.117h2.598z" fill="#fff"/><path d="m24.422 39.312h-2.957v-4.484h2.957zm-2.598-0.363h2.234v-3.758h-2.234z"/><path d="m24.242 43.223h-2.598v-4.133h2.598z" fill="#fff"/><path d="m24.422 43.406h-2.957v-4.496h2.957zm-2.598-0.363h2.234v-3.769h-2.234z"/><path d="m24.242 47.34h-2.598v-4.117h2.598z" fill="#fff"/><g><path d="m24.422 47.523h-2.957v-4.48h2.957zm-2.598-0.363h2.234v-3.754h-2.234z"/><path d="m26.914 10.426h-2.602v-4.117h2.602z"/><path d="m27.098 10.609h-2.965v-4.48h2.965zm-2.602-0.363h2.234v-3.754h-2.234z"/></g><path d="m26.914 14.52h-2.602v-4.125h2.602z" fill="#fff"/><path d="m27.098 14.699h-2.965v-4.488h2.965zm-2.602-0.363h2.234v-3.762h-2.234z"/><path d="m26.914 18.633h-2.602v-4.117h2.602z" fill="#fff"/><path d="m27.098 18.816h-2.965v-4.48h2.965zm-2.602-0.363h2.234v-3.754h-2.234z"/><path d="m26.914 22.727h-2.602v-4.125h2.602z" fill="#fff"/><path d="m27.098 22.906h-2.965v-4.488h2.965zm-2.602-0.363h2.234v-3.762h-2.234z"/><path d="m26.914 26.84h-2.602v-4.113h2.602z" fill="#fff"/><path d="m27.098 27.023h-2.965v-4.48h2.965zm-2.602-0.363h2.234v-3.754h-2.234z"/><path d="m26.914 30.922h-2.602v-4.113h2.602z" fill="#fff"/><path d="m27.098 31.105h-2.965v-4.477h2.965zm-2.602-0.363h2.234v-3.754h-2.234z"/><path d="m26.914 35.047h-2.602v-4.125h2.602z" fill="#fff"/><path d="m27.098 35.23h-2.965v-4.488h2.965zm-2.602-0.363h2.234v-3.762h-2.234z"/><path d="m26.914 39.129h-2.602v-4.117h2.602z" fill="#fff"/><path d="m27.098 39.312h-2.965v-4.484h2.965zm-2.602-0.363h2.234v-3.758h-2.234z"/><path d="m26.914 43.223h-2.602v-4.133h2.602z" fill="#fff"/><g><path d="m27.098 43.406h-2.965v-4.496h2.965zm-2.602-0.363h2.234v-3.769h-2.234z"/><path d="m26.914 47.34h-2.602v-4.117h2.602z"/><path d="m27.098 47.523h-2.965v-4.48h2.965zm-2.602-0.363h2.234v-3.754h-2.234z"/></g><path d="m29.547 10.426h-2.598v-4.117h2.598z" fill="#fff"/><g><path d="m29.727 10.609h-2.957v-4.48h2.957zm-2.594-0.363h2.231v-3.754h-2.23z"/><path d="m29.547 14.52h-2.598v-4.125h2.598z"/><path d="m29.727 14.699h-2.957v-4.488h2.957zm-2.594-0.363h2.231v-3.762h-2.23z"/></g><path d="m29.547 18.633h-2.598v-4.117h2.598z" fill="#fff"/><path d="m29.727 18.816h-2.957v-4.48h2.957zm-2.594-0.363h2.231v-3.754h-2.23z"/><path d="m29.547 22.727h-2.598v-4.125h2.598z" fill="#fff"/><path d="m29.727 22.906h-2.957v-4.488h2.957zm-2.594-0.363h2.231v-3.762h-2.23z"/><path d="m29.547 26.84h-2.598v-4.113h2.598z" fill="#fff"/><path d="m29.727 27.023h-2.957v-4.48h2.957zm-2.594-0.363h2.231v-3.754h-2.23z"/><path d="m29.547 30.922h-2.598v-4.113h2.598z" fill="#fff"/><path d="m29.727 31.105h-2.957v-4.477h2.957zm-2.594-0.363h2.231v-3.754h-2.23z"/><path d="m29.547 35.047h-2.598v-4.125h2.598z" fill="#fff"/><path d="m29.727 35.23h-2.957v-4.488h2.957zm-2.594-0.363h2.231v-3.762h-2.23z"/><path d="m29.547 39.129h-2.598v-4.117h2.598z" fill="#fff"/><g><path d="m29.727 39.312h-2.957v-4.484h2.957zm-2.594-0.363h2.231v-3.758h-2.23z"/><path d="m29.547 43.223h-2.598v-4.133h2.598z"/><path d="m29.727 43.406h-2.957v-4.496h2.957zm-2.594-0.363h2.231v-3.769h-2.23z"/></g><path d="m29.547 47.34h-2.598v-4.117h2.598z" fill="#fff"/><g><path d="m29.727 47.523h-2.957v-4.48h2.957zm-2.594-0.363h2.231v-3.754h-2.23z"/><path d="m29.547 51.414h-2.598v-4.117h2.598z"/><path d="m29.727 51.598h-2.957v-4.484h2.957zm-2.594-0.363h2.231v-3.754h-2.23z"/></g><path d="m32.223 10.426h-2.602v-4.117h2.602z" fill="#fff"/><path d="m32.402 10.609h-2.965v-4.48h2.965zm-2.602-0.363h2.242v-3.754h-2.242z"/><path d="m32.223 6.309h-2.602v-4.117h2.602z" fill="#fff"/><path d="m32.402 6.492h-2.965v-4.484h2.965zm-2.602-0.363h2.242v-3.758h-2.242z"/><path d="m32.223 14.52h-2.602v-4.125h2.602z" fill="#fff"/><path d="m32.402 14.699h-2.965v-4.488h2.965zm-2.602-0.363h2.242v-3.762h-2.242z"/><path d="m32.223 18.633h-2.602v-4.117h2.602z" fill="#fff"/><path d="m32.402 18.816h-2.965v-4.48h2.965zm-2.602-0.363h2.242v-3.754h-2.242z"/><path d="m32.223 22.727h-2.602v-4.125h2.602z" fill="#fff"/><path d="m32.402 22.906h-2.965v-4.488h2.965zm-2.602-0.363h2.242v-3.762h-2.242z"/><path d="m32.223 26.84h-2.602v-4.113h2.602z" fill="#fff"/><path d="m32.402 27.023h-2.965v-4.48h2.965zm-2.602-0.363h2.242v-3.754h-2.242z"/><path d="m32.223 30.922h-2.602v-4.113h2.602z" fill="#fff"/><path d="m32.402 31.105h-2.965v-4.477h2.965zm-2.602-0.363h2.242v-3.754h-2.242z"/><path d="m32.223 35.047h-2.602v-4.125h2.602z" fill="#fff"/><path d="m32.402 35.23h-2.965v-4.488h2.965zm-2.602-0.363h2.242v-3.762h-2.242z"/><path d="m32.223 39.129h-2.602v-4.117h2.602z" fill="#fff"/><path d="m32.402 39.312h-2.965v-4.484h2.965zm-2.602-0.363h2.242v-3.758h-2.242z"/><path d="m32.223 43.223h-2.602v-4.133h2.602z" fill="#fff"/><g><path d="m32.402 43.406h-2.965v-4.496h2.965zm-2.602-0.363h2.242v-3.769h-2.242z"/><path d="m32.223 47.34h-2.602v-4.117h2.602z"/><path d="m32.402 47.523h-2.965v-4.48h2.965zm-2.602-0.363h2.242v-3.754h-2.242z"/></g><path d="m32.223 51.414h-2.602v-4.117h2.602z" fill="#fff"/><path d="m32.402 51.598h-2.965v-4.484h2.965zm-2.602-0.363h2.242v-3.754h-2.242z"/><path d="m34.894 10.426h-2.598v-4.117h2.598z" fill="#fff"/><path d="m35.074 10.609h-2.957v-4.48h2.957zm-2.594-0.363h2.234v-3.754h-2.234z"/><path d="m34.894 6.309h-2.598v-4.117h2.598z" fill="#fff"/><path d="m35.074 6.492h-2.957v-4.484h2.957zm-2.594-0.363h2.234v-3.758h-2.234z"/><path d="m34.894 14.52h-2.598v-4.125h2.598z" fill="#fff"/><path d="m35.074 14.699h-2.957v-4.488h2.957zm-2.594-0.363h2.234v-3.762h-2.234z"/><path d="m34.894 18.633h-2.598v-4.117h2.598z" fill="#fff"/><path d="m35.074 18.816h-2.957v-4.48h2.957zm-2.594-0.363h2.234v-3.754h-2.234z"/><path d="m34.894 22.727h-2.598v-4.125h2.598z" fill="#fff"/><path d="m35.074 22.906h-2.957v-4.488h2.957zm-2.594-0.363h2.234v-3.762h-2.234z"/><path d="m34.894 26.84h-2.598v-4.113h2.598z" fill="#fff"/><path d="m35.074 27.023h-2.957v-4.48h2.957zm-2.594-0.363h2.234v-3.754h-2.234z"/><path d="m34.894 30.922h-2.598v-4.113h2.598z" fill="#fff"/><path d="m35.074 31.105h-2.957v-4.477h2.957zm-2.594-0.363h2.234v-3.754h-2.234z"/><path d="m34.894 35.047h-2.598v-4.125h2.598z" fill="#fff"/><path d="m35.074 35.23h-2.957v-4.488h2.957zm-2.594-0.363h2.234v-3.762h-2.234z"/><path d="m34.894 39.129h-2.598v-4.117h2.598z" fill="#fff"/><path d="m35.074 39.312h-2.957v-4.484h2.957zm-2.594-0.363h2.234v-3.758h-2.234z"/><path d="m34.894 43.223h-2.598v-4.133h2.598z" fill="#fff"/><path d="m35.074 43.406h-2.957v-4.496h2.957zm-2.594-0.363h2.234v-3.769h-2.234z"/><path d="m34.894 47.34h-2.598v-4.117h2.598z" fill="#fff"/><path d="m35.074 47.523h-2.957v-4.48h2.957zm-2.594-0.363h2.234v-3.754h-2.234z"/><path d="m34.894 51.414h-2.598v-4.117h2.598z" fill="#fff"/><path d="m35.074 51.598h-2.957v-4.484h2.957zm-2.594-0.363h2.234v-3.754h-2.234z"/><path d="m37.57 10.426h-2.598v-4.117h2.598z" fill="#fff"/><g><path d="m37.754 10.609h-2.965v-4.48h2.965zm-2.602-0.363h2.238v-3.754h-2.238z"/><path d="m37.57 6.309h-2.598v-4.117h2.598z"/><path d="m37.754 6.492h-2.965v-4.484h2.965zm-2.602-0.363h2.238v-3.758h-2.238z"/></g><path d="m37.57 14.52h-2.598v-4.125h2.598z" fill="#fff"/><path d="m37.754 14.699h-2.965v-4.488h2.965zm-2.602-0.363h2.238v-3.762h-2.238z"/><path d="m37.57 18.633h-2.598v-4.117h2.598z" fill="#fff"/><path d="m37.754 18.816h-2.965v-4.48h2.965zm-2.602-0.363h2.238v-3.754h-2.238z"/><path d="m37.57 22.727h-2.598v-4.125h2.598z" fill="#fff"/><path d="m37.754 22.906h-2.965v-4.488h2.965zm-2.602-0.363h2.238v-3.762h-2.238z"/><path d="m37.57 26.84h-2.598v-4.113h2.598z" fill="#fff"/><path d="m37.754 27.023h-2.965v-4.48h2.965zm-2.602-0.363h2.238v-3.754h-2.238z"/><path d="m37.57 30.922h-2.598v-4.113h2.598z" fill="#fff"/><path d="m37.754 31.105h-2.965v-4.477h2.965zm-2.602-0.363h2.238v-3.754h-2.238z"/><path d="m37.57 35.047h-2.598v-4.125h2.598z" fill="#fff"/><path d="m37.754 35.23h-2.965v-4.488h2.965zm-2.602-0.363h2.238v-3.762h-2.238z"/><path d="m37.57 39.129h-2.598v-4.117h2.598z" fill="#fff"/><path d="m37.754 39.312h-2.965v-4.484h2.965zm-2.602-0.363h2.238v-3.758h-2.238z"/><path d="m37.57 43.223h-2.598v-4.133h2.598z" fill="#fff"/><path d="m37.754 43.406h-2.965v-4.496h2.965zm-2.602-0.363h2.238v-3.769h-2.238z"/><path d="m37.57 47.34h-2.598v-4.117h2.598z" fill="#fff"/><path d="m37.754 47.523h-2.965v-4.48h2.965zm-2.602-0.363h2.238v-3.754h-2.238z"/><path d="m37.57 51.414h-2.598v-4.117h2.598z" fill="#fff"/><path d="m37.754 51.598h-2.965v-4.484h2.965zm-2.602-0.363h2.238v-3.754h-2.238z"/><path d="m40.238 10.426h-2.594v-4.117h2.594z" fill="#fff"/><path d="m40.422 10.609h-2.957v-4.48h2.957zm-2.598-0.363h2.234v-3.754h-2.234z"/><path d="m40.238 6.309h-2.594v-4.117h2.594z" fill="#fff"/><path d="m40.422 6.492h-2.957v-4.484h2.957zm-2.598-0.363h2.234v-3.758h-2.234z"/><path d="m40.238 14.52h-2.594v-4.125h2.594z" fill="#fff"/><path d="m40.422 14.699h-2.957v-4.488h2.957zm-2.598-0.363h2.234v-3.762h-2.234z"/><path d="m40.238 18.633h-2.594v-4.117h2.594z" fill="#fff"/><path d="m40.422 18.816h-2.957v-4.48h2.957zm-2.598-0.363h2.234v-3.754h-2.234z"/><path d="m40.238 22.727h-2.594v-4.125h2.594z" fill="#fff"/><path d="m40.422 22.906h-2.957v-4.488h2.957zm-2.598-0.363h2.234v-3.762h-2.234z"/><path d="m40.238 26.84h-2.594v-4.113h2.594z" fill="#fff"/><path d="m40.422 27.023h-2.957v-4.48h2.957zm-2.598-0.363h2.234v-3.754h-2.234z"/><path d="m40.238 30.922h-2.594v-4.113h2.594z" fill="#fff"/><path d="m40.422 31.105h-2.957v-4.477h2.957zm-2.598-0.363h2.234v-3.754h-2.234z"/><path d="m40.238 35.047h-2.594v-4.125h2.594z" fill="#fff"/><path d="m40.422 35.23h-2.957v-4.488h2.957zm-2.598-0.363h2.234v-3.762h-2.234z"/><path d="m40.238 39.129h-2.594v-4.117h2.594z" fill="#fff"/><g><path d="m40.422 39.312h-2.957v-4.484h2.957zm-2.598-0.363h2.234v-3.758h-2.234z"/><path d="m40.238 43.223h-2.594v-4.133h2.594z"/><path d="m40.422 43.406h-2.957v-4.496h2.957zm-2.598-0.363h2.234v-3.769h-2.234z"/></g><path d="m40.238 47.34h-2.594v-4.117h2.594z" fill="#fff"/><path d="m40.422 47.523h-2.957v-4.48h2.957zm-2.598-0.363h2.234v-3.754h-2.234z"/><path d="m40.238 51.414h-2.594v-4.117h2.594z" fill="#fff"/><path d="m40.422 51.598h-2.957v-4.484h2.957zm-2.598-0.363h2.234v-3.754h-2.234z"/><path d="m42.879 10.426h-2.594v-4.117h2.594z" fill="#fff"/><path d="m43.059 10.609h-2.957v-4.48h2.957zm-2.594-0.363h2.231v-3.754h-2.23z"/><path d="m42.879 6.309h-2.594v-4.117h2.594z" fill="#fff"/><path d="m43.059 6.492h-2.957v-4.484h2.957zm-2.594-0.363h2.231v-3.758h-2.23z"/><path d="m42.879 14.52h-2.594v-4.125h2.594z" fill="#fff"/><path d="m43.059 14.699h-2.957v-4.488h2.957zm-2.594-0.363h2.231v-3.762h-2.23z"/><path d="m42.879 18.633h-2.594v-4.117h2.594z" fill="#fff"/><path d="m43.059 18.816h-2.957v-4.48h2.957zm-2.594-0.363h2.231v-3.754h-2.23z"/><path d="m42.879 22.727h-2.594v-4.125h2.594z" fill="#fff"/><path d="m43.059 22.906h-2.957v-4.488h2.957zm-2.594-0.363h2.231v-3.762h-2.23z"/><path d="m42.879 26.84h-2.594v-4.113h2.594z" fill="#fff"/><path d="m43.059 27.023h-2.957v-4.48h2.957zm-2.594-0.363h2.231v-3.754h-2.23z"/><path d="m42.879 30.922h-2.594v-4.113h2.594z" fill="#fff"/><path d="m43.059 31.105h-2.957v-4.477h2.957zm-2.594-0.363h2.231v-3.754h-2.23z"/><path d="m42.879 35.047h-2.594v-4.125h2.594z" fill="#fff"/><path d="m43.059 35.23h-2.957v-4.488h2.957zm-2.594-0.363h2.231v-3.762h-2.23z"/><path d="m42.879 39.129h-2.594v-4.117h2.594z" fill="#fff"/><path d="m43.059 39.312h-2.957v-4.484h2.957zm-2.594-0.363h2.231v-3.758h-2.23z"/><path d="m42.879 43.223h-2.594v-4.133h2.594z" fill="#fff"/><path d="m43.059 43.406h-2.957v-4.496h2.957zm-2.594-0.363h2.231v-3.769h-2.23z"/><path d="m42.879 47.34h-2.594v-4.117h2.594z" fill="#fff"/><path d="m43.059 47.523h-2.957v-4.48h2.957zm-2.594-0.363h2.231v-3.754h-2.23z"/><path d="m42.879 51.414h-2.594v-4.117h2.594z" fill="#fff"/><path d="m43.059 51.598h-2.957v-4.484h2.957zm-2.594-0.363h2.231v-3.754h-2.23z"/><path d="m45.559 10.426h-2.609v-4.117h2.609z" fill="#fff"/><path d="m45.742 10.609h-2.973v-4.48h2.973zm-2.609-0.363h2.246v-3.754h-2.246z"/><path d="m45.559 6.309h-2.609v-4.117h2.609z" fill="#fff"/><path d="m45.742 6.492h-2.973v-4.484h2.973zm-2.609-0.363h2.246v-3.758h-2.246z"/><path d="m45.559 14.52h-2.609v-4.125h2.609z" fill="#fff"/><path d="m45.742 14.699h-2.973v-4.488h2.973zm-2.609-0.363h2.246v-3.762h-2.246z"/><path d="m45.559 18.633h-2.609v-4.117h2.609z" fill="#fff"/><path d="m45.742 18.816h-2.973v-4.48h2.973zm-2.609-0.363h2.246v-3.754h-2.246z"/><path d="m45.559 22.727h-2.609v-4.125h2.609z" fill="#fff"/><path d="m45.742 22.906h-2.973v-4.488h2.973zm-2.609-0.363h2.246v-3.762h-2.246z"/><path d="m45.559 26.84h-2.609v-4.113h2.609z" fill="#fff"/><path d="m45.742 27.023h-2.973v-4.48h2.973zm-2.609-0.363h2.246v-3.754h-2.246z"/><path d="m45.559 30.922h-2.609v-4.113h2.609z" fill="#fff"/><path d="m45.742 31.105h-2.973v-4.477h2.973zm-2.609-0.363h2.246v-3.754h-2.246z"/><path d="m45.559 35.047h-2.609v-4.125h2.609z" fill="#fff"/><path d="m45.742 35.23h-2.973v-4.488h2.973zm-2.609-0.363h2.246v-3.762h-2.246z"/><path d="m45.559 39.129h-2.609v-4.117h2.609z" fill="#fff"/><path d="m45.742 39.312h-2.973v-4.484h2.973zm-2.609-0.363h2.246v-3.758h-2.246z"/><path d="m45.559 43.223h-2.609v-4.133h2.609z" fill="#fff"/><path d="m45.742 43.406h-2.973v-4.496h2.973zm-2.609-0.363h2.246v-3.769h-2.246z"/><path d="m45.559 47.34h-2.609v-4.117h2.609z" fill="#fff"/><path d="m45.742 47.523h-2.973v-4.48h2.973zm-2.609-0.363h2.246v-3.754h-2.246z"/><path d="m45.559 51.414h-2.609v-4.117h2.609z" fill="#fff"/><path d="m45.742 51.598h-2.973v-4.484h2.973zm-2.609-0.363h2.246v-3.754h-2.246z"/><path d="m48.215 10.426h-2.59v-4.117h2.59z" fill="#fff"/><path d="m48.394 10.609h-2.953v-4.48h2.953zm-2.59-0.363h2.227v-3.754h-2.227z"/><path d="m48.215 14.52h-2.59v-4.125h2.59z" fill="#fff"/><path d="m48.394 14.699h-2.953v-4.488h2.953zm-2.59-0.363h2.227v-3.762h-2.227z"/><path d="m48.215 18.633h-2.59v-4.117h2.59z" fill="#fff"/><path d="m48.394 18.816h-2.953v-4.48h2.953zm-2.59-0.363h2.227v-3.754h-2.227z"/><path d="m48.215 22.727h-2.59v-4.125h2.59z" fill="#fff"/><path d="m48.394 22.906h-2.953v-4.488h2.953zm-2.59-0.363h2.227v-3.762h-2.227z"/><path d="m48.215 26.84h-2.59v-4.113h2.59z" fill="#fff"/><path d="m48.394 27.023h-2.953v-4.48h2.953zm-2.59-0.363h2.227v-3.754h-2.227z"/><path d="m48.215 30.922h-2.59v-4.113h2.59z" fill="#fff"/><path d="m48.394 31.105h-2.953v-4.477h2.953zm-2.59-0.363h2.227v-3.754h-2.227z"/><path d="m48.215 35.047h-2.59v-4.125h2.59z" fill="#fff"/><path d="m48.394 35.23h-2.953v-4.488h2.953zm-2.59-0.363h2.227v-3.762h-2.227z"/><path d="m48.215 39.129h-2.59v-4.117h2.59z" fill="#fff"/><path d="m48.394 39.312h-2.953v-4.484h2.953zm-2.59-0.363h2.227v-3.758h-2.227z"/><path d="m48.215 43.223h-2.59v-4.133h2.59z" fill="#fff"/><path d="m48.394 43.406h-2.953v-4.496h2.953zm-2.59-0.363h2.227v-3.769h-2.227z"/><path d="m48.215 47.34h-2.59v-4.117h2.59z" fill="#fff"/><path d="m48.394 47.523h-2.953v-4.48h2.953zm-2.59-0.363h2.227v-3.754h-2.227z"/><path d="m48.215 51.414h-2.59v-4.117h2.59z" fill="#fff"/><path d="m48.394 51.598h-2.953v-4.484h2.953zm-2.59-0.363h2.227v-3.754h-2.227z"/><path d="m50.902 10.426h-2.602v-4.117h2.602z" fill="#fff"/><g><path d="m51.086 10.609h-2.965v-4.48h2.965zm-2.602-0.363h2.238v-3.754h-2.238z"/><path d="m50.902 14.52h-2.602v-4.125h2.602z"/><path d="m51.086 14.699h-2.965v-4.488h2.965zm-2.602-0.363h2.238v-3.762h-2.238z"/></g><path d="m50.902 18.633h-2.602v-4.117h2.602z" fill="#fff"/><path d="m51.086 18.816h-2.965v-4.48h2.965zm-2.602-0.363h2.238v-3.754h-2.238z"/><path d="m50.902 22.727h-2.602v-4.125h2.602z" fill="#fff"/><path d="m51.086 22.906h-2.965v-4.488h2.965zm-2.602-0.363h2.238v-3.762h-2.238z"/><path d="m50.902 26.84h-2.602v-4.113h2.602z" fill="#fff"/><path d="m51.086 27.023h-2.965v-4.48h2.965zm-2.602-0.363h2.238v-3.754h-2.238z"/><path d="m50.902 30.922h-2.602v-4.113h2.602z" fill="#fff"/><path d="m51.086 31.105h-2.965v-4.477h2.965zm-2.602-0.363h2.238v-3.754h-2.238z"/><path d="m50.902 35.047h-2.602v-4.125h2.602z" fill="#fff"/><path d="m51.086 35.23h-2.965v-4.488h2.965zm-2.602-0.363h2.238v-3.762h-2.238z"/><path d="m50.902 39.129h-2.602v-4.117h2.602z" fill="#fff"/><path d="m51.086 39.312h-2.965v-4.484h2.965zm-2.602-0.363h2.238v-3.758h-2.238z"/><path d="m50.902 43.223h-2.602v-4.133h2.602z" fill="#fff"/><g><path d="m51.086 43.406h-2.965v-4.496h2.965zm-2.602-0.363h2.238v-3.769h-2.238z"/><path d="m50.902 47.34h-2.602v-4.117h2.602z"/><path d="m51.086 47.523h-2.965v-4.48h2.965zm-2.602-0.363h2.238v-3.754h-2.238z"/></g><path d="m53.535 10.426h-2.602v-4.117h2.602z" fill="#fff"/><path d="m53.719 10.609h-2.965v-4.48h2.965zm-2.602-0.363h2.238v-3.754h-2.238z"/><path d="m53.535 14.52h-2.602v-4.125h2.602z" fill="#fff"/><path d="m53.719 14.699h-2.965v-4.488h2.965zm-2.602-0.363h2.238v-3.762h-2.238z"/><path d="m53.535 18.633h-2.602v-4.117h2.602z" fill="#fff"/><path d="m53.719 18.816h-2.965v-4.48h2.965zm-2.602-0.363h2.238v-3.754h-2.238z"/><path d="m53.535 22.727h-2.602v-4.125h2.602z" fill="#fff"/><path d="m53.719 22.906h-2.965v-4.488h2.965zm-2.602-0.363h2.238v-3.762h-2.238z"/><path d="m53.535 26.84h-2.602v-4.113h2.602z" fill="#fff"/><path d="m53.719 27.023h-2.965v-4.48h2.965zm-2.602-0.363h2.238v-3.754h-2.238z"/><path d="m53.535 30.922h-2.602v-4.113h2.602z" fill="#fff"/><path d="m53.719 31.105h-2.965v-4.477h2.965zm-2.602-0.363h2.238v-3.754h-2.238z"/><path d="m53.535 35.047h-2.602v-4.125h2.602z" fill="#fff"/><path d="m53.719 35.23h-2.965v-4.488h2.965zm-2.602-0.363h2.238v-3.762h-2.238z"/><path d="m53.535 39.129h-2.602v-4.117h2.602z" fill="#fff"/><g><path d="m53.719 39.312h-2.965v-4.484h2.965zm-2.602-0.363h2.238v-3.758h-2.238z"/><path d="m53.535 43.223h-2.602v-4.133h2.602z"/><path d="m53.719 43.406h-2.965v-4.496h2.965zm-2.602-0.363h2.238v-3.769h-2.238z"/></g><path d="m53.535 47.34h-2.602v-4.117h2.602z" fill="#fff"/><path d="m53.719 47.523h-2.965v-4.48h2.965zm-2.602-0.363h2.238v-3.754h-2.238z"/><path d="m56.207 14.52h-2.598v-4.125h2.598z" fill="#fff"/><path d="m56.387 14.699h-2.961v-4.488h2.961zm-2.598-0.363h2.234v-3.762h-2.234z"/><path d="m56.207 18.633h-2.598v-4.117h2.598z" fill="#fff"/><path d="m56.387 18.816h-2.961v-4.48h2.961zm-2.598-0.363h2.234v-3.754h-2.234z"/><path d="m56.207 22.727h-2.598v-4.125h2.598z" fill="#fff"/><path d="m56.387 22.906h-2.961v-4.488h2.961zm-2.598-0.363h2.234v-3.762h-2.234z"/><path d="m56.207 26.84h-2.598v-4.113h2.598z" fill="#fff"/><path d="m56.387 27.023h-2.961v-4.48h2.961zm-2.598-0.363h2.234v-3.754h-2.234z"/><path d="m56.207 30.922h-2.598v-4.113h2.598z" fill="#fff"/><path d="m56.387 31.105h-2.961v-4.477h2.961zm-2.598-0.363h2.234v-3.754h-2.234z"/><path d="m56.207 35.047h-2.598v-4.125h2.598z" fill="#fff"/><path d="m56.387 35.23h-2.961v-4.488h2.961zm-2.598-0.363h2.234v-3.762h-2.234z"/><path d="m56.207 39.129h-2.598v-4.117h2.598z" fill="#fff"/><path d="m56.387 39.312h-2.961v-4.484h2.961zm-2.598-0.363h2.234v-3.758h-2.234z"/><path d="m56.207 43.223h-2.598v-4.133h2.598z" fill="#fff"/><path d="m56.387 43.406h-2.961v-4.496h2.961zm-2.598-0.363h2.234v-3.769h-2.234z"/><path d="m58.879 18.633h-2.598v-4.117h2.598z" fill="#fff"/><path d="m59.059 18.816h-2.957v-4.48h2.957zm-2.594-0.363h2.231v-3.754h-2.23z"/><path d="m58.879 22.727h-2.598v-4.125h2.598z" fill="#fff"/><path d="m59.059 22.906h-2.957v-4.488h2.957zm-2.594-0.363h2.231v-3.762h-2.23z"/><path d="m58.879 26.84h-2.598v-4.113h2.598z" fill="#fff"/><path d="m59.059 27.023h-2.957v-4.48h2.957zm-2.594-0.363h2.231v-3.754h-2.23z"/><path d="m58.879 30.922h-2.598v-4.113h2.598z" fill="#fff"/><path d="m59.059 31.105h-2.957v-4.477h2.957zm-2.594-0.363h2.231v-3.754h-2.23z"/><path d="m58.879 35.047h-2.598v-4.125h2.598z" fill="#fff"/><path d="m59.059 35.23h-2.957v-4.488h2.957zm-2.594-0.363h2.231v-3.762h-2.23z"/><path d="m58.879 39.129h-2.598v-4.117h2.598z" fill="#fff"/><path d="m59.059 39.312h-2.957v-4.484h2.957zm-2.594-0.363h2.231v-3.758h-2.23z"/><path d="m58.879 43.223h-2.598v-4.133h2.598z" fill="#fff"/><path d="m59.059 43.406h-2.957v-4.496h2.957zm-2.594-0.363h2.231v-3.769h-2.23z"/><path d="m61.555 22.727h-2.598v-4.125h2.598z" fill="#fff"/><path d="m61.734 22.906h-2.957v-4.488h2.957zm-2.594-0.363h2.231v-3.762h-2.23z"/><path d="m61.555 26.84h-2.598v-4.113h2.598z" fill="#fff"/><path d="m61.734 27.023h-2.957v-4.48h2.957zm-2.594-0.363h2.231v-3.754h-2.23z"/><path d="m61.555 30.922h-2.598v-4.113h2.598z" fill="#fff"/><path d="m61.734 31.105h-2.957v-4.477h2.957zm-2.594-0.363h2.231v-3.754h-2.23z"/><path d="m61.555 35.047h-2.598v-4.125h2.598z" fill="#fff"/><path d="m61.734 35.23h-2.957v-4.488h2.957zm-2.594-0.363h2.231v-3.762h-2.23z"/><path d="m64.144 30.922h-2.555v-4.113l2.848-0.012z" fill="#fff"/><path d="m61.406 31.105v-4.477l3.227-0.016-0.316 4.488zm0.363-4.117v3.754l2.207-4e-3 0.266-3.762z"/><path d="m16.297 10.797v3.723h2.594v-4.129h-2.277c-0.105 0.129-0.211 0.27-0.316 0.406" fill="#fff"/><path d="m19.074 14.699h-2.957v-3.961l0.035-0.051c0.105-0.137 0.211-0.281 0.324-0.414l0.055-0.062h2.543zm-2.594-0.363h2.231v-3.762h-2.012c-0.074 0.09-0.148 0.188-0.219 0.285z"/><path d="m16.254 14.516h-2.344c-0.086 0.164-0.172 0.328-0.262 0.504v3.617h2.606z" fill="#fff"/><path d="m16.434 18.816h-2.965l0.02-3.879c0.09-0.176 0.176-0.344 0.266-0.508l0.051-0.094h2.629zm-2.605-0.363h2.242v-3.754h-2.051c-0.062 0.117-0.125 0.238-0.191 0.363z"/><path d="m61.555 14.941c-0.074-0.145-0.145-0.285-0.215-0.426h-2.383v4.117h2.598z" fill="#fff"/><path d="m61.734 18.816h-2.957v-4.48h2.676l0.281 0.605zm-2.594-0.363h2.231v-3.469l-0.141-0.285h-2.09z"/><path d="m58.879 10.703c-0.078-0.109-0.16-0.211-0.242-0.309h-2.355v4.125h2.598z" fill="#fff"/><path d="m59.059 14.699h-2.957v-4.488h2.625l0.051 0.066c0.094 0.117 0.172 0.215 0.25 0.32l0.031 0.047zm-2.594-0.363h2.231v-3.574c-0.047-0.066-0.094-0.125-0.145-0.187h-2.086z"/><path d="m47.77 2.191h-2.144v4.117h2.59v-3.934c-0.141-0.066-0.293-0.121-0.445-0.184" fill="#fff"/><path d="m48.394 6.492h-2.953v-4.484l2.398 0.016 0.148 0.059c0.102 0.043 0.203 0.082 0.305 0.129l0.102 0.047zm-2.59-0.363h2.227v-3.637c-0.059-0.027-0.117-0.051-0.18-0.074l-0.117-0.047h-1.93z"/><path d="m29.547 1.438c-0.727 0.23-1.441 0.496-2.144 0.785h2.145z" fill="#fff"/><path d="m29.727 2.402h-2.328l-0.066-0.348c0.715-0.297 1.441-0.562 2.156-0.789l0.238-0.078zm-1.367-0.359h1.004v-0.355c-0.332 0.109-0.668 0.227-1.004 0.355"/><path d="m29.621 1.414v0.809h2.602v-1.488c-0.879 0.191-1.746 0.418-2.602 0.68" fill="#fff"/><path d="m32.402 2.402h-2.965v-1.125l0.129-0.039c0.867-0.266 1.75-0.496 2.617-0.684l0.219-0.047zm-2.602-0.359h2.242v-1.082c-0.746 0.164-1.496 0.363-2.242 0.586z"/><path d="m32.297 0.719v1.504h2.598v-1.898c-0.875 0.086-1.738 0.219-2.598 0.395" fill="#fff"/><path d="m35.074 2.402h-2.957v-1.832l0.141-0.027c0.859-0.18 1.742-0.312 2.617-0.402l0.199-0.019zm-2.598-0.359h2.234v-1.519c-0.746 0.082-1.496 0.195-2.234 0.344z"/><path d="m37.57 0.188c-0.879 4e-3 -1.742 0.047-2.598 0.137v1.898h2.598z" fill="#fff"/><path d="m37.754 2.402h-2.965v-2.246l0.164-0.016c0.863-0.086 1.719-0.133 2.617-0.133l0.184-4e-3zm-2.602-0.359h2.238v-1.672c-0.766 8e-3 -1.504 0.047-2.238 0.113z"/><path d="m40.242 2.223v-1.91c-0.855-0.082-1.723-0.129-2.598-0.129v2.039z" fill="#fff"/><path d="m40.422 2.402h-2.961v-2.402h0.184c0.832 0 1.688 0.043 2.613 0.133l0.164 0.016zm-2.598-0.359h2.234v-1.566c-0.785-0.07-1.519-0.105-2.234-0.113z"/><path d="m40.281 0.316v1.906h2.598v-1.516c-0.855-0.176-1.719-0.309-2.598-0.391" fill="#fff"/><path d="m43.059 2.402h-2.957v-2.285l0.199 0.02c0.867 0.082 1.746 0.211 2.617 0.391l0.141 0.031zm-2.594-0.359h2.231v-1.187c-0.738-0.148-1.488-0.262-2.23-0.34z"/><path d="m45.625 1.402v0.82h2.242c-0.742-0.301-1.48-0.582-2.242-0.82" fill="#fff"/><path d="m47.867 2.402h-2.426v-1.246l0.238 0.074c0.672 0.211 1.387 0.469 2.254 0.824zm-2.062-0.359h1.102c-0.391-0.152-0.754-0.277-1.102-0.391z"/><path d="m50.902 3.727c-0.844-0.484-1.707-0.922-2.602-1.316v3.902h2.602z" fill="#fff"/><path d="m51.082 6.492h-2.961v-4.355l0.254 0.109c0.875 0.383 1.758 0.828 2.617 1.324l0.09 0.051zm-2.598-0.363h2.238v-2.297c-0.738-0.418-1.492-0.801-2.238-1.141z"/><path d="m50.934 3.746v2.563h2.602v-0.867c-0.832-0.609-1.695-1.176-2.602-1.695" fill="#fff"/><path d="m53.719 6.492h-2.965v-3.059l0.273 0.152c0.883 0.512 1.766 1.086 2.617 1.707l0.074 0.059zm-2.602-0.363h2.238v-0.594c-0.73-0.535-1.48-1.027-2.238-1.473z"/><path d="m53.609 5.5v0.809h1.035c-0.34-0.277-0.68-0.547-1.035-0.809" fill="#fff"/><path d="m55.152 6.492h-1.727v-1.355l0.293 0.215c0.348 0.262 0.691 0.527 1.043 0.82z"/><path d="m54.644 6.309h-1.035v4.117h2.598v-2.711c-0.5-0.484-1.02-0.961-1.562-1.406" fill="#fff"/><path d="m56.387 10.609h-2.961v-4.48h1.285l0.051 0.039c0.477 0.395 0.977 0.844 1.57 1.418l0.055 0.051zm-2.598-0.363h2.234v-2.453c-0.539-0.523-1.004-0.937-1.441-1.301h-0.793z"/><path d="m58.957 10.797v3.723h2.383c-0.699-1.312-1.496-2.555-2.383-3.723" fill="#fff"/><path d="m61.644 14.699h-2.867v-4.441l0.324 0.43c0.887 1.172 1.695 2.43 2.398 3.746zm-2.504-0.363h1.895c-0.57-1.039-1.207-2.043-1.894-2.988z"/><path d="m61.59 15.016v3.621h1.5c-0.41-1.258-0.914-2.461-1.5-3.621" fill="#fff"/><path d="m63.34 18.816h-1.934v-3.801l0.344-0.086c0.602 1.191 1.109 2.418 1.512 3.648zm-1.57-0.363h1.07c-0.305-0.895-0.66-1.781-1.07-2.652z"/><path d="m63.086 18.598h-1.496v4.125h2.504c-0.227-1.418-0.566-2.789-1.008-4.125" fill="#fff"/><path d="m64.309 22.906h-2.902v-4.488h1.813l0.039 0.125c0.453 1.375 0.793 2.773 1.016 4.152zm-2.539-0.363h2.109c-0.211-1.25-0.52-2.516-0.926-3.762h-1.184z"/><path d="m63.223 35.012h-1.633v3.996c0.645-1.277 1.199-2.613 1.633-3.996" fill="#fff"/><path d="m61.75 39.09-0.344-0.082v-4.18h2.063l-0.074 0.238c-0.418 1.34-0.973 2.695-1.644 4.023m0.02-3.898v3.031c0.473-1.004 0.879-2.019 1.207-3.031z"/><path d="m58.957 39.09v4.133h0.023c0.977-1.293 1.828-2.68 2.57-4.133z" fill="#fff"/><path d="m59.07 43.406h-0.293v-4.496h3.07l-0.133 0.266c-0.773 1.504-1.644 2.902-2.59 4.156zm0.07-4.133v3.43c0.762-1.055 1.469-2.207 2.113-3.43z"/><path d="m56.281 46.254c0.934-0.906 1.801-1.871 2.598-2.902v-0.129h-2.598z" fill="#fff"/><path d="m56.098 46.684v-3.644h2.961v0.375l-0.035 0.047c-0.785 1.016-1.664 2-2.617 2.922zm0.363-3.277v2.414c0.773-0.773 1.492-1.582 2.145-2.414z"/><path d="m53.609 47.34h1.492c0.383-0.328 0.742-0.668 1.106-1.016v-3.102h-2.598z" fill="#fff"/><path d="m55.172 47.52h-1.746v-4.477h2.961v3.359l-0.055 0.055c-0.34 0.328-0.711 0.68-1.109 1.02zm-1.379-0.363h1.242c0.352-0.301 0.684-0.613 0.988-0.91v-2.844h-2.23z"/><path d="m53.609 47.297v1.242c0.527-0.391 1.043-0.805 1.535-1.242z" fill="#fff"/><path d="m53.426 48.898v-1.785h2.199l-0.359 0.32c-0.477 0.422-1 0.84-1.547 1.25zm0.363-1.422v0.699c0.301-0.23 0.594-0.465 0.871-0.699z"/><path d="m50.934 50.281c0.898-0.523 1.77-1.07 2.602-1.684v-1.301h-2.602z" fill="#fff"/><path d="m50.754 50.598v-3.484h2.965v1.574l-0.074 0.055c-0.742 0.547-1.574 1.086-2.617 1.699zm0.363-3.121v2.488c0.875-0.516 1.59-0.988 2.238-1.461v-1.027z"/><path d="m48.301 51.414h0.449c0.734-0.332 1.453-0.715 2.152-1.113v-3.004h-2.602z" fill="#fff"/><path d="m48.789 51.598h-0.668v-4.484h2.965v3.297l-0.094 0.051c-0.832 0.473-1.523 0.828-2.168 1.121zm-0.305-0.363h0.227c0.602-0.273 1.246-0.605 2.008-1.039v-2.719h-2.234z"/><path d="m26.914 47.297h-2.602v3.004c0.703 0.398 1.418 0.785 2.156 1.113h0.445z" fill="#fff"/><path d="m27.098 51.598-0.703-0.016c-0.645-0.289-1.336-0.648-2.172-1.125l-0.09-0.051v-3.293h2.965zm-0.59-0.363h0.223v-3.758h-2.234v2.719c0.766 0.434 1.41 0.77 2.012 1.039"/><path d="m21.644 48.559c0.828 0.617 1.699 1.18 2.594 1.699v-2.961h-2.594z" fill="#fff"/><path d="m24.422 50.57-0.273-0.16c-0.973-0.559-1.828-1.121-2.613-1.703l-0.07-0.055v-1.539h2.957zm-2.594-2.102c0.676 0.504 1.41 0.984 2.231 1.473v-2.465h-2.23z"/><path d="m21.566 48.5v-1.203h-1.496c0.484 0.418 0.984 0.824 1.496 1.203" fill="#fff"/><path d="m21.746 48.859-0.289-0.215c-0.488-0.359-0.98-0.758-1.504-1.211l-0.367-0.32h2.16zm-1.184-1.383c0.281 0.238 0.551 0.453 0.824 0.66v-0.66z"/><path d="m18.965 46.281c0.375 0.359 0.758 0.715 1.148 1.059h1.453v-4.117h-2.602z" fill="#fff"/><path d="m21.75 47.52h-1.703l-0.051-0.043c-0.348-0.301-0.711-0.641-1.152-1.066l-0.059-0.051v-3.316h2.965zm-1.566-0.363h1.203v-3.754h-2.238v2.801c0.391 0.375 0.723 0.684 1.035 0.953"/><path d="m16.297 43.281c0.789 1.031 1.664 2.016 2.594 2.93v-2.988h-2.594z" fill="#fff"/><path d="m19.074 46.641-0.309-0.301c-0.949-0.934-1.832-1.926-2.613-2.945l-0.035-0.051v-0.305h2.957zm-2.453-3.234c0.641 0.813 1.34 1.609 2.09 2.367v-2.367z"/><path d="m16.254 39.09h-2.57c0.73 1.453 1.586 2.84 2.563 4.133h8e-3z" fill="#fff"/><path d="m16.437 43.406h-0.281l-0.055-0.074c-0.961-1.273-1.832-2.672-2.582-4.16l-0.133-0.262h3.051zm-2.457-4.133c0.625 1.203 1.324 2.348 2.094 3.41v-3.41z"/><path d="m13.586 30.922h-2.5c0.203 1.418 0.527 2.793 0.945 4.125h1.555z" fill="#fff"/><path d="m13.766 35.23h-1.867l-0.039-0.125c-0.437-1.391-0.758-2.785-0.953-4.156l-0.031-0.207h2.891zm-1.598-0.363h1.234v-3.762h-2.109c0.191 1.242 0.484 2.508 0.875 3.762"/><path d="m13.586 38.895v-3.887h-1.562c0.422 1.352 0.945 2.641 1.563 3.887" fill="#fff"/><path d="m13.422 38.977c-0.633-1.281-1.16-2.594-1.57-3.914l-0.074-0.234h1.988v4.066zm-1.148-3.785c0.313 0.973 0.691 1.945 1.129 2.898v-2.898z"/><path d="m13.586 22.723h-2.43c-0.07 0.398-0.125 0.801-0.172 1.215l-0.145 2.922 2.746-0.019z" fill="#fff"/><path d="m10.648 27.039 0.152-3.109c0.047-0.402 0.102-0.82 0.176-1.238l0.027-0.148h2.762v4.481zm0.66-4.133c-0.059 0.359-0.105 0.715-0.145 1.051l-0.133 2.719 2.371-0.016v-3.754z"/><path d="m13.586 22.723v-4.125h-1.418c-0.441 1.336-0.785 2.707-1.012 4.125z" fill="#fff"/><path d="m13.766 22.906h-2.824l0.035-0.211c0.223-1.391 0.57-2.789 1.02-4.152l0.043-0.125h1.727zm-2.394-0.363h2.031v-3.762h-1.102c-0.402 1.238-0.719 2.5-0.93 3.762"/><path d="m13.586 18.633v-3.48c-0.555 1.125-1.035 2.285-1.434 3.481z" fill="#fff"/><path d="m13.766 18.816h-1.867l0.082-0.238c0.391-1.184 0.879-2.363 1.441-3.508l0.344 0.082zm-1.359-0.363h0.996v-2.496c-0.375 0.82-0.711 1.656-0.996 2.496"/><path d="m18.891 10.426v-2.57c-0.824 0.809-1.594 1.668-2.305 2.57z" fill="#fff"/><path d="m19.074 10.609h-2.863l0.23-0.297c0.734-0.926 1.516-1.793 2.324-2.586l0.309-0.301zm-2.113-0.363h1.75v-1.953c-0.602 0.609-1.191 1.266-1.75 1.953"/><path d="m18.965 10.426h2.602v-4.117h-0.953c-0.574 0.469-1.117 0.969-1.648 1.484z" fill="#fff"/><path d="m21.746 10.609h-2.961v-2.891l0.055-0.055c0.621-0.605 1.148-1.078 1.66-1.496l0.051-0.039h1.195zm-2.598-0.363h2.234v-3.754h-0.703c-0.473 0.387-0.961 0.828-1.531 1.379z"/><path d="m21.566 5.563c-0.324 0.242-0.645 0.492-0.953 0.75h0.953z" fill="#fff"/><path d="m21.746 6.492h-1.637l0.391-0.32c0.309-0.258 0.633-0.508 0.957-0.754l0.289-0.219z"/><path d="m21.644 5.5v0.809h2.594v-2.512c-0.902 0.52-1.766 1.082-2.594 1.703" fill="#fff"/><path d="m24.422 6.492h-2.957v-1.082l0.07-0.055c0.797-0.602 1.652-1.164 2.613-1.719l0.273-0.156zm-2.594-0.363h2.231v-2.019c-0.812 0.48-1.543 0.969-2.23 1.481z"/><path d="m26.914 2.434c-0.895 0.395-1.766 0.836-2.602 1.316v2.559h2.602z" fill="#fff"/><path d="m27.094 6.492h-2.961v-2.848l0.09-0.051c0.863-0.496 1.746-0.941 2.617-1.324l0.254-0.113zm-2.598-0.363h2.238v-3.414c-0.75 0.336-1.5 0.723-2.238 1.141z"/><path d="m26.949 6.309h2.598v-4.121h-2.055c-0.176 0.078-0.359 0.152-0.543 0.23z" fill="#fff"/><path d="m29.727 6.492h-2.961v-4.195l0.727-0.289h2.234zm-2.598-0.363h2.234v-3.758h-1.832l-0.402 0.168z"/><path d="m64.191 23.359c-0.031-0.219-0.062-0.426-0.098-0.633h-2.504v4.113l2.848 0.031z" fill="#fff"/><path d="m64.629 27.047-3.215-0.031v-4.469h2.828l0.027 0.148c0.023 0.156 0.047 0.313 0.07 0.473l0.027 0.168zm-2.863-0.379 2.484 0.023-0.258-3.469c-0.016-0.109-0.031-0.215-0.047-0.324h-2.18z"/><path d="m61.59 30.922v4.125h1.621c0.422-1.332 0.742-2.707 0.949-4.125z" fill="#fff"/><path d="m63.344 35.23h-1.937v-4.488h2.961l-0.031 0.207c-0.203 1.402-0.523 2.797-0.953 4.156zm-1.574-0.363h1.309c0.383-1.23 0.672-2.496 0.871-3.762h-2.18z"/><path d="m61.555 35.012h-2.598v4.117h2.57c8e-3 -0.016 0.02-0.039 0.027-0.055z" fill="#fff"/><path d="m61.633 39.312h-2.855v-4.484h2.957l-0.019 4.328zm-2.492-0.363h2.231v-3.758h-2.23z"/><path d="m13.703 39.129h2.551v-4.117h-2.605v4.023c0.02 0.027 0.035 0.055 0.055 0.094" fill="#fff"/><path d="m16.434 39.312h-2.84l-0.051-0.098c-0.016-0.027-0.023-0.051-0.039-0.066l-0.035-0.051v-4.269h2.965zm-2.602-0.363h2.242v-3.758h-2.242z"/><path d="m11.086 30.922h2.5v-4.113l-2.746 4e-3 0.145 3.207c0.031 0.301 0.059 0.605 0.102 0.902" fill="#fff"/><path d="m13.766 31.105h-2.836l-0.027-0.156c-0.027-0.199-0.047-0.406-0.07-0.609l-0.027-0.301-0.152-3.406 3.113-4e-3zm-2.523-0.363h2.16v-3.754l-2.371 8e-3 0.164 3.309c0.016 0.145 0.031 0.293 0.047 0.438"/><g fill="#dc2f34"><path d="m66.98 55.832v-1.105l-59.262 0.035v2.231l59.262-0.043z"/><path d="m65.07 20.191c-5.496 0-9.691 2.863-9.691 7.84 0 4.195 3.824 7.164 8.949 7.164 3.898 0 7.129-2.82 8.055-4.605 0-0.551-0.559-0.781-1.07-0.781-0.898 1.375-3.418 2.418-4.457 2.379-6.203-0.227-7.207-2.711-7.281-5.309-0.117-2.82 2.934-5.277 5.535-5.086 1.516 0.105 2.043 2.59 3.371 3.484 0.418 0.23 1.379 0.188 2.012 0.078 0.484-0.078 1.777-0.371 1.777-1.488 0-0.926-1.152-1.969-2.262-2.633-1.109-0.52-3.602-1.043-4.937-1.043"/><path d="m28.398 30.961c0 2.301-0.59 3.527-2.449 3.633l0.047 0.379c3.109-0.035 6.273 0 9.309-0.07l0.035-0.195c-1.402 0-2.484-1.484-2.484-3.332v-6.203c0-1.527 1.856-2.492 3.117-2.379 1.965 0.184 3.047 1.445 3.047 2.563v6.09c0 1.856-0.559 3.008-2.004 3.113v0.344h8.535v-0.262c-1.266-0.152-2.152-1.309-2.152-3.047v-6.391c0-1.371 1.188-2.301 3.309-2.332 1.856-0.039 2.965 1.336 2.965 2.637v5.789c0 1.965-0.594 3.191-2.074 3.344v0.262c3.117 0.035 5.676 0.035 8.758 0v-0.195c-1.629 0-2.187-1.07-2.187-3.332v-6.391c0-2.113-1.152-4.641-4.379-4.641-2.191 0-3.797 1.07-4.715 1.379-0.633 0.25-1.078 0.551-1.23 0.551-0.289 0-0.621-0.184-1.035-0.629-0.781-0.824-2.191-1.301-3.68-1.301-1.894 0-3.789 1.07-4.684 1.379-0.102 0.031-0.766 0.367-0.848 0.367-0.148 0-0.742 0-0.742-0.074 0-1.781 0.113-0.895 0.039-2.156h-1.227c-0.367 0-1.008 0.672-1.746 0.961-0.891 0.379-2.676 0.34-3.41 0.527v1.258l1.922 0.371v2.453z"/><path d="m20.047 34.938c3.27-0.156 6.422-0.855 6.422-4.016 0-2.293-2.523-3.746-5.195-4.898-1.715-0.703-4.195-1.746-4.195-2.562 0-0.965 1.891-2.82 3.711-1.336l3.156 2.637 1.449-0.301-0.812-3.93c-0.746 0.035-1.266 0.074-3.98-0.379-3.344-0.477-7.312 1.195-7.312 4.309 0 2.086 3.012 3.527 5.391 4.496 1.297 0.555 3.602 1.375 3.602 2.637 0 1.219-2.16 1.559-3.383 1.559-2.078 0-4.387-2.785-4.387-2.785h-1.367l0.742 4.164c0.254-0.227 1.188-0.195 1.375-0.113 0.668 0.254 3.078 0.633 4.785 0.52"/><path d="m12.172 22.312v-1.934l-4.043 0.039c-0.516 0-0.484-0.109-0.484-0.781l0.039-2.637-2.043-0.035c-0.625 1.41-1.406 2.34-1.852 2.523l-3.789 1.672v1.188l1.418 0.035c0.629 0 0.887-0.035 0.887 0.707v7.832c0 2.379 1.297 4.125 4.648 4.203 2.512 0.066 4.043-1.043 5.113-2.086l-0.297-1.004c-0.449 0.301-0.812 0.563-1.41 0.563-2.859 0-2.781-2.23-2.781-4.199v-5.309c0-0.777 0.066-0.777 0.59-0.777z"/></g></g><g transform="translate(-790.45 -228.24)" fill="#fff"><use x="506.368" y="719.336" xlink:href="#glyph-2-5"/></g></svg>