<?xml version="1.0" encoding="UTF-8"?>
<svg width="100pt" height="78.737pt" version="1.1" viewBox="0 0 100 78.737" xmlns="http://www.w3.org/2000/svg" xmlns:xlink="http://www.w3.org/1999/xlink">
 <defs></defs>
 <g transform="scale(1.3815)">
  <path d="m48.641 51.676h-11.273l-10.973-0.0977c-9.5859-4.3789-15.773-14.02-15.773-24.559 0-14.898 12.121-27.016 27.023-27.016 14.875 0 26.98 12.117 26.98 27.016 0 10.598-6.2617 20.27-15.945 24.641zm-22.133-0.4375 10.859 0.082h11.199c9.5391-4.3242 15.699-13.855 15.699-24.301 0-14.699-11.941-26.656-26.621-26.656-14.703 0-26.668 11.957-26.668 26.656 0 10.387 6.0976 19.891 15.531 24.219"/>
  <path d="m16.254 14.516v-3.6758c-0.87109 1.1602-1.6523 2.3867-2.3438 3.6758z" fill="#fff"/>
  <path d="m16.437 14.699h-2.8281l0.14062-0.26563c0.69532-1.3008 1.4883-2.5469 2.3594-3.7031l0.32812-0.42969zm-2.2226-0.36328h1.8594v-2.9414c-0.67578 0.92969-1.2969 1.918-1.8594 2.9414"/>
  <path d="m56.281 7.7891v2.6367h2.3867c-0.73828-0.92969-1.5312-1.8086-2.3867-2.6367" fill="#fff"/>
  <path d="m59.043 10.609h-2.9453v-3.25l0.30859 0.30078c0.85938 0.83203 1.668 1.7226 2.4024 2.6523zm-2.5781-0.36329h1.8242c-0.57032-0.70312-1.1836-1.3789-1.8242-2.0234z"/>
  <path d="m42.949 0.71875v1.5039h2.6094v-0.83594c-0.85547-0.26953-1.7266-0.49609-2.6094-0.66797" fill="#fff"/>
  <path d="m45.738 2.4023h-2.9688v-1.9062l0.21484 0.043c0.85937 0.16797 1.7422 0.39453 2.6289 0.67578l0.125 0.0391zm-2.6055-0.35937h2.2461v-0.52344c-0.75781-0.23437-1.5117-0.42969-2.2461-0.58203z"/>
  <path d="m21.566 14.52h-2.5977v-4.125h2.5977z" fill="#fff"/>
  <path d="m21.746 14.699h-2.9609v-4.4883h2.9609zm-2.5977-0.36328h2.2344v-3.7617h-2.2344z"/>
  <path d="m21.566 18.633h-2.5977v-4.1172h2.5977z" fill="#fff"/>
  <path d="m21.746 18.816h-2.9609v-4.4805h2.9609zm-2.5977-0.36328h2.2344v-3.7539h-2.2344z"/>
  <path d="m21.566 22.727h-2.5977v-4.125h2.5977z" fill="#fff"/>
  <path d="m21.746 22.906h-2.9609v-4.4883h2.9609zm-2.5977-0.36328h2.2344v-3.7617h-2.2344z"/>
  <path d="m21.566 26.84h-2.5977v-4.1133h2.5977z" fill="#fff"/>
  <path d="m21.746 27.023h-2.9609v-4.4805h2.9609zm-2.5977-0.36328h2.2344v-3.7539h-2.2344z"/>
  <path d="m21.566 30.922h-2.5977v-4.1133h2.5977z" fill="#fff"/>
  <path d="m21.746 31.105h-2.9609v-4.4766h2.9609zm-2.5977-0.36328h2.2344v-3.7539h-2.2344z"/>
  <path d="m21.566 35.047h-2.5977v-4.125h2.5977z" fill="#fff"/>
  <path d="m21.746 35.23h-2.9609v-4.4883h2.9609zm-2.5977-0.36328h2.2344v-3.7617h-2.2344z"/>
  <path d="m21.566 39.129h-2.5977v-4.1172h2.5977z" fill="#fff"/>
  <path d="m21.746 39.312h-2.9609v-4.4844h2.9609zm-2.5977-0.36328h2.2344v-3.7578h-2.2344z"/>
  <path d="m21.566 43.223h-2.5977v-4.1328h2.5977z" fill="#fff"/>
  <path d="m21.746 43.406h-2.9609v-4.4961h2.9609zm-2.5977-0.36328h2.2344v-3.7695h-2.2344z"/>
  <path d="m18.894 18.633h-2.5938v-4.1172h2.5938z" fill="#fff"/>
  <path d="m19.074 18.816h-2.957v-4.4805h2.957zm-2.5938-0.36328h2.2305v-3.7539h-2.2305z"/>
  <path d="m18.894 22.727h-2.5938v-4.125h2.5938z" fill="#fff"/>
  <path d="m19.074 22.906h-2.957v-4.4883h2.957zm-2.5938-0.36328h2.2305v-3.7617h-2.2305z"/>
  <path d="m18.894 26.84h-2.5938v-4.1133h2.5938z" fill="#fff"/>
  <path d="m19.074 27.023h-2.957v-4.4805h2.957zm-2.5938-0.36328h2.2305v-3.7539h-2.2305z"/>
  <path d="m18.894 30.922h-2.5938v-4.1133h2.5938z" fill="#fff"/>
  <path d="m19.074 31.105h-2.957v-4.4766h2.957zm-2.5938-0.36328h2.2305v-3.7539h-2.2305z"/>
  <path d="m18.894 35.047h-2.5938v-4.125h2.5938z" fill="#fff"/>
  <path d="m19.074 35.23h-2.957v-4.4883h2.957zm-2.5938-0.36328h2.2305v-3.7617h-2.2305z"/>
  <path d="m18.894 39.129h-2.5938v-4.1172h2.5938z" fill="#fff"/>
  <path d="m19.074 39.312h-2.957v-4.4844h2.957zm-2.5938-0.36328h2.2305v-3.7578h-2.2305z"/>
  <path d="m18.894 43.223h-2.5938v-4.1328h2.5938z" fill="#fff"/>
  <path d="m19.074 43.406h-2.957v-4.4961h2.957zm-2.5938-0.36328h2.2305v-3.7695h-2.2305z"/>
  <path d="m16.254 22.727h-2.6055v-4.125h2.6055z" fill="#fff"/>
  <path d="m16.434 22.906h-2.9648v-4.4883h2.9648zm-2.6055-0.36328h2.2422v-3.7617h-2.2422z"/>
  <path d="m16.254 26.84h-2.6055v-4.1133h2.6055z" fill="#fff"/>
  <path d="m16.434 27.023h-2.9648v-4.4805h2.9648zm-2.6055-0.36328h2.2422v-3.7539h-2.2422z"/>
  <path d="m16.254 30.922h-2.6055v-4.1133h2.6055z" fill="#fff"/>
  <path d="m16.434 31.105h-2.9648v-4.4766h2.9648zm-2.6055-0.36328h2.2422v-3.7539h-2.2422z"/>
  <path d="m16.254 35.047h-2.6055v-4.125h2.6055z" fill="#fff"/>
  <path d="m16.434 35.23h-2.9648v-4.4883h2.9648zm-2.6055-0.36328h2.2422v-3.7617h-2.2422z"/>
  <path d="m24.242 10.426h-2.5976v-4.1172h2.5976z" fill="#fff"/>
  <path d="m24.422 10.609h-2.957v-4.4805h2.957zm-2.5977-0.36329h2.2344v-3.7539h-2.2344z"/>
  <path d="m24.242 14.52h-2.5976v-4.125h2.5976z" fill="#fff"/>
  <path d="m24.422 14.699h-2.957v-4.4883h2.957zm-2.5977-0.36328h2.2344v-3.7617h-2.2344z"/>
  <path d="m24.242 18.633h-2.5976v-4.1172h2.5976z" fill="#fff"/>
  <path d="m24.422 18.816h-2.957v-4.4805h2.957zm-2.5977-0.36328h2.2344v-3.7539h-2.2344z"/>
  <path d="m24.242 22.727h-2.5976v-4.125h2.5976z" fill="#fff"/>
  <path d="m24.422 22.906h-2.957v-4.4883h2.957zm-2.5977-0.36328h2.2344v-3.7617h-2.2344z"/>
  <path d="m24.242 26.84h-2.5976v-4.1133h2.5976z" fill="#fff"/>
  <path d="m24.422 27.023h-2.957v-4.4805h2.957zm-2.5977-0.36328h2.2344v-3.7539h-2.2344z"/>
  <path d="m24.242 30.922h-2.5976v-4.1133h2.5976z" fill="#fff"/>
  <path d="m24.422 31.105h-2.957v-4.4766h2.957zm-2.5977-0.36328h2.2344v-3.7539h-2.2344z"/>
  <path d="m24.242 35.047h-2.5976v-4.125h2.5976z" fill="#fff"/>
  <path d="m24.422 35.23h-2.957v-4.4883h2.957zm-2.5977-0.36328h2.2344v-3.7617h-2.2344z"/>
  <path d="m24.242 39.129h-2.5976v-4.1172h2.5976z" fill="#fff"/>
  <path d="m24.422 39.312h-2.957v-4.4844h2.957zm-2.5977-0.36328h2.2344v-3.7578h-2.2344z"/>
  <path d="m24.242 43.223h-2.5976v-4.1328h2.5976z" fill="#fff"/>
  <path d="m24.422 43.406h-2.957v-4.4961h2.957zm-2.5977-0.36328h2.2344v-3.7695h-2.2344z"/>
  <path d="m24.242 47.34h-2.5976v-4.1172h2.5976z" fill="#fff"/>
  <g>
   <path d="m24.422 47.523h-2.957v-4.4805h2.957zm-2.5977-0.36328h2.2344v-3.7539h-2.2344z"/>
   <path d="m26.914 10.426h-2.6016v-4.1172h2.6016z"/>
   <path d="m27.098 10.609h-2.9648v-4.4805h2.9648zm-2.6016-0.36329h2.2344v-3.7539h-2.2344z"/>
  </g>
  <path d="m26.914 14.52h-2.6016v-4.125h2.6016z" fill="#fff"/>
  <path d="m27.098 14.699h-2.9648v-4.4883h2.9648zm-2.6016-0.36328h2.2344v-3.7617h-2.2344z"/>
  <path d="m26.914 18.633h-2.6016v-4.1172h2.6016z" fill="#fff"/>
  <path d="m27.098 18.816h-2.9648v-4.4805h2.9648zm-2.6016-0.36328h2.2344v-3.7539h-2.2344z"/>
  <path d="m26.914 22.727h-2.6016v-4.125h2.6016z" fill="#fff"/>
  <path d="m27.098 22.906h-2.9648v-4.4883h2.9648zm-2.6016-0.36328h2.2344v-3.7617h-2.2344z"/>
  <path d="m26.914 26.84h-2.6016v-4.1133h2.6016z" fill="#fff"/>
  <path d="m27.098 27.023h-2.9648v-4.4805h2.9648zm-2.6016-0.36328h2.2344v-3.7539h-2.2344z"/>
  <path d="m26.914 30.922h-2.6016v-4.1133h2.6016z" fill="#fff"/>
  <path d="m27.098 31.105h-2.9648v-4.4766h2.9648zm-2.6016-0.36328h2.2344v-3.7539h-2.2344z"/>
  <path d="m26.914 35.047h-2.6016v-4.125h2.6016z" fill="#fff"/>
  <path d="m27.098 35.23h-2.9648v-4.4883h2.9648zm-2.6016-0.36328h2.2344v-3.7617h-2.2344z"/>
  <path d="m26.914 39.129h-2.6016v-4.1172h2.6016z" fill="#fff"/>
  <path d="m27.098 39.312h-2.9648v-4.4844h2.9648zm-2.6016-0.36328h2.2344v-3.7578h-2.2344z"/>
  <path d="m26.914 43.223h-2.6016v-4.1328h2.6016z" fill="#fff"/>
  <g>
   <path d="m27.098 43.406h-2.9648v-4.4961h2.9648zm-2.6016-0.36328h2.2344v-3.7695h-2.2344z"/>
   <path d="m26.914 47.34h-2.6016v-4.1172h2.6016z"/>
   <path d="m27.098 47.523h-2.9648v-4.4805h2.9648zm-2.6016-0.36328h2.2344v-3.7539h-2.2344z"/>
  </g>
  <path d="m29.547 10.426h-2.5977v-4.1172h2.5977z" fill="#fff"/>
  <g>
   <path d="m29.727 10.609h-2.957v-4.4805h2.957zm-2.5938-0.36329h2.2305v-3.7539h-2.2305z"/>
   <path d="m29.547 14.52h-2.5977v-4.125h2.5977z"/>
   <path d="m29.727 14.699h-2.957v-4.4883h2.957zm-2.5938-0.36328h2.2305v-3.7617h-2.2305z"/>
  </g>
  <path d="m29.547 18.633h-2.5977v-4.1172h2.5977z" fill="#fff"/>
  <path d="m29.727 18.816h-2.957v-4.4805h2.957zm-2.5938-0.36328h2.2305v-3.7539h-2.2305z"/>
  <path d="m29.547 22.727h-2.5977v-4.125h2.5977z" fill="#fff"/>
  <path d="m29.727 22.906h-2.957v-4.4883h2.957zm-2.5938-0.36328h2.2305v-3.7617h-2.2305z"/>
  <path d="m29.547 26.84h-2.5977v-4.1133h2.5977z" fill="#fff"/>
  <path d="m29.727 27.023h-2.957v-4.4805h2.957zm-2.5938-0.36328h2.2305v-3.7539h-2.2305z"/>
  <path d="m29.547 30.922h-2.5977v-4.1133h2.5977z" fill="#fff"/>
  <path d="m29.727 31.105h-2.957v-4.4766h2.957zm-2.5938-0.36328h2.2305v-3.7539h-2.2305z"/>
  <path d="m29.547 35.047h-2.5977v-4.125h2.5977z" fill="#fff"/>
  <path d="m29.727 35.23h-2.957v-4.4883h2.957zm-2.5938-0.36328h2.2305v-3.7617h-2.2305z"/>
  <path d="m29.547 39.129h-2.5977v-4.1172h2.5977z" fill="#fff"/>
  <g>
   <path d="m29.727 39.312h-2.957v-4.4844h2.957zm-2.5938-0.36328h2.2305v-3.7578h-2.2305z"/>
   <path d="m29.547 43.223h-2.5977v-4.1328h2.5977z"/>
   <path d="m29.727 43.406h-2.957v-4.4961h2.957zm-2.5938-0.36328h2.2305v-3.7695h-2.2305z"/>
  </g>
  <path d="m29.547 47.34h-2.5977v-4.1172h2.5977z" fill="#fff"/>
  <g>
   <path d="m29.727 47.523h-2.957v-4.4805h2.957zm-2.5938-0.36328h2.2305v-3.7539h-2.2305z"/>
   <path d="m29.547 51.414h-2.5977v-4.1172h2.5977z"/>
   <path d="m29.727 51.598h-2.957v-4.4844h2.957zm-2.5938-0.36328h2.2305v-3.7539h-2.2305z"/>
  </g>
  <path d="m32.223 10.426h-2.6016v-4.1172h2.6016z" fill="#fff"/>
  <path d="m32.402 10.609h-2.9648v-4.4805h2.9648zm-2.6016-0.36329h2.2422v-3.7539h-2.2422z"/>
  <path d="m32.223 6.3086h-2.6016v-4.1172h2.6016z" fill="#fff"/>
  <path d="m32.402 6.4922h-2.9648v-4.4844h2.9648zm-2.6016-0.36328h2.2422v-3.7578h-2.2422z"/>
  <path d="m32.223 14.52h-2.6016v-4.125h2.6016z" fill="#fff"/>
  <path d="m32.402 14.699h-2.9648v-4.4883h2.9648zm-2.6016-0.36328h2.2422v-3.7617h-2.2422z"/>
  <path d="m32.223 18.633h-2.6016v-4.1172h2.6016z" fill="#fff"/>
  <path d="m32.402 18.816h-2.9648v-4.4805h2.9648zm-2.6016-0.36328h2.2422v-3.7539h-2.2422z"/>
  <path d="m32.223 22.727h-2.6016v-4.125h2.6016z" fill="#fff"/>
  <path d="m32.402 22.906h-2.9648v-4.4883h2.9648zm-2.6016-0.36328h2.2422v-3.7617h-2.2422z"/>
  <path d="m32.223 26.84h-2.6016v-4.1133h2.6016z" fill="#fff"/>
  <path d="m32.402 27.023h-2.9648v-4.4805h2.9648zm-2.6016-0.36328h2.2422v-3.7539h-2.2422z"/>
  <path d="m32.223 30.922h-2.6016v-4.1133h2.6016z" fill="#fff"/>
  <path d="m32.402 31.105h-2.9648v-4.4766h2.9648zm-2.6016-0.36328h2.2422v-3.7539h-2.2422z"/>
  <path d="m32.223 35.047h-2.6016v-4.125h2.6016z" fill="#fff"/>
  <path d="m32.402 35.23h-2.9648v-4.4883h2.9648zm-2.6016-0.36328h2.2422v-3.7617h-2.2422z"/>
  <path d="m32.223 39.129h-2.6016v-4.1172h2.6016z" fill="#fff"/>
  <path d="m32.402 39.312h-2.9648v-4.4844h2.9648zm-2.6016-0.36328h2.2422v-3.7578h-2.2422z"/>
  <path d="m32.223 43.223h-2.6016v-4.1328h2.6016z" fill="#fff"/>
  <g>
   <path d="m32.402 43.406h-2.9648v-4.4961h2.9648zm-2.6016-0.36328h2.2422v-3.7695h-2.2422z"/>
   <path d="m32.223 47.34h-2.6016v-4.1172h2.6016z"/>
   <path d="m32.402 47.523h-2.9648v-4.4805h2.9648zm-2.6016-0.36328h2.2422v-3.7539h-2.2422z"/>
  </g>
  <path d="m32.223 51.414h-2.6016v-4.1172h2.6016z" fill="#fff"/>
  <path d="m32.402 51.598h-2.9648v-4.4844h2.9648zm-2.6016-0.36328h2.2422v-3.7539h-2.2422z"/>
  <path d="m34.894 10.426h-2.5977v-4.1172h2.5977z" fill="#fff"/>
  <path d="m35.074 10.609h-2.957v-4.4805h2.957zm-2.5938-0.36329h2.2344v-3.7539h-2.2344z"/>
  <path d="m34.894 6.3086h-2.5977v-4.1172h2.5977z" fill="#fff"/>
  <path d="m35.074 6.4922h-2.957v-4.4844h2.957zm-2.5938-0.36328h2.2344v-3.7578h-2.2344z"/>
  <path d="m34.894 14.52h-2.5977v-4.125h2.5977z" fill="#fff"/>
  <path d="m35.074 14.699h-2.957v-4.4883h2.957zm-2.5938-0.36328h2.2344v-3.7617h-2.2344z"/>
  <path d="m34.894 18.633h-2.5977v-4.1172h2.5977z" fill="#fff"/>
  <path d="m35.074 18.816h-2.957v-4.4805h2.957zm-2.5938-0.36328h2.2344v-3.7539h-2.2344z"/>
  <path d="m34.894 22.727h-2.5977v-4.125h2.5977z" fill="#fff"/>
  <path d="m35.074 22.906h-2.957v-4.4883h2.957zm-2.5938-0.36328h2.2344v-3.7617h-2.2344z"/>
  <path d="m34.894 26.84h-2.5977v-4.1133h2.5977z" fill="#fff"/>
  <path d="m35.074 27.023h-2.957v-4.4805h2.957zm-2.5938-0.36328h2.2344v-3.7539h-2.2344z"/>
  <path d="m34.894 30.922h-2.5977v-4.1133h2.5977z" fill="#fff"/>
  <path d="m35.074 31.105h-2.957v-4.4766h2.957zm-2.5938-0.36328h2.2344v-3.7539h-2.2344z"/>
  <path d="m34.894 35.047h-2.5977v-4.125h2.5977z" fill="#fff"/>
  <path d="m35.074 35.23h-2.957v-4.4883h2.957zm-2.5938-0.36328h2.2344v-3.7617h-2.2344z"/>
  <path d="m34.894 39.129h-2.5977v-4.1172h2.5977z" fill="#fff"/>
  <path d="m35.074 39.312h-2.957v-4.4844h2.957zm-2.5938-0.36328h2.2344v-3.7578h-2.2344z"/>
  <path d="m34.894 43.223h-2.5977v-4.1328h2.5977z" fill="#fff"/>
  <path d="m35.074 43.406h-2.957v-4.4961h2.957zm-2.5938-0.36328h2.2344v-3.7695h-2.2344z"/>
  <path d="m34.894 47.34h-2.5977v-4.1172h2.5977z" fill="#fff"/>
  <path d="m35.074 47.523h-2.957v-4.4805h2.957zm-2.5938-0.36328h2.2344v-3.7539h-2.2344z"/>
  <path d="m34.894 51.414h-2.5977v-4.1172h2.5977z" fill="#fff"/>
  <path d="m35.074 51.598h-2.957v-4.4844h2.957zm-2.5938-0.36328h2.2344v-3.7539h-2.2344z"/>
  <path d="m37.57 10.426h-2.5977v-4.1172h2.5977z" fill="#fff"/>
  <g>
   <path d="m37.754 10.609h-2.9648v-4.4805h2.9648zm-2.6016-0.36329h2.2383v-3.7539h-2.2383z"/>
   <path d="m37.57 6.3086h-2.5977v-4.1172h2.5977z"/>
   <path d="m37.754 6.4922h-2.9648v-4.4844h2.9648zm-2.6016-0.36328h2.2383v-3.7578h-2.2383z"/>
  </g>
  <path d="m37.57 14.52h-2.5977v-4.125h2.5977z" fill="#fff"/>
  <path d="m37.754 14.699h-2.9648v-4.4883h2.9648zm-2.6016-0.36328h2.2383v-3.7617h-2.2383z"/>
  <path d="m37.57 18.633h-2.5977v-4.1172h2.5977z" fill="#fff"/>
  <path d="m37.754 18.816h-2.9648v-4.4805h2.9648zm-2.6016-0.36328h2.2383v-3.7539h-2.2383z"/>
  <path d="m37.57 22.727h-2.5977v-4.125h2.5977z" fill="#fff"/>
  <path d="m37.754 22.906h-2.9648v-4.4883h2.9648zm-2.6016-0.36328h2.2383v-3.7617h-2.2383z"/>
  <path d="m37.57 26.84h-2.5977v-4.1133h2.5977z" fill="#fff"/>
  <path d="m37.754 27.023h-2.9648v-4.4805h2.9648zm-2.6016-0.36328h2.2383v-3.7539h-2.2383z"/>
  <path d="m37.57 30.922h-2.5977v-4.1133h2.5977z" fill="#fff"/>
  <path d="m37.754 31.105h-2.9648v-4.4766h2.9648zm-2.6016-0.36328h2.2383v-3.7539h-2.2383z"/>
  <path d="m37.57 35.047h-2.5977v-4.125h2.5977z" fill="#fff"/>
  <path d="m37.754 35.23h-2.9648v-4.4883h2.9648zm-2.6016-0.36328h2.2383v-3.7617h-2.2383z"/>
  <path d="m37.57 39.129h-2.5977v-4.1172h2.5977z" fill="#fff"/>
  <path d="m37.754 39.312h-2.9648v-4.4844h2.9648zm-2.6016-0.36328h2.2383v-3.7578h-2.2383z"/>
  <path d="m37.57 43.223h-2.5977v-4.1328h2.5977z" fill="#fff"/>
  <path d="m37.754 43.406h-2.9648v-4.4961h2.9648zm-2.6016-0.36328h2.2383v-3.7695h-2.2383z"/>
  <path d="m37.57 47.34h-2.5977v-4.1172h2.5977z" fill="#fff"/>
  <path d="m37.754 47.523h-2.9648v-4.4805h2.9648zm-2.6016-0.36328h2.2383v-3.7539h-2.2383z"/>
  <path d="m37.57 51.414h-2.5977v-4.1172h2.5977z" fill="#fff"/>
  <path d="m37.754 51.598h-2.9648v-4.4844h2.9648zm-2.6016-0.36328h2.2383v-3.7539h-2.2383z"/>
  <path d="m40.238 10.426h-2.5938v-4.1172h2.5938z" fill="#fff"/>
  <path d="m40.422 10.609h-2.957v-4.4805h2.957zm-2.5977-0.36329h2.2344v-3.7539h-2.2344z"/>
  <path d="m40.238 6.3086h-2.5938v-4.1172h2.5938z" fill="#fff"/>
  <path d="m40.422 6.4922h-2.957v-4.4844h2.957zm-2.5977-0.36328h2.2344v-3.7578h-2.2344z"/>
  <path d="m40.238 14.52h-2.5938v-4.125h2.5938z" fill="#fff"/>
  <path d="m40.422 14.699h-2.957v-4.4883h2.957zm-2.5977-0.36328h2.2344v-3.7617h-2.2344z"/>
  <path d="m40.238 18.633h-2.5938v-4.1172h2.5938z" fill="#fff"/>
  <path d="m40.422 18.816h-2.957v-4.4805h2.957zm-2.5977-0.36328h2.2344v-3.7539h-2.2344z"/>
  <path d="m40.238 22.727h-2.5938v-4.125h2.5938z" fill="#fff"/>
  <path d="m40.422 22.906h-2.957v-4.4883h2.957zm-2.5977-0.36328h2.2344v-3.7617h-2.2344z"/>
  <path d="m40.238 26.84h-2.5938v-4.1133h2.5938z" fill="#fff"/>
  <path d="m40.422 27.023h-2.957v-4.4805h2.957zm-2.5977-0.36328h2.2344v-3.7539h-2.2344z"/>
  <path d="m40.238 30.922h-2.5938v-4.1133h2.5938z" fill="#fff"/>
  <path d="m40.422 31.105h-2.957v-4.4766h2.957zm-2.5977-0.36328h2.2344v-3.7539h-2.2344z"/>
  <path d="m40.238 35.047h-2.5938v-4.125h2.5938z" fill="#fff"/>
  <path d="m40.422 35.23h-2.957v-4.4883h2.957zm-2.5977-0.36328h2.2344v-3.7617h-2.2344z"/>
  <path d="m40.238 39.129h-2.5938v-4.1172h2.5938z" fill="#fff"/>
  <g>
   <path d="m40.422 39.312h-2.957v-4.4844h2.957zm-2.5977-0.36328h2.2344v-3.7578h-2.2344z"/>
   <path d="m40.238 43.223h-2.5938v-4.1328h2.5938z"/>
   <path d="m40.422 43.406h-2.957v-4.4961h2.957zm-2.5977-0.36328h2.2344v-3.7695h-2.2344z"/>
  </g>
  <path d="m40.238 47.34h-2.5938v-4.1172h2.5938z" fill="#fff"/>
  <path d="m40.422 47.523h-2.957v-4.4805h2.957zm-2.5977-0.36328h2.2344v-3.7539h-2.2344z"/>
  <path d="m40.238 51.414h-2.5938v-4.1172h2.5938z" fill="#fff"/>
  <path d="m40.422 51.598h-2.957v-4.4844h2.957zm-2.5977-0.36328h2.2344v-3.7539h-2.2344z"/>
  <path d="m42.879 10.426h-2.5938v-4.1172h2.5938z" fill="#fff"/>
  <path d="m43.059 10.609h-2.957v-4.4805h2.957zm-2.5938-0.36329h2.2305v-3.7539h-2.2305z"/>
  <path d="m42.879 6.3086h-2.5938v-4.1172h2.5938z" fill="#fff"/>
  <path d="m43.059 6.4922h-2.957v-4.4844h2.957zm-2.5938-0.36328h2.2305v-3.7578h-2.2305z"/>
  <path d="m42.879 14.52h-2.5938v-4.125h2.5938z" fill="#fff"/>
  <path d="m43.059 14.699h-2.957v-4.4883h2.957zm-2.5938-0.36328h2.2305v-3.7617h-2.2305z"/>
  <path d="m42.879 18.633h-2.5938v-4.1172h2.5938z" fill="#fff"/>
  <path d="m43.059 18.816h-2.957v-4.4805h2.957zm-2.5938-0.36328h2.2305v-3.7539h-2.2305z"/>
  <path d="m42.879 22.727h-2.5938v-4.125h2.5938z" fill="#fff"/>
  <path d="m43.059 22.906h-2.957v-4.4883h2.957zm-2.5938-0.36328h2.2305v-3.7617h-2.2305z"/>
  <path d="m42.879 26.84h-2.5938v-4.1133h2.5938z" fill="#fff"/>
  <path d="m43.059 27.023h-2.957v-4.4805h2.957zm-2.5938-0.36328h2.2305v-3.7539h-2.2305z"/>
  <path d="m42.879 30.922h-2.5938v-4.1133h2.5938z" fill="#fff"/>
  <path d="m43.059 31.105h-2.957v-4.4766h2.957zm-2.5938-0.36328h2.2305v-3.7539h-2.2305z"/>
  <path d="m42.879 35.047h-2.5938v-4.125h2.5938z" fill="#fff"/>
  <path d="m43.059 35.23h-2.957v-4.4883h2.957zm-2.5938-0.36328h2.2305v-3.7617h-2.2305z"/>
  <path d="m42.879 39.129h-2.5938v-4.1172h2.5938z" fill="#fff"/>
  <path d="m43.059 39.312h-2.957v-4.4844h2.957zm-2.5938-0.36328h2.2305v-3.7578h-2.2305z"/>
  <path d="m42.879 43.223h-2.5938v-4.1328h2.5938z" fill="#fff"/>
  <path d="m43.059 43.406h-2.957v-4.4961h2.957zm-2.5938-0.36328h2.2305v-3.7695h-2.2305z"/>
  <path d="m42.879 47.34h-2.5938v-4.1172h2.5938z" fill="#fff"/>
  <path d="m43.059 47.523h-2.957v-4.4805h2.957zm-2.5938-0.36328h2.2305v-3.7539h-2.2305z"/>
  <path d="m42.879 51.414h-2.5938v-4.1172h2.5938z" fill="#fff"/>
  <path d="m43.059 51.598h-2.957v-4.4844h2.957zm-2.5938-0.36328h2.2305v-3.7539h-2.2305z"/>
  <path d="m45.559 10.426h-2.6094v-4.1172h2.6094z" fill="#fff"/>
  <path d="m45.742 10.609h-2.9726v-4.4805h2.9726zm-2.6094-0.36329h2.2461v-3.7539h-2.2461z"/>
  <path d="m45.559 6.3086h-2.6094v-4.1172h2.6094z" fill="#fff"/>
  <path d="m45.742 6.4922h-2.9726v-4.4844h2.9726zm-2.6094-0.36328h2.2461v-3.7578h-2.2461z"/>
  <path d="m45.559 14.52h-2.6094v-4.125h2.6094z" fill="#fff"/>
  <path d="m45.742 14.699h-2.9726v-4.4883h2.9726zm-2.6094-0.36328h2.2461v-3.7617h-2.2461z"/>
  <path d="m45.559 18.633h-2.6094v-4.1172h2.6094z" fill="#fff"/>
  <path d="m45.742 18.816h-2.9726v-4.4805h2.9726zm-2.6094-0.36328h2.2461v-3.7539h-2.2461z"/>
  <path d="m45.559 22.727h-2.6094v-4.125h2.6094z" fill="#fff"/>
  <path d="m45.742 22.906h-2.9726v-4.4883h2.9726zm-2.6094-0.36328h2.2461v-3.7617h-2.2461z"/>
  <path d="m45.559 26.84h-2.6094v-4.1133h2.6094z" fill="#fff"/>
  <path d="m45.742 27.023h-2.9726v-4.4805h2.9726zm-2.6094-0.36328h2.2461v-3.7539h-2.2461z"/>
  <path d="m45.559 30.922h-2.6094v-4.1133h2.6094z" fill="#fff"/>
  <path d="m45.742 31.105h-2.9726v-4.4766h2.9726zm-2.6094-0.36328h2.2461v-3.7539h-2.2461z"/>
  <path d="m45.559 35.047h-2.6094v-4.125h2.6094z" fill="#fff"/>
  <path d="m45.742 35.23h-2.9726v-4.4883h2.9726zm-2.6094-0.36328h2.2461v-3.7617h-2.2461z"/>
  <path d="m45.559 39.129h-2.6094v-4.1172h2.6094z" fill="#fff"/>
  <path d="m45.742 39.312h-2.9726v-4.4844h2.9726zm-2.6094-0.36328h2.2461v-3.7578h-2.2461z"/>
  <path d="m45.559 43.223h-2.6094v-4.1328h2.6094z" fill="#fff"/>
  <path d="m45.742 43.406h-2.9726v-4.4961h2.9726zm-2.6094-0.36328h2.2461v-3.7695h-2.2461z"/>
  <path d="m45.559 47.34h-2.6094v-4.1172h2.6094z" fill="#fff"/>
  <path d="m45.742 47.523h-2.9726v-4.4805h2.9726zm-2.6094-0.36328h2.2461v-3.7539h-2.2461z"/>
  <path d="m45.559 51.414h-2.6094v-4.1172h2.6094z" fill="#fff"/>
  <path d="m45.742 51.598h-2.9726v-4.4844h2.9726zm-2.6094-0.36328h2.2461v-3.7539h-2.2461z"/>
  <path d="m48.215 10.426h-2.5898v-4.1172h2.5898z" fill="#fff"/>
  <path d="m48.394 10.609h-2.9531v-4.4805h2.9531zm-2.5898-0.36329h2.2266v-3.7539h-2.2266z"/>
  <path d="m48.215 14.52h-2.5898v-4.125h2.5898z" fill="#fff"/>
  <path d="m48.394 14.699h-2.9531v-4.4883h2.9531zm-2.5898-0.36328h2.2266v-3.7617h-2.2266z"/>
  <path d="m48.215 18.633h-2.5898v-4.1172h2.5898z" fill="#fff"/>
  <path d="m48.394 18.816h-2.9531v-4.4805h2.9531zm-2.5898-0.36328h2.2266v-3.7539h-2.2266z"/>
  <path d="m48.215 22.727h-2.5898v-4.125h2.5898z" fill="#fff"/>
  <path d="m48.394 22.906h-2.9531v-4.4883h2.9531zm-2.5898-0.36328h2.2266v-3.7617h-2.2266z"/>
  <path d="m48.215 26.84h-2.5898v-4.1133h2.5898z" fill="#fff"/>
  <path d="m48.394 27.023h-2.9531v-4.4805h2.9531zm-2.5898-0.36328h2.2266v-3.7539h-2.2266z"/>
  <path d="m48.215 30.922h-2.5898v-4.1133h2.5898z" fill="#fff"/>
  <path d="m48.394 31.105h-2.9531v-4.4766h2.9531zm-2.5898-0.36328h2.2266v-3.7539h-2.2266z"/>
  <path d="m48.215 35.047h-2.5898v-4.125h2.5898z" fill="#fff"/>
  <path d="m48.394 35.23h-2.9531v-4.4883h2.9531zm-2.5898-0.36328h2.2266v-3.7617h-2.2266z"/>
  <path d="m48.215 39.129h-2.5898v-4.1172h2.5898z" fill="#fff"/>
  <path d="m48.394 39.312h-2.9531v-4.4844h2.9531zm-2.5898-0.36328h2.2266v-3.7578h-2.2266z"/>
  <path d="m48.215 43.223h-2.5898v-4.1328h2.5898z" fill="#fff"/>
  <path d="m48.394 43.406h-2.9531v-4.4961h2.9531zm-2.5898-0.36328h2.2266v-3.7695h-2.2266z"/>
  <path d="m48.215 47.34h-2.5898v-4.1172h2.5898z" fill="#fff"/>
  <path d="m48.394 47.523h-2.9531v-4.4805h2.9531zm-2.5898-0.36328h2.2266v-3.7539h-2.2266z"/>
  <path d="m48.215 51.414h-2.5898v-4.1172h2.5898z" fill="#fff"/>
  <path d="m48.394 51.598h-2.9531v-4.4844h2.9531zm-2.5898-0.36328h2.2266v-3.7539h-2.2266z"/>
  <path d="m50.902 10.426h-2.6016v-4.1172h2.6016z" fill="#fff"/>
  <g>
   <path d="m51.086 10.609h-2.9648v-4.4805h2.9648zm-2.6016-0.36329h2.2383v-3.7539h-2.2383z"/>
   <path d="m50.902 14.52h-2.6016v-4.125h2.6016z"/>
   <path d="m51.086 14.699h-2.9648v-4.4883h2.9648zm-2.6016-0.36328h2.2383v-3.7617h-2.2383z"/>
  </g>
  <path d="m50.902 18.633h-2.6016v-4.1172h2.6016z" fill="#fff"/>
  <path d="m51.086 18.816h-2.9648v-4.4805h2.9648zm-2.6016-0.36328h2.2383v-3.7539h-2.2383z"/>
  <path d="m50.902 22.727h-2.6016v-4.125h2.6016z" fill="#fff"/>
  <path d="m51.086 22.906h-2.9648v-4.4883h2.9648zm-2.6016-0.36328h2.2383v-3.7617h-2.2383z"/>
  <path d="m50.902 26.84h-2.6016v-4.1133h2.6016z" fill="#fff"/>
  <path d="m51.086 27.023h-2.9648v-4.4805h2.9648zm-2.6016-0.36328h2.2383v-3.7539h-2.2383z"/>
  <path d="m50.902 30.922h-2.6016v-4.1133h2.6016z" fill="#fff"/>
  <path d="m51.086 31.105h-2.9648v-4.4766h2.9648zm-2.6016-0.36328h2.2383v-3.7539h-2.2383z"/>
  <path d="m50.902 35.047h-2.6016v-4.125h2.6016z" fill="#fff"/>
  <path d="m51.086 35.23h-2.9648v-4.4883h2.9648zm-2.6016-0.36328h2.2383v-3.7617h-2.2383z"/>
  <path d="m50.902 39.129h-2.6016v-4.1172h2.6016z" fill="#fff"/>
  <path d="m51.086 39.312h-2.9648v-4.4844h2.9648zm-2.6016-0.36328h2.2383v-3.7578h-2.2383z"/>
  <path d="m50.902 43.223h-2.6016v-4.1328h2.6016z" fill="#fff"/>
  <g>
   <path d="m51.086 43.406h-2.9648v-4.4961h2.9648zm-2.6016-0.36328h2.2383v-3.7695h-2.2383z"/>
   <path d="m50.902 47.34h-2.6016v-4.1172h2.6016z"/>
   <path d="m51.086 47.523h-2.9648v-4.4805h2.9648zm-2.6016-0.36328h2.2383v-3.7539h-2.2383z"/>
  </g>
  <path d="m53.535 10.426h-2.6016v-4.1172h2.6016z" fill="#fff"/>
  <path d="m53.719 10.609h-2.9648v-4.4805h2.9648zm-2.6016-0.36329h2.2383v-3.7539h-2.2383z"/>
  <path d="m53.535 14.52h-2.6016v-4.125h2.6016z" fill="#fff"/>
  <path d="m53.719 14.699h-2.9648v-4.4883h2.9648zm-2.6016-0.36328h2.2383v-3.7617h-2.2383z"/>
  <path d="m53.535 18.633h-2.6016v-4.1172h2.6016z" fill="#fff"/>
  <path d="m53.719 18.816h-2.9648v-4.4805h2.9648zm-2.6016-0.36328h2.2383v-3.7539h-2.2383z"/>
  <path d="m53.535 22.727h-2.6016v-4.125h2.6016z" fill="#fff"/>
  <path d="m53.719 22.906h-2.9648v-4.4883h2.9648zm-2.6016-0.36328h2.2383v-3.7617h-2.2383z"/>
  <path d="m53.535 26.84h-2.6016v-4.1133h2.6016z" fill="#fff"/>
  <path d="m53.719 27.023h-2.9648v-4.4805h2.9648zm-2.6016-0.36328h2.2383v-3.7539h-2.2383z"/>
  <path d="m53.535 30.922h-2.6016v-4.1133h2.6016z" fill="#fff"/>
  <path d="m53.719 31.105h-2.9648v-4.4766h2.9648zm-2.6016-0.36328h2.2383v-3.7539h-2.2383z"/>
  <path d="m53.535 35.047h-2.6016v-4.125h2.6016z" fill="#fff"/>
  <path d="m53.719 35.23h-2.9648v-4.4883h2.9648zm-2.6016-0.36328h2.2383v-3.7617h-2.2383z"/>
  <path d="m53.535 39.129h-2.6016v-4.1172h2.6016z" fill="#fff"/>
  <g>
   <path d="m53.719 39.312h-2.9648v-4.4844h2.9648zm-2.6016-0.36328h2.2383v-3.7578h-2.2383z"/>
   <path d="m53.535 43.223h-2.6016v-4.1328h2.6016z"/>
   <path d="m53.719 43.406h-2.9648v-4.4961h2.9648zm-2.6016-0.36328h2.2383v-3.7695h-2.2383z"/>
  </g>
  <path d="m53.535 47.34h-2.6016v-4.1172h2.6016z" fill="#fff"/>
  <path d="m53.719 47.523h-2.9648v-4.4805h2.9648zm-2.6016-0.36328h2.2383v-3.7539h-2.2383z"/>
  <path d="m56.207 14.52h-2.5977v-4.125h2.5977z" fill="#fff"/>
  <path d="m56.387 14.699h-2.9609v-4.4883h2.9609zm-2.5976-0.36328h2.2344v-3.7617h-2.2344z"/>
  <path d="m56.207 18.633h-2.5977v-4.1172h2.5977z" fill="#fff"/>
  <path d="m56.387 18.816h-2.9609v-4.4805h2.9609zm-2.5976-0.36328h2.2344v-3.7539h-2.2344z"/>
  <path d="m56.207 22.727h-2.5977v-4.125h2.5977z" fill="#fff"/>
  <path d="m56.387 22.906h-2.9609v-4.4883h2.9609zm-2.5976-0.36328h2.2344v-3.7617h-2.2344z"/>
  <path d="m56.207 26.84h-2.5977v-4.1133h2.5977z" fill="#fff"/>
  <path d="m56.387 27.023h-2.9609v-4.4805h2.9609zm-2.5976-0.36328h2.2344v-3.7539h-2.2344z"/>
  <path d="m56.207 30.922h-2.5977v-4.1133h2.5977z" fill="#fff"/>
  <path d="m56.387 31.105h-2.9609v-4.4766h2.9609zm-2.5976-0.36328h2.2344v-3.7539h-2.2344z"/>
  <path d="m56.207 35.047h-2.5977v-4.125h2.5977z" fill="#fff"/>
  <path d="m56.387 35.23h-2.9609v-4.4883h2.9609zm-2.5976-0.36328h2.2344v-3.7617h-2.2344z"/>
  <path d="m56.207 39.129h-2.5977v-4.1172h2.5977z" fill="#fff"/>
  <path d="m56.387 39.312h-2.9609v-4.4844h2.9609zm-2.5976-0.36328h2.2344v-3.7578h-2.2344z"/>
  <path d="m56.207 43.223h-2.5977v-4.1328h2.5977z" fill="#fff"/>
  <path d="m56.387 43.406h-2.9609v-4.4961h2.9609zm-2.5976-0.36328h2.2344v-3.7695h-2.2344z"/>
  <path d="m58.879 18.633h-2.5977v-4.1172h2.5977z" fill="#fff"/>
  <path d="m59.059 18.816h-2.957v-4.4805h2.957zm-2.5938-0.36328h2.2305v-3.7539h-2.2305z"/>
  <path d="m58.879 22.727h-2.5977v-4.125h2.5977z" fill="#fff"/>
  <path d="m59.059 22.906h-2.957v-4.4883h2.957zm-2.5938-0.36328h2.2305v-3.7617h-2.2305z"/>
  <path d="m58.879 26.84h-2.5977v-4.1133h2.5977z" fill="#fff"/>
  <path d="m59.059 27.023h-2.957v-4.4805h2.957zm-2.5938-0.36328h2.2305v-3.7539h-2.2305z"/>
  <path d="m58.879 30.922h-2.5977v-4.1133h2.5977z" fill="#fff"/>
  <path d="m59.059 31.105h-2.957v-4.4766h2.957zm-2.5938-0.36328h2.2305v-3.7539h-2.2305z"/>
  <path d="m58.879 35.047h-2.5977v-4.125h2.5977z" fill="#fff"/>
  <path d="m59.059 35.23h-2.957v-4.4883h2.957zm-2.5938-0.36328h2.2305v-3.7617h-2.2305z"/>
  <path d="m58.879 39.129h-2.5977v-4.1172h2.5977z" fill="#fff"/>
  <path d="m59.059 39.312h-2.957v-4.4844h2.957zm-2.5938-0.36328h2.2305v-3.7578h-2.2305z"/>
  <path d="m58.879 43.223h-2.5977v-4.1328h2.5977z" fill="#fff"/>
  <path d="m59.059 43.406h-2.957v-4.4961h2.957zm-2.5938-0.36328h2.2305v-3.7695h-2.2305z"/>
  <path d="m61.555 22.727h-2.5976v-4.125h2.5976z" fill="#fff"/>
  <path d="m61.734 22.906h-2.957v-4.4883h2.957zm-2.5938-0.36328h2.2305v-3.7617h-2.2305z"/>
  <path d="m61.555 26.84h-2.5976v-4.1133h2.5976z" fill="#fff"/>
  <path d="m61.734 27.023h-2.957v-4.4805h2.957zm-2.5938-0.36328h2.2305v-3.7539h-2.2305z"/>
  <path d="m61.555 30.922h-2.5976v-4.1133h2.5976z" fill="#fff"/>
  <path d="m61.734 31.105h-2.957v-4.4766h2.957zm-2.5938-0.36328h2.2305v-3.7539h-2.2305z"/>
  <path d="m61.555 35.047h-2.5976v-4.125h2.5976z" fill="#fff"/>
  <path d="m61.734 35.23h-2.957v-4.4883h2.957zm-2.5938-0.36328h2.2305v-3.7617h-2.2305z"/>
  <path d="m64.144 30.922h-2.5547v-4.1133l2.8476-0.0117z" fill="#fff"/>
  <path d="m61.406 31.105v-4.4766l3.2266-0.0156-0.31641 4.4883zm0.36329-4.1172v3.7539l2.207-4e-3 0.26562-3.7617z"/>
  <path d="m16.297 10.797v3.7226h2.5938v-4.1289h-2.2773c-0.10547 0.1289-0.21094 0.26953-0.31641 0.40625" fill="#fff"/>
  <path d="m19.074 14.699h-2.957v-3.9609l0.0352-0.0508c0.10547-0.13672 0.21094-0.28125 0.32422-0.41406l0.0547-0.0625h2.543zm-2.5938-0.36328h2.2305v-3.7617h-2.0117c-0.0742 0.0898-0.14843 0.1875-0.21875 0.28516z"/>
  <path d="m16.254 14.516h-2.3438c-0.0859 0.16406-0.17187 0.32812-0.26172 0.5039v3.6172h2.6055z" fill="#fff"/>
  <path d="m16.434 18.816h-2.9648l0.0195-3.8789c0.0898-0.17578 0.17578-0.34375 0.26562-0.50781l0.0508-0.0937h2.6289zm-2.6055-0.36328h2.2422v-3.7539h-2.0508c-0.0625 0.11719-0.125 0.23828-0.19141 0.36328z"/>
  <path d="m61.555 14.941c-0.0742-0.14453-0.14453-0.28516-0.21484-0.42578h-2.3828v4.1172h2.5976z" fill="#fff"/>
  <path d="m61.734 18.816h-2.957v-4.4805h2.6758l0.28125 0.60547zm-2.5938-0.36328h2.2305v-3.4688l-0.14063-0.28516h-2.0898z"/>
  <path d="m58.879 10.703c-0.0781-0.10938-0.16016-0.21094-0.24219-0.3086h-2.3555v4.125h2.5977z" fill="#fff"/>
  <path d="m59.059 14.699h-2.957v-4.4883h2.625l0.0508 0.0664c0.0937 0.11719 0.17187 0.21485 0.25 0.32032l0.0312 0.0469zm-2.5938-0.36328h2.2305v-3.5742c-0.0469-0.0664-0.0937-0.125-0.14453-0.1875h-2.0859z"/>
  <path d="m47.77 2.1914h-2.1445v4.1172h2.5898v-3.9336c-0.14063-0.0664-0.29297-0.12109-0.44531-0.18359" fill="#fff"/>
  <path d="m48.394 6.4922h-2.9531v-4.4844l2.3984 0.0156 0.14844 0.0586c0.10156 0.043 0.20312 0.082 0.30468 0.12891l0.10157 0.0469zm-2.5898-0.36328h2.2266v-3.6367c-0.0586-0.0274-0.11718-0.0508-0.17968-0.0742l-0.11719-0.0469h-1.9297z"/>
  <path d="m29.547 1.4375c-0.72656 0.23047-1.4414 0.49609-2.1445 0.78516h2.1445z" fill="#fff"/>
  <path d="m29.727 2.4023h-2.3281l-0.0664-0.34765c0.71484-0.29688 1.4414-0.5625 2.1562-0.78906l0.23828-0.0781zm-1.3672-0.35937h1.0039v-0.35547c-0.33204 0.10938-0.66797 0.22656-1.0039 0.35547"/>
  <path d="m29.621 1.4141v0.8086h2.6016v-1.4883c-0.87891 0.1914-1.7461 0.41796-2.6016 0.67968" fill="#fff"/>
  <path d="m32.402 2.4023h-2.9648v-1.125l0.12891-0.0391c0.86719-0.26562 1.75-0.49609 2.6172-0.68359l0.21875-0.0469zm-2.6016-0.35937h2.2422v-1.082c-0.74609 0.16406-1.4961 0.36328-2.2422 0.58594z"/>
  <path d="m32.297 0.71875v1.5039h2.5977v-1.8984c-0.875 0.0859-1.7383 0.21875-2.5977 0.39453" fill="#fff"/>
  <path d="m35.074 2.4023h-2.957v-1.832l0.14063-0.0273c0.85937-0.17969 1.7422-0.3125 2.6172-0.40234l0.19922-0.0195zm-2.5976-0.35937h2.2344v-1.5195c-0.74609 0.082-1.4961 0.19531-2.2344 0.34375z"/>
  <path d="m37.57 0.1875c-0.87891 4e-3 -1.7422 0.0469-2.5977 0.13672v1.8984h2.5977z" fill="#fff"/>
  <path d="m37.754 2.4023h-2.9648v-2.2461l0.16406-0.0156c0.86328-0.0859 1.7188-0.13282 2.6172-0.13282l0.18359-4e-3zm-2.6016-0.35937h2.2383v-1.6719c-0.76563 8e-3 -1.5039 0.0469-2.2383 0.11329z"/>
  <path d="m40.242 2.2227v-1.9102c-0.85547-0.082-1.7226-0.12891-2.5976-0.12891v2.0391z" fill="#fff"/>
  <path d="m40.422 2.4023h-2.9609v-2.4023h0.1836c0.83203 0 1.6875 0.043 2.6133 0.13281l0.16406 0.0156zm-2.5977-0.35937h2.2344v-1.5664c-0.78516-0.0703-1.5195-0.10547-2.2344-0.11328z"/>
  <path d="m40.281 0.31641v1.9062h2.5977v-1.5156c-0.85547-0.17578-1.7188-0.30859-2.5977-0.39062" fill="#fff"/>
  <path d="m43.059 2.4023h-2.957v-2.2852l0.19922 0.0195c0.86718 0.082 1.7461 0.21094 2.6172 0.39062l0.14063 0.0312zm-2.5938-0.35937h2.2305v-1.1875c-0.73828-0.14844-1.4883-0.26172-2.2305-0.33984z"/>
  <path d="m45.625 1.4023v0.82032h2.2422c-0.74219-0.30078-1.4805-0.58203-2.2422-0.82032" fill="#fff"/>
  <path d="m47.867 2.4023h-2.4258v-1.2461l0.23828 0.0742c0.67188 0.21094 1.3867 0.46875 2.2539 0.82422zm-2.0625-0.35937h1.1016c-0.39062-0.15234-0.7539-0.27734-1.1016-0.39063z"/>
  <path d="m50.902 3.7266c-0.84375-0.48437-1.707-0.92187-2.6016-1.3164v3.9023h2.6016z" fill="#fff"/>
  <path d="m51.082 6.4922h-2.9609v-4.3555l0.2539 0.10937c0.875 0.38282 1.7578 0.82813 2.6172 1.3242l0.0898 0.0508zm-2.5977-0.36328h2.2383v-2.2969c-0.73828-0.41797-1.4922-0.80078-2.2383-1.1406z"/>
  <path d="m50.934 3.7461v2.5625h2.6016v-0.86718c-0.83203-0.60938-1.6953-1.1758-2.6016-1.6953" fill="#fff"/>
  <path d="m53.719 6.4922h-2.9648v-3.0586l0.27344 0.15235c0.88281 0.51172 1.7656 1.0859 2.6172 1.707l0.0742 0.0586zm-2.6016-0.36328h2.2383v-0.59375c-0.73047-0.53516-1.4805-1.0274-2.2383-1.4727z"/>
  <path d="m53.609 5.5v0.80859h1.0352c-0.33985-0.27734-0.67969-0.54687-1.0352-0.80859" fill="#fff"/>
  <path d="m55.152 6.4922h-1.7266v-1.3555l0.29296 0.21484c0.34766 0.26172 0.69141 0.52735 1.043 0.82032z"/>
  <path d="m54.644 6.3086h-1.0352v4.1172h2.5977v-2.7109c-0.5-0.48437-1.0195-0.96093-1.5625-1.4062" fill="#fff"/>
  <path d="m56.387 10.609h-2.9609v-4.4805h1.2852l0.0508 0.0391c0.47657 0.39453 0.97657 0.84375 1.5703 1.418l0.0547 0.0508zm-2.5976-0.36329h2.2344v-2.4531c-0.53906-0.52344-1.0039-0.9375-1.4414-1.3008h-0.79297z"/>
  <path d="m58.957 10.797v3.7226h2.3828c-0.69922-1.3125-1.4961-2.5547-2.3828-3.7226" fill="#fff"/>
  <path d="m61.644 14.699h-2.8672v-4.4414l0.32422 0.42969c0.88672 1.1719 1.6953 2.4297 2.3984 3.7461zm-2.5039-0.36328h1.8945c-0.57031-1.0391-1.207-2.043-1.8945-2.9883z"/>
  <path d="m61.59 15.016v3.6211h1.5c-0.41016-1.2578-0.91406-2.4609-1.5-3.6211" fill="#fff"/>
  <path d="m63.34 18.816h-1.9336v-3.8008l0.34375-0.0859c0.60157 1.1914 1.1094 2.418 1.5117 3.6484zm-1.5703-0.36328h1.0703c-0.30469-0.89454-0.66016-1.7812-1.0703-2.6524z"/>
  <path d="m63.086 18.598h-1.4961v4.125h2.5039c-0.22656-1.418-0.5664-2.7891-1.0078-4.125" fill="#fff"/>
  <path d="m64.309 22.906h-2.9024v-4.4883h1.8125l0.0391 0.125c0.45312 1.375 0.79297 2.7734 1.0156 4.1523zm-2.5391-0.36328h2.1094c-0.21094-1.25-0.51953-2.5156-0.92578-3.7617h-1.1836z"/>
  <path d="m63.223 35.012h-1.6328v3.9961c0.64453-1.2773 1.1992-2.6133 1.6328-3.9961" fill="#fff"/>
  <path d="m61.75 39.09-0.34375-0.082v-4.1797h2.0625l-0.0742 0.23828c-0.41797 1.3398-0.97266 2.6953-1.6445 4.0234m0.0195-3.8984v3.0312c0.47265-1.0039 0.8789-2.0195 1.207-3.0312z"/>
  <path d="m58.957 39.09v4.1328h0.0234c0.97657-1.293 1.8281-2.6797 2.5703-4.1328z" fill="#fff"/>
  <path d="m59.07 43.406h-0.29297v-4.4961h3.0703l-0.13281 0.26562c-0.77344 1.5039-1.6445 2.9024-2.5898 4.1562zm0.0703-4.1328v3.4297c0.76172-1.0547 1.4688-2.207 2.1133-3.4297z"/>
  <path d="m56.281 46.254c0.9336-0.90625 1.8008-1.8711 2.5977-2.9024v-0.1289h-2.5977z" fill="#fff"/>
  <path d="m56.098 46.684v-3.6445h2.9609v0.375l-0.0352 0.0469c-0.78515 1.0156-1.6641 2-2.6172 2.9219zm0.36328-3.2773v2.4141c0.77344-0.77343 1.4922-1.582 2.1445-2.4141z"/>
  <path d="m53.609 47.34h1.4922c0.38281-0.32812 0.74218-0.66796 1.1055-1.0156v-3.1016h-2.5977z" fill="#fff"/>
  <path d="m55.172 47.52h-1.7461v-4.4766h2.9609v3.3594l-0.0547 0.0547c-0.33985 0.32813-0.71094 0.67969-1.1094 1.0195zm-1.3789-0.36328h1.2422c0.35156-0.30078 0.68359-0.61328 0.98828-0.91016v-2.8438h-2.2305z"/>
  <path d="m53.609 47.297v1.2422c0.52734-0.39062 1.043-0.80468 1.5352-1.2422z" fill="#fff"/>
  <path d="m53.426 48.898v-1.7852h2.1992l-0.35937 0.32031c-0.47656 0.42188-1 0.83985-1.5469 1.25zm0.36328-1.4219v0.69922c0.30078-0.23047 0.59375-0.46484 0.87109-0.69922z"/>
  <path d="m50.934 50.281c0.89844-0.52344 1.7695-1.0703 2.6016-1.6836v-1.3008h-2.6016z" fill="#fff"/>
  <path d="m50.754 50.598v-3.4844h2.9648v1.5742l-0.0742 0.0547c-0.74219 0.54687-1.5742 1.0859-2.6172 1.6992zm0.36328-3.1211v2.4883c0.875-0.51562 1.5898-0.98828 2.2383-1.4609v-1.0274z"/>
  <path d="m48.301 51.414h0.44921c0.73438-0.33203 1.4531-0.71484 2.1524-1.1133v-3.0039h-2.6016z" fill="#fff"/>
  <path d="m48.789 51.598h-0.66797v-4.4844h2.9648v3.2969l-0.0937 0.0508c-0.83203 0.47265-1.5234 0.82812-2.168 1.1211zm-0.30469-0.36328h0.22656c0.60156-0.27344 1.2461-0.60547 2.0078-1.0391v-2.7188h-2.2344z"/>
  <path d="m26.914 47.297h-2.6016v3.0039c0.70313 0.39844 1.418 0.78516 2.1562 1.1133h0.44532z" fill="#fff"/>
  <path d="m27.098 51.598-0.70312-0.0156c-0.64454-0.28906-1.3359-0.64844-2.1719-1.125l-0.0898-0.0508v-3.293h2.9648zm-0.58984-0.36328h0.22265v-3.7578h-2.2344v2.7188c0.76562 0.4336 1.4102 0.76953 2.0117 1.0391"/>
  <path d="m21.644 48.559c0.82812 0.61719 1.6992 1.1797 2.5938 1.6992v-2.9609h-2.5938z" fill="#fff"/>
  <path d="m24.422 50.57-0.27344-0.16015c-0.97265-0.5586-1.8281-1.1211-2.6133-1.7031l-0.0703-0.0547v-1.5391h2.957zm-2.5938-2.1016c0.67578 0.50391 1.4102 0.98438 2.2305 1.4727v-2.4648h-2.2305z"/>
  <path d="m21.566 48.5v-1.2031h-1.4961c0.48437 0.41796 0.98437 0.82421 1.4961 1.2031" fill="#fff"/>
  <path d="m21.746 48.859-0.28906-0.21485c-0.48829-0.35937-0.98047-0.75781-1.5039-1.2109l-0.36719-0.32031h2.1602zm-1.1836-1.3828c0.28125 0.23828 0.55079 0.45313 0.82422 0.66016v-0.66016z"/>
  <path d="m18.965 46.281c0.375 0.35938 0.75781 0.71484 1.1484 1.0586h1.4531v-4.1172h-2.6016z" fill="#fff"/>
  <path d="m21.75 47.52h-1.7031l-0.0508-0.043c-0.34766-0.30078-0.71094-0.64062-1.1524-1.0664l-0.0586-0.0508v-3.3164h2.9648zm-1.5664-0.36328h1.2031v-3.7539h-2.2383v2.8008c0.39063 0.375 0.72266 0.68359 1.0352 0.95312"/>
  <path d="m16.297 43.281c0.78906 1.0312 1.6641 2.0156 2.5938 2.9297v-2.9883h-2.5938z" fill="#fff"/>
  <path d="m19.074 46.641-0.30859-0.30079c-0.94922-0.93359-1.832-1.9258-2.6133-2.9453l-0.0352-0.0508v-0.30469h2.957zm-2.4531-3.2344c0.64062 0.8125 1.3398 1.6094 2.0898 2.3672v-2.3672z"/>
  <path d="m16.254 39.09h-2.5703c0.73047 1.4531 1.5859 2.8398 2.5625 4.1328h8e-3z" fill="#fff"/>
  <path d="m16.437 43.406h-0.28125l-0.0547-0.0742c-0.96094-1.2734-1.832-2.6719-2.582-4.1602l-0.13282-0.26172h3.0508zm-2.457-4.1328c0.625 1.2031 1.3242 2.3476 2.0938 3.4102v-3.4102z"/>
  <path d="m13.586 30.922h-2.5c0.20313 1.418 0.52735 2.793 0.94531 4.125h1.5547z" fill="#fff"/>
  <path d="m13.766 35.23h-1.8672l-0.0391-0.125c-0.4375-1.3906-0.75781-2.7852-0.95313-4.1562l-0.0312-0.20703h2.8906zm-1.5977-0.36328h1.2344v-3.7617h-2.1094c0.19141 1.2422 0.48438 2.5078 0.875 3.7617"/>
  <path d="m13.586 38.895v-3.8867h-1.5625c0.42188 1.3516 0.94531 2.6406 1.5625 3.8867" fill="#fff"/>
  <path d="m13.422 38.977c-0.63281-1.2812-1.1602-2.5938-1.5703-3.9141l-0.0742-0.23437h1.9883v4.0664zm-1.1484-3.7852c0.3125 0.97265 0.69141 1.9453 1.1289 2.8984v-2.8984z"/>
  <path d="m13.586 22.723h-2.4297c-0.0703 0.39843-0.125 0.80078-0.17187 1.2148l-0.14453 2.9219 2.7461-0.0195z" fill="#fff"/>
  <path d="m10.648 27.039 0.15235-3.1094c0.0469-0.40235 0.10156-0.82031 0.17578-1.2383l0.0273-0.14844h2.7617v4.4805zm0.66016-4.1328c-0.0586 0.35938-0.10547 0.71484-0.14453 1.0508l-0.13282 2.7188 2.3711-0.0156v-3.7539z"/>
  <path d="m13.586 22.723v-4.125h-1.418c-0.4414 1.3359-0.78515 2.707-1.0117 4.125z" fill="#fff"/>
  <path d="m13.766 22.906h-2.8242l0.0352-0.21094c0.22265-1.3906 0.57031-2.7891 1.0195-4.1523l0.043-0.125h1.7266zm-2.3945-0.36328h2.0312v-3.7617h-1.1016c-0.40235 1.2383-0.71875 2.5-0.92969 3.7617"/>
  <path d="m13.586 18.633v-3.4805c-0.55469 1.125-1.0352 2.2852-1.4336 3.4805z" fill="#fff"/>
  <path d="m13.766 18.816h-1.8672l0.082-0.23828c0.39063-1.1836 0.87891-2.3633 1.4414-3.5078l0.34375 0.082zm-1.3594-0.36328h0.9961v-2.4961c-0.375 0.82031-0.71094 1.6562-0.9961 2.4961"/>
  <path d="m18.891 10.426v-2.5703c-0.82422 0.80859-1.5938 1.668-2.3047 2.5703z" fill="#fff"/>
  <path d="m19.074 10.609h-2.8633l0.23047-0.29688c0.73438-0.92578 1.5156-1.793 2.3242-2.5859l0.30859-0.30078zm-2.1133-0.36329h1.75v-1.9531c-0.60156 0.60937-1.1914 1.2656-1.75 1.9531"/>
  <path d="m18.965 10.426h2.6016v-4.1172h-0.95312c-0.57422 0.46875-1.1172 0.96875-1.6484 1.4844z" fill="#fff"/>
  <path d="m21.746 10.609h-2.9609v-2.8906l0.0547-0.0547c0.62109-0.60547 1.1484-1.0781 1.6602-1.4961l0.0508-0.0391h1.1953zm-2.5977-0.36329h2.2344v-3.7539h-0.70313c-0.47265 0.38672-0.96094 0.82812-1.5312 1.3789z"/>
  <path d="m21.566 5.5625c-0.32422 0.24219-0.64453 0.49219-0.95312 0.75h0.95312z" fill="#fff"/>
  <path d="m21.746 6.4922h-1.6367l0.39062-0.32031c0.3086-0.25782 0.63282-0.50782 0.95704-0.75391l0.28906-0.21875z"/>
  <path d="m21.644 5.5v0.80859h2.5938v-2.5117c-0.90235 0.51953-1.7656 1.082-2.5938 1.7031" fill="#fff"/>
  <path d="m24.422 6.4922h-2.957v-1.082l0.0703-0.0547c0.79688-0.60156 1.6523-1.1641 2.6133-1.7188l0.27344-0.15625zm-2.5938-0.36328h2.2305v-2.0195c-0.8125 0.48046-1.543 0.96875-2.2305 1.4805z"/>
  <path d="m26.914 2.4336c-0.89453 0.39454-1.7656 0.83594-2.6016 1.3164v2.5586h2.6016z" fill="#fff"/>
  <path d="m27.094 6.4922h-2.9609v-2.8477l0.0898-0.0508c0.86328-0.49609 1.7461-0.94141 2.6172-1.3242l0.2539-0.11328zm-2.5976-0.36328h2.2383v-3.4141c-0.75 0.33594-1.5 0.72266-2.2383 1.1406z"/>
  <path d="m26.949 6.3086h2.5977v-4.1211h-2.0547c-0.17578 0.0781-0.35937 0.15234-0.54297 0.23047z" fill="#fff"/>
  <path d="m29.727 6.4922h-2.9609v-4.1953l0.72656-0.28907h2.2344zm-2.5977-0.36328h2.2344v-3.7578h-1.832l-0.40234 0.16797z"/>
  <path d="m64.191 23.359c-0.0312-0.21875-0.0625-0.42579-0.0977-0.63282h-2.5039v4.1133l2.8476 0.0312z" fill="#fff"/>
  <path d="m64.629 27.047-3.2148-0.0312v-4.4688h2.8281l0.0273 0.14843c0.0234 0.15625 0.0469 0.3125 0.0703 0.47266l0.0273 0.16797zm-2.8633-0.37891 2.4844 0.0234-0.25781-3.4688c-0.0156-0.10938-0.0312-0.21485-0.0469-0.32422h-2.1797z"/>
  <path d="m61.59 30.922v4.125h1.6211c0.42188-1.332 0.74219-2.707 0.94922-4.125z" fill="#fff"/>
  <path d="m63.344 35.23h-1.9375v-4.4883h2.9609l-0.0312 0.20703c-0.20312 1.4023-0.52344 2.7969-0.95312 4.1562zm-1.5742-0.36328h1.3086c0.38281-1.2305 0.67187-2.4961 0.87109-3.7617h-2.1797z"/>
  <path d="m61.555 35.012h-2.5976v4.1172h2.5703c8e-3 -0.0156 0.0195-0.0391 0.0273-0.0547z" fill="#fff"/>
  <path d="m61.633 39.312h-2.8555v-4.4844h2.957l-0.0195 4.3281zm-2.4922-0.36328h2.2305v-3.7578h-2.2305z"/>
  <path d="m13.703 39.129h2.5508v-4.1172h-2.6055v4.0234c0.0195 0.0273 0.0352 0.0547 0.0547 0.0937" fill="#fff"/>
  <path d="m16.434 39.312h-2.8398l-0.0508-0.0977c-0.0156-0.0273-0.0234-0.0508-0.0391-0.0664l-0.0352-0.0508v-4.2695h2.9648zm-2.6016-0.36328h2.2422v-3.7578h-2.2422z"/>
  <path d="m11.086 30.922h2.5v-4.1133l-2.7461 4e-3 0.14453 3.207c0.0312 0.30078 0.0586 0.60547 0.10156 0.90235" fill="#fff"/>
  <path d="m13.766 31.105h-2.8359l-0.0273-0.15625c-0.0274-0.19922-0.0469-0.40625-0.0703-0.60938l-0.0273-0.30078-0.15234-3.4062 3.1133-4e-3zm-2.5234-0.36328h2.1602v-3.7539l-2.3711 8e-3 0.16407 3.3086c0.0156 0.14453 0.0312 0.29297 0.0469 0.4375"/>
  <g fill="#dc2f34">
   <path d="m66.98 55.832v-1.1055l-59.262 0.0352v2.2305l59.262-0.043z"/>
   <path d="m65.07 20.191c-5.4961 0-9.6914 2.8633-9.6914 7.8398 0 4.1953 3.8242 7.1641 8.9492 7.1641 3.8984 0 7.1289-2.8203 8.0547-4.6055 0-0.55078-0.5586-0.78125-1.0703-0.78125-0.89843 1.375-3.418 2.418-4.457 2.3789-6.2031-0.22656-7.207-2.7109-7.2812-5.3086-0.11718-2.8203 2.9336-5.2774 5.5352-5.0859 1.5156 0.10547 2.043 2.5898 3.3711 3.4844 0.41797 0.23047 1.3789 0.1875 2.0117 0.0781 0.48438-0.0781 1.7774-0.37109 1.7774-1.4883 0-0.92578-1.1524-1.9688-2.2617-2.6328-1.1094-0.51954-3.6016-1.043-4.9375-1.043"/>
   <path d="m28.398 30.961c0 2.3008-0.58984 3.5273-2.4492 3.6328l0.0469 0.37891c3.1094-0.0352 6.2734 0 9.3086-0.0703l0.0352-0.19531c-1.4024 0-2.4844-1.4844-2.4844-3.332v-6.2031c0-1.5274 1.8555-2.4922 3.1172-2.3789 1.9648 0.18359 3.0469 1.4453 3.0469 2.5625v6.0898c0 1.8555-0.5586 3.0078-2.0039 3.1133v0.34375h8.5352v-0.26171c-1.2656-0.15235-2.1524-1.3086-2.1524-3.0469v-6.3906c0-1.3711 1.1875-2.3008 3.3086-2.332 1.8555-0.0391 2.9648 1.3359 2.9648 2.6367v5.7891c0 1.9648-0.59375 3.1914-2.0742 3.3438v0.26171c3.1172 0.0352 5.6758 0.0352 8.7578 0v-0.19531c-1.6289 0-2.1875-1.0703-2.1875-3.332v-6.3906c0-2.1133-1.1523-4.6406-4.3789-4.6406-2.1914 0-3.7969 1.0703-4.7148 1.3789-0.63281 0.25-1.0781 0.55078-1.2305 0.55078-0.28906 0-0.62109-0.1836-1.0352-0.62891-0.78125-0.82422-2.1914-1.3008-3.6797-1.3008-1.8945 0-3.7891 1.0703-4.6836 1.3789-0.10157 0.0312-0.76563 0.36718-0.84766 0.36718-0.14844 0-0.74219 0-0.74219-0.0742 0-1.7812 0.11328-0.89454 0.0391-2.1562h-1.2266c-0.36718 0-1.0078 0.67187-1.7461 0.96093-0.89063 0.37891-2.6758 0.33985-3.4102 0.52735v1.2578l1.9219 0.37109v2.4531z"/>
   <path d="m20.047 34.938c3.2695-0.15625 6.4219-0.85547 6.4219-4.0156 0-2.293-2.5234-3.7461-5.1953-4.8984-1.7148-0.70313-4.1953-1.7461-4.1953-2.5625 0-0.96485 1.8906-2.8203 3.7109-1.3359l3.1562 2.6367 1.4492-0.30078-0.8125-3.9297c-0.7461 0.0352-1.2656 0.0742-3.9805-0.37891-3.3438-0.47656-7.3125 1.1953-7.3125 4.3086 0 2.0859 3.0117 3.5273 5.3906 4.4961 1.2969 0.55469 3.6016 1.375 3.6016 2.6367 0 1.2188-2.1602 1.5586-3.3828 1.5586-2.0781 0-4.3867-2.7852-4.3867-2.7852h-1.3672l0.74218 4.1641c0.25391-0.22656 1.1875-0.19531 1.375-0.11328 0.66797 0.25391 3.0781 0.63281 4.7852 0.51953"/>
   <path d="m12.172 22.312v-1.9336l-4.043 0.0391c-0.51562 0-0.48437-0.10938-0.48437-0.78125l0.0391-2.6367-2.043-0.0352c-0.625 1.4102-1.4062 2.3398-1.8516 2.5234l-3.7891 1.6719v1.1875l1.418 0.0351c0.62891 0 0.88672-0.0351 0.88672 0.70703v7.832c0 2.3789 1.2969 4.125 4.6484 4.2031 2.5117 0.0664 4.043-1.043 5.1133-2.0859l-0.29687-1.0039c-0.44922 0.30078-0.8125 0.5625-1.4102 0.5625-2.8594 0-2.7812-2.2305-2.7812-4.1992v-5.3086c0-0.77734 0.0664-0.77734 0.58984-0.77734z"/>
  </g>
 </g>
 <g transform="translate(-790.45 -228.24)" fill="#fff">
  <use x="506.36819" y="719.33612" xlink:href="#glyph-2-5"/>
 </g>
</svg>
